solid assembly - link1-1
   facet normal 1.045761e-001 0.000000e+000 -9.945169e-001
      outer loop
         vertex 1.101602e+002 4.848713e-002 2.430207e+002
         vertex 1.179819e+002 3.000485e+002 2.436363e+002
         vertex 1.179819e+002 4.848713e-002 2.436363e+002
      endloop
   endfacet
   facet normal 2.078648e-001 0.000000e+000 -9.781576e-001
      outer loop
         vertex 1.179819e+002 4.848713e-002 2.436363e+002
         vertex 1.179819e+002 3.000485e+002 2.436363e+002
         vertex 1.256110e+002 3.000485e+002 2.454679e+002
      endloop
   endfacet
   facet normal 2.588654e-001 0.000000e+000 -9.659134e-001
      outer loop
         vertex 1.179819e+002 4.848713e-002 2.436363e+002
         vertex 1.256110e+002 3.000485e+002 2.454679e+002
         vertex 1.256110e+002 4.848713e-002 2.454679e+002
      endloop
   endfacet
   facet normal 3.583232e-001 0.000000e+000 -9.335976e-001
      outer loop
         vertex 1.256110e+002 4.848713e-002 2.454679e+002
         vertex 1.256110e+002 3.000485e+002 2.454679e+002
         vertex 1.328597e+002 3.000485e+002 2.484704e+002
      endloop
   endfacet
   facet normal 4.067805e-001 0.000000e+000 -9.135259e-001
      outer loop
         vertex 1.256110e+002 4.848713e-002 2.454679e+002
         vertex 1.328597e+002 3.000485e+002 2.484704e+002
         vertex 1.328597e+002 4.848713e-002 2.484704e+002
      endloop
   endfacet
   facet normal 4.999584e-001 0.000000e+000 -8.660494e-001
      outer loop
         vertex 1.328597e+002 4.848713e-002 2.484704e+002
         vertex 1.328597e+002 3.000485e+002 2.484704e+002
         vertex 1.395495e+002 3.000485e+002 2.525699e+002
      endloop
   endfacet
   facet normal 5.446792e-001 0.000000e+000 -8.386444e-001
      outer loop
         vertex 1.328597e+002 4.848713e-002 2.484704e+002
         vertex 1.395495e+002 3.000485e+002 2.525699e+002
         vertex 1.395495e+002 4.848713e-002 2.525699e+002
      endloop
   endfacet
   facet normal 6.292831e-001 0.000000e+000 -7.771761e-001
      outer loop
         vertex 1.395495e+002 4.848713e-002 2.525699e+002
         vertex 1.395495e+002 3.000485e+002 2.525699e+002
         vertex 1.455155e+002 3.000485e+002 2.576654e+002
      endloop
   endfacet
   facet normal 6.691663e-001 0.000000e+000 -7.431127e-001
      outer loop
         vertex 1.395495e+002 4.848713e-002 2.525699e+002
         vertex 1.455155e+002 3.000485e+002 2.576654e+002
         vertex 1.455155e+002 4.848713e-002 2.576654e+002
      endloop
   endfacet
   facet normal 7.431127e-001 0.000000e+000 -6.691663e-001
      outer loop
         vertex 1.455155e+002 4.848713e-002 2.576654e+002
         vertex 1.455155e+002 3.000485e+002 2.576654e+002
         vertex 1.506110e+002 3.000485e+002 2.636315e+002
      endloop
   endfacet
   facet normal 7.771761e-001 0.000000e+000 -6.292831e-001
      outer loop
         vertex 1.455155e+002 4.848713e-002 2.576654e+002
         vertex 1.506110e+002 3.000485e+002 2.636315e+002
         vertex 1.506110e+002 4.848713e-002 2.636315e+002
      endloop
   endfacet
   facet normal 8.386444e-001 0.000000e+000 -5.446792e-001
      outer loop
         vertex 1.506110e+002 4.848713e-002 2.636315e+002
         vertex 1.506110e+002 3.000485e+002 2.636315e+002
         vertex 1.547105e+002 3.000485e+002 2.703212e+002
      endloop
   endfacet
   facet normal 8.660494e-001 0.000000e+000 -4.999584e-001
      outer loop
         vertex 1.506110e+002 4.848713e-002 2.636315e+002
         vertex 1.547105e+002 3.000485e+002 2.703212e+002
         vertex 1.547105e+002 4.848713e-002 2.703212e+002
      endloop
   endfacet
   facet normal 9.135259e-001 0.000000e+000 -4.067805e-001
      outer loop
         vertex 1.547105e+002 4.848713e-002 2.703212e+002
         vertex 1.547105e+002 3.000485e+002 2.703212e+002
         vertex 1.577130e+002 3.000485e+002 2.775699e+002
      endloop
   endfacet
   facet normal 9.335976e-001 0.000000e+000 -3.583232e-001
      outer loop
         vertex 1.547105e+002 4.848713e-002 2.703212e+002
         vertex 1.577130e+002 3.000485e+002 2.775699e+002
         vertex 1.577130e+002 4.848713e-002 2.775699e+002
      endloop
   endfacet
   facet normal 9.659134e-001 0.000000e+000 -2.588654e-001
      outer loop
         vertex 1.577130e+002 4.848713e-002 2.775699e+002
         vertex 1.577130e+002 3.000485e+002 2.775699e+002
         vertex 1.595446e+002 3.000485e+002 2.851990e+002
      endloop
   endfacet
   facet normal 9.781576e-001 0.000000e+000 -2.078648e-001
      outer loop
         vertex 1.577130e+002 4.848713e-002 2.775699e+002
         vertex 1.595446e+002 3.000485e+002 2.851990e+002
         vertex 1.595446e+002 4.848713e-002 2.851990e+002
      endloop
   endfacet
   facet normal 9.945169e-001 0.000000e+000 -1.045761e-001
      outer loop
         vertex 1.595446e+002 4.848713e-002 2.851990e+002
         vertex 1.595446e+002 3.000485e+002 2.851990e+002
         vertex 1.601602e+002 3.000485e+002 2.930207e+002
      endloop
   endfacet
   facet normal 9.986320e-001 0.000000e+000 -5.228807e-002
      outer loop
         vertex 1.595446e+002 4.848713e-002 2.851990e+002
         vertex 1.601602e+002 3.000485e+002 2.930207e+002
         vertex 1.601602e+002 4.848713e-002 2.930207e+002
      endloop
   endfacet
   facet normal 9.986320e-001 0.000000e+000 5.228807e-002
      outer loop
         vertex 1.601602e+002 4.848713e-002 2.930207e+002
         vertex 1.601602e+002 3.000485e+002 2.930207e+002
         vertex 1.595446e+002 3.000485e+002 3.008425e+002
      endloop
   endfacet
   facet normal 9.945169e-001 0.000000e+000 1.045761e-001
      outer loop
         vertex 1.601602e+002 4.848713e-002 2.930207e+002
         vertex 1.595446e+002 3.000485e+002 3.008425e+002
         vertex 1.595446e+002 4.848713e-002 3.008425e+002
      endloop
   endfacet
   facet normal 9.781576e-001 0.000000e+000 2.078648e-001
      outer loop
         vertex 1.595446e+002 4.848713e-002 3.008425e+002
         vertex 1.595446e+002 3.000485e+002 3.008425e+002
         vertex 1.577130e+002 3.000485e+002 3.084716e+002
      endloop
   endfacet
   facet normal 9.659134e-001 0.000000e+000 2.588654e-001
      outer loop
         vertex 1.595446e+002 4.848713e-002 3.008425e+002
         vertex 1.577130e+002 3.000485e+002 3.084716e+002
         vertex 1.577130e+002 4.848713e-002 3.084716e+002
      endloop
   endfacet
   facet normal 9.335976e-001 0.000000e+000 3.583232e-001
      outer loop
         vertex 1.577130e+002 4.848713e-002 3.084716e+002
         vertex 1.577130e+002 3.000485e+002 3.084716e+002
         vertex 1.547105e+002 3.000485e+002 3.157202e+002
      endloop
   endfacet
   facet normal 9.135259e-001 0.000000e+000 4.067805e-001
      outer loop
         vertex 1.577130e+002 4.848713e-002 3.084716e+002
         vertex 1.547105e+002 3.000485e+002 3.157202e+002
         vertex 1.547105e+002 4.848713e-002 3.157202e+002
      endloop
   endfacet
   facet normal 8.660494e-001 0.000000e+000 4.999584e-001
      outer loop
         vertex 1.547105e+002 4.848713e-002 3.157202e+002
         vertex 1.547105e+002 3.000485e+002 3.157202e+002
         vertex 1.506110e+002 3.000485e+002 3.224100e+002
      endloop
   endfacet
   facet normal 8.386444e-001 0.000000e+000 5.446792e-001
      outer loop
         vertex 1.547105e+002 4.848713e-002 3.157202e+002
         vertex 1.506110e+002 3.000485e+002 3.224100e+002
         vertex 1.506110e+002 4.848713e-002 3.224100e+002
      endloop
   endfacet
   facet normal 7.771761e-001 0.000000e+000 6.292831e-001
      outer loop
         vertex 1.506110e+002 4.848713e-002 3.224100e+002
         vertex 1.506110e+002 3.000485e+002 3.224100e+002
         vertex 1.455155e+002 3.000485e+002 3.283761e+002
      endloop
   endfacet
   facet normal 7.431127e-001 0.000000e+000 6.691663e-001
      outer loop
         vertex 1.506110e+002 4.848713e-002 3.224100e+002
         vertex 1.455155e+002 3.000485e+002 3.283761e+002
         vertex 1.455155e+002 4.848713e-002 3.283761e+002
      endloop
   endfacet
   facet normal 6.691663e-001 0.000000e+000 7.431127e-001
      outer loop
         vertex 1.455155e+002 4.848713e-002 3.283761e+002
         vertex 1.455155e+002 3.000485e+002 3.283761e+002
         vertex 1.395495e+002 3.000485e+002 3.334716e+002
      endloop
   endfacet
   facet normal 6.292831e-001 0.000000e+000 7.771761e-001
      outer loop
         vertex 1.455155e+002 4.848713e-002 3.283761e+002
         vertex 1.395495e+002 3.000485e+002 3.334716e+002
         vertex 1.395495e+002 4.848713e-002 3.334716e+002
      endloop
   endfacet
   facet normal 5.446792e-001 0.000000e+000 8.386444e-001
      outer loop
         vertex 1.395495e+002 4.848713e-002 3.334716e+002
         vertex 1.395495e+002 3.000485e+002 3.334716e+002
         vertex 1.328597e+002 3.000485e+002 3.375710e+002
      endloop
   endfacet
   facet normal 4.999584e-001 0.000000e+000 8.660494e-001
      outer loop
         vertex 1.395495e+002 4.848713e-002 3.334716e+002
         vertex 1.328597e+002 3.000485e+002 3.375710e+002
         vertex 1.328597e+002 4.848713e-002 3.375710e+002
      endloop
   endfacet
   facet normal 4.067805e-001 0.000000e+000 9.135259e-001
      outer loop
         vertex 1.328597e+002 4.848713e-002 3.375710e+002
         vertex 1.328597e+002 3.000485e+002 3.375710e+002
         vertex 1.256110e+002 3.000485e+002 3.405736e+002
      endloop
   endfacet
   facet normal 3.583232e-001 0.000000e+000 9.335976e-001
      outer loop
         vertex 1.328597e+002 4.848713e-002 3.375710e+002
         vertex 1.256110e+002 3.000485e+002 3.405736e+002
         vertex 1.256110e+002 4.848713e-002 3.405736e+002
      endloop
   endfacet
   facet normal 2.588654e-001 0.000000e+000 9.659134e-001
      outer loop
         vertex 1.256110e+002 4.848713e-002 3.405736e+002
         vertex 1.256110e+002 3.000485e+002 3.405736e+002
         vertex 1.179819e+002 3.000485e+002 3.424052e+002
      endloop
   endfacet
   facet normal 2.078648e-001 0.000000e+000 9.781576e-001
      outer loop
         vertex 1.256110e+002 4.848713e-002 3.405736e+002
         vertex 1.179819e+002 3.000485e+002 3.424052e+002
         vertex 1.179819e+002 4.848713e-002 3.424052e+002
      endloop
   endfacet
   facet normal 1.045761e-001 0.000000e+000 9.945169e-001
      outer loop
         vertex 1.179819e+002 4.848713e-002 3.424052e+002
         vertex 1.179819e+002 3.000485e+002 3.424052e+002
         vertex 1.101602e+002 3.000485e+002 3.430208e+002
      endloop
   endfacet
   facet normal 5.228807e-002 0.000000e+000 9.986320e-001
      outer loop
         vertex 1.179819e+002 4.848713e-002 3.424052e+002
         vertex 1.101602e+002 3.000485e+002 3.430208e+002
         vertex 1.101602e+002 4.848713e-002 3.430208e+002
      endloop
   endfacet
   facet normal -5.228807e-002 0.000000e+000 9.986320e-001
      outer loop
         vertex 1.101602e+002 4.848713e-002 3.430208e+002
         vertex 1.101602e+002 3.000485e+002 3.430208e+002
         vertex 1.023385e+002 3.000485e+002 3.424052e+002
      endloop
   endfacet
   facet normal -1.045761e-001 0.000000e+000 9.945169e-001
      outer loop
         vertex 1.101602e+002 4.848713e-002 3.430208e+002
         vertex 1.023385e+002 3.000485e+002 3.424052e+002
         vertex 1.023385e+002 4.848713e-002 3.424052e+002
      endloop
   endfacet
   facet normal -2.078648e-001 0.000000e+000 9.781576e-001
      outer loop
         vertex 1.023385e+002 4.848713e-002 3.424052e+002
         vertex 1.023385e+002 3.000485e+002 3.424052e+002
         vertex 9.470934e+001 3.000485e+002 3.405736e+002
      endloop
   endfacet
   facet normal -2.588654e-001 0.000000e+000 9.659134e-001
      outer loop
         vertex 1.023385e+002 4.848713e-002 3.424052e+002
         vertex 9.470934e+001 3.000485e+002 3.405736e+002
         vertex 9.470934e+001 4.848713e-002 3.405736e+002
      endloop
   endfacet
   facet normal -3.583232e-001 0.000000e+000 9.335976e-001
      outer loop
         vertex 9.470934e+001 4.848713e-002 3.405736e+002
         vertex 9.470934e+001 3.000485e+002 3.405736e+002
         vertex 8.746067e+001 3.000485e+002 3.375710e+002
      endloop
   endfacet
   facet normal -4.067805e-001 0.000000e+000 9.135259e-001
      outer loop
         vertex 9.470934e+001 4.848713e-002 3.405736e+002
         vertex 8.746067e+001 3.000485e+002 3.375710e+002
         vertex 8.746067e+001 4.848713e-002 3.375710e+002
      endloop
   endfacet
   facet normal -4.999584e-001 0.000000e+000 8.660494e-001
      outer loop
         vertex 8.746067e+001 4.848713e-002 3.375710e+002
         vertex 8.746067e+001 3.000485e+002 3.375710e+002
         vertex 8.077094e+001 3.000485e+002 3.334716e+002
      endloop
   endfacet
   facet normal -5.446792e-001 0.000000e+000 8.386444e-001
      outer loop
         vertex 8.746067e+001 4.848713e-002 3.375710e+002
         vertex 8.077094e+001 3.000485e+002 3.334716e+002
         vertex 8.077094e+001 4.848713e-002 3.334716e+002
      endloop
   endfacet
   facet normal -6.292831e-001 0.000000e+000 7.771761e-001
      outer loop
         vertex 8.077094e+001 4.848713e-002 3.334716e+002
         vertex 8.077094e+001 3.000485e+002 3.334716e+002
         vertex 7.480485e+001 3.000485e+002 3.283761e+002
      endloop
   endfacet
   facet normal -6.691663e-001 0.000000e+000 7.431127e-001
      outer loop
         vertex 8.077094e+001 4.848713e-002 3.334716e+002
         vertex 7.480485e+001 3.000485e+002 3.283761e+002
         vertex 7.480485e+001 4.848713e-002 3.283761e+002
      endloop
   endfacet
   facet normal -7.431127e-001 0.000000e+000 6.691663e-001
      outer loop
         vertex 7.480485e+001 4.848713e-002 3.283761e+002
         vertex 7.480485e+001 3.000485e+002 3.283761e+002
         vertex 6.970934e+001 3.000485e+002 3.224100e+002
      endloop
   endfacet
   facet normal -7.771761e-001 0.000000e+000 6.292831e-001
      outer loop
         vertex 7.480485e+001 4.848713e-002 3.283761e+002
         vertex 6.970934e+001 3.000485e+002 3.224100e+002
         vertex 6.970934e+001 4.848713e-002 3.224100e+002
      endloop
   endfacet
   facet normal -8.386444e-001 0.000000e+000 5.446792e-001
      outer loop
         vertex 6.970934e+001 4.848713e-002 3.224100e+002
         vertex 6.970934e+001 3.000485e+002 3.224100e+002
         vertex 6.560986e+001 3.000485e+002 3.157202e+002
      endloop
   endfacet
   facet normal -8.660494e-001 0.000000e+000 4.999584e-001
      outer loop
         vertex 6.970934e+001 4.848713e-002 3.224100e+002
         vertex 6.560986e+001 3.000485e+002 3.157202e+002
         vertex 6.560986e+001 4.848713e-002 3.157202e+002
      endloop
   endfacet
   facet normal -9.135259e-001 0.000000e+000 4.067805e-001
      outer loop
         vertex 6.560986e+001 4.848713e-002 3.157202e+002
         vertex 6.560986e+001 3.000485e+002 3.157202e+002
         vertex 6.260736e+001 3.000485e+002 3.084716e+002
      endloop
   endfacet
   facet normal -9.335976e-001 0.000000e+000 3.583232e-001
      outer loop
         vertex 6.560986e+001 4.848713e-002 3.157202e+002
         vertex 6.260736e+001 3.000485e+002 3.084716e+002
         vertex 6.260736e+001 4.848713e-002 3.084716e+002
      endloop
   endfacet
   facet normal -9.659134e-001 0.000000e+000 2.588654e-001
      outer loop
         vertex 6.260736e+001 4.848713e-002 3.084716e+002
         vertex 6.260736e+001 3.000485e+002 3.084716e+002
         vertex 6.077578e+001 3.000485e+002 3.008425e+002
      endloop
   endfacet
   facet normal -9.781576e-001 0.000000e+000 2.078648e-001
      outer loop
         vertex 6.260736e+001 4.848713e-002 3.084716e+002
         vertex 6.077578e+001 3.000485e+002 3.008425e+002
         vertex 6.077578e+001 4.848713e-002 3.008425e+002
      endloop
   endfacet
   facet normal -9.945169e-001 0.000000e+000 1.045761e-001
      outer loop
         vertex 6.077578e+001 4.848713e-002 3.008425e+002
         vertex 6.077578e+001 3.000485e+002 3.008425e+002
         vertex 6.016019e+001 3.000485e+002 2.930207e+002
      endloop
   endfacet
   facet normal -9.986320e-001 0.000000e+000 5.228807e-002
      outer loop
         vertex 6.077578e+001 4.848713e-002 3.008425e+002
         vertex 6.016019e+001 3.000485e+002 2.930207e+002
         vertex 6.016019e+001 4.848713e-002 2.930207e+002
      endloop
   endfacet
   facet normal -9.986320e-001 0.000000e+000 -5.228807e-002
      outer loop
         vertex 6.016019e+001 4.848713e-002 2.930207e+002
         vertex 6.016019e+001 3.000485e+002 2.930207e+002
         vertex 6.077578e+001 3.000485e+002 2.851990e+002
      endloop
   endfacet
   facet normal -9.945169e-001 0.000000e+000 -1.045761e-001
      outer loop
         vertex 6.016019e+001 4.848713e-002 2.930207e+002
         vertex 6.077578e+001 3.000485e+002 2.851990e+002
         vertex 6.077578e+001 4.848713e-002 2.851990e+002
      endloop
   endfacet
   facet normal -9.781576e-001 0.000000e+000 -2.078648e-001
      outer loop
         vertex 6.077578e+001 4.848713e-002 2.851990e+002
         vertex 6.077578e+001 3.000485e+002 2.851990e+002
         vertex 6.260736e+001 3.000485e+002 2.775699e+002
      endloop
   endfacet
   facet normal -9.659134e-001 0.000000e+000 -2.588654e-001
      outer loop
         vertex 6.077578e+001 4.848713e-002 2.851990e+002
         vertex 6.260736e+001 3.000485e+002 2.775699e+002
         vertex 6.260736e+001 4.848713e-002 2.775699e+002
      endloop
   endfacet
   facet normal -9.335976e-001 0.000000e+000 -3.583232e-001
      outer loop
         vertex 6.260736e+001 4.848713e-002 2.775699e+002
         vertex 6.260736e+001 3.000485e+002 2.775699e+002
         vertex 6.560986e+001 3.000485e+002 2.703212e+002
      endloop
   endfacet
   facet normal -9.135259e-001 0.000000e+000 -4.067805e-001
      outer loop
         vertex 6.260736e+001 4.848713e-002 2.775699e+002
         vertex 6.560986e+001 3.000485e+002 2.703212e+002
         vertex 6.560986e+001 4.848713e-002 2.703212e+002
      endloop
   endfacet
   facet normal -8.660494e-001 0.000000e+000 -4.999584e-001
      outer loop
         vertex 6.560986e+001 4.848713e-002 2.703212e+002
         vertex 6.560986e+001 3.000485e+002 2.703212e+002
         vertex 6.970934e+001 3.000485e+002 2.636315e+002
      endloop
   endfacet
   facet normal -8.386444e-001 0.000000e+000 -5.446792e-001
      outer loop
         vertex 6.560986e+001 4.848713e-002 2.703212e+002
         vertex 6.970934e+001 3.000485e+002 2.636315e+002
         vertex 6.970934e+001 4.848713e-002 2.636315e+002
      endloop
   endfacet
   facet normal -7.771761e-001 0.000000e+000 -6.292831e-001
      outer loop
         vertex 6.970934e+001 4.848713e-002 2.636315e+002
         vertex 6.970934e+001 3.000485e+002 2.636315e+002
         vertex 7.480485e+001 3.000485e+002 2.576654e+002
      endloop
   endfacet
   facet normal -7.431127e-001 0.000000e+000 -6.691663e-001
      outer loop
         vertex 6.970934e+001 4.848713e-002 2.636315e+002
         vertex 7.480485e+001 3.000485e+002 2.576654e+002
         vertex 7.480485e+001 4.848713e-002 2.576654e+002
      endloop
   endfacet
   facet normal -6.691663e-001 0.000000e+000 -7.431127e-001
      outer loop
         vertex 7.480485e+001 4.848713e-002 2.576654e+002
         vertex 7.480485e+001 3.000485e+002 2.576654e+002
         vertex 8.077094e+001 3.000485e+002 2.525699e+002
      endloop
   endfacet
   facet normal -6.292831e-001 0.000000e+000 -7.771761e-001
      outer loop
         vertex 7.480485e+001 4.848713e-002 2.576654e+002
         vertex 8.077094e+001 3.000485e+002 2.525699e+002
         vertex 8.077094e+001 4.848713e-002 2.525699e+002
      endloop
   endfacet
   facet normal -5.446792e-001 0.000000e+000 -8.386444e-001
      outer loop
         vertex 8.077094e+001 4.848713e-002 2.525699e+002
         vertex 8.077094e+001 3.000485e+002 2.525699e+002
         vertex 8.746067e+001 3.000485e+002 2.484704e+002
      endloop
   endfacet
   facet normal -4.999584e-001 0.000000e+000 -8.660494e-001
      outer loop
         vertex 8.077094e+001 4.848713e-002 2.525699e+002
         vertex 8.746067e+001 3.000485e+002 2.484704e+002
         vertex 8.746067e+001 4.848713e-002 2.484704e+002
      endloop
   endfacet
   facet normal -4.067805e-001 0.000000e+000 -9.135259e-001
      outer loop
         vertex 8.746067e+001 4.848713e-002 2.484704e+002
         vertex 8.746067e+001 3.000485e+002 2.484704e+002
         vertex 9.470934e+001 3.000485e+002 2.454679e+002
      endloop
   endfacet
   facet normal -3.583232e-001 0.000000e+000 -9.335976e-001
      outer loop
         vertex 8.746067e+001 4.848713e-002 2.484704e+002
         vertex 9.470934e+001 3.000485e+002 2.454679e+002
         vertex 9.470934e+001 4.848713e-002 2.454679e+002
      endloop
   endfacet
   facet normal -2.588654e-001 0.000000e+000 -9.659134e-001
      outer loop
         vertex 9.470934e+001 4.848713e-002 2.454679e+002
         vertex 9.470934e+001 3.000485e+002 2.454679e+002
         vertex 1.023385e+002 3.000485e+002 2.436363e+002
      endloop
   endfacet
   facet normal -2.078648e-001 0.000000e+000 -9.781576e-001
      outer loop
         vertex 9.470934e+001 4.848713e-002 2.454679e+002
         vertex 1.023385e+002 3.000485e+002 2.436363e+002
         vertex 1.023385e+002 4.848713e-002 2.436363e+002
      endloop
   endfacet
   facet normal -1.045761e-001 0.000000e+000 -9.945169e-001
      outer loop
         vertex 1.023385e+002 4.848713e-002 2.436363e+002
         vertex 1.023385e+002 3.000485e+002 2.436363e+002
         vertex 1.101602e+002 3.000485e+002 2.430207e+002
      endloop
   endfacet
   facet normal -5.228807e-002 0.000000e+000 -9.986320e-001
      outer loop
         vertex 1.023385e+002 4.848713e-002 2.436363e+002
         vertex 1.101602e+002 3.000485e+002 2.430207e+002
         vertex 1.101602e+002 4.848713e-002 2.430207e+002
      endloop
   endfacet
   facet normal 5.228807e-002 0.000000e+000 -9.986320e-001
      outer loop
         vertex 1.101602e+002 4.848713e-002 2.430207e+002
         vertex 1.101602e+002 3.000485e+002 2.430207e+002
         vertex 1.179819e+002 3.000485e+002 2.436363e+002
      endloop
   endfacet
   facet normal 0.000000e+000 1.000000e+000 0.000000e+000
      outer loop
         vertex 1.101602e+002 3.000485e+002 3.430208e+002
         vertex 1.179819e+002 3.000485e+002 3.424052e+002
         vertex 1.101602e+002 3.000485e+002 2.930207e+002
      endloop
   endfacet
   facet normal 0.000000e+000 1.000000e+000 0.000000e+000
      outer loop
         vertex 8.746067e+001 3.000485e+002 3.375710e+002
         vertex 9.470934e+001 3.000485e+002 3.405736e+002
         vertex 1.101602e+002 3.000485e+002 2.930207e+002
      endloop
   endfacet
   facet normal 0.000000e+000 1.000000e+000 0.000000e+000
      outer loop
         vertex 1.101602e+002 3.000485e+002 2.930207e+002
         vertex 9.470934e+001 3.000485e+002 3.405736e+002
         vertex 1.023385e+002 3.000485e+002 3.424052e+002
      endloop
   endfacet
   facet normal 0.000000e+000 1.000000e+000 0.000000e+000
      outer loop
         vertex 1.101602e+002 3.000485e+002 2.930207e+002
         vertex 1.023385e+002 3.000485e+002 3.424052e+002
         vertex 1.101602e+002 3.000485e+002 3.430208e+002
      endloop
   endfacet
   facet normal 0.000000e+000 1.000000e+000 0.000000e+000
      outer loop
         vertex 6.970934e+001 3.000485e+002 3.224100e+002
         vertex 7.480485e+001 3.000485e+002 3.283761e+002
         vertex 1.101602e+002 3.000485e+002 2.930207e+002
      endloop
   endfacet
   facet normal 0.000000e+000 1.000000e+000 0.000000e+000
      outer loop
         vertex 1.101602e+002 3.000485e+002 2.930207e+002
         vertex 7.480485e+001 3.000485e+002 3.283761e+002
         vertex 8.077094e+001 3.000485e+002 3.334716e+002
      endloop
   endfacet
   facet normal 0.000000e+000 1.000000e+000 0.000000e+000
      outer loop
         vertex 1.101602e+002 3.000485e+002 2.930207e+002
         vertex 8.077094e+001 3.000485e+002 3.334716e+002
         vertex 8.746067e+001 3.000485e+002 3.375710e+002
      endloop
   endfacet
   facet normal 0.000000e+000 1.000000e+000 0.000000e+000
      outer loop
         vertex 6.077578e+001 3.000485e+002 3.008425e+002
         vertex 6.260736e+001 3.000485e+002 3.084716e+002
         vertex 1.101602e+002 3.000485e+002 2.930207e+002
      endloop
   endfacet
   facet normal 0.000000e+000 1.000000e+000 0.000000e+000
      outer loop
         vertex 1.101602e+002 3.000485e+002 2.930207e+002
         vertex 6.260736e+001 3.000485e+002 3.084716e+002
         vertex 6.560986e+001 3.000485e+002 3.157202e+002
      endloop
   endfacet
   facet normal 0.000000e+000 1.000000e+000 0.000000e+000
      outer loop
         vertex 1.101602e+002 3.000485e+002 2.930207e+002
         vertex 6.560986e+001 3.000485e+002 3.157202e+002
         vertex 6.970934e+001 3.000485e+002 3.224100e+002
      endloop
   endfacet
   facet normal 0.000000e+000 1.000000e+000 0.000000e+000
      outer loop
         vertex 6.260736e+001 3.000485e+002 2.775699e+002
         vertex 6.077578e+001 3.000485e+002 2.851990e+002
         vertex 1.101602e+002 3.000485e+002 2.930207e+002
      endloop
   endfacet
   facet normal 0.000000e+000 1.000000e+000 0.000000e+000
      outer loop
         vertex 1.101602e+002 3.000485e+002 2.930207e+002
         vertex 6.077578e+001 3.000485e+002 2.851990e+002
         vertex 6.016019e+001 3.000485e+002 2.930207e+002
      endloop
   endfacet
   facet normal 0.000000e+000 1.000000e+000 0.000000e+000
      outer loop
         vertex 1.101602e+002 3.000485e+002 2.930207e+002
         vertex 6.016019e+001 3.000485e+002 2.930207e+002
         vertex 6.077578e+001 3.000485e+002 3.008425e+002
      endloop
   endfacet
   facet normal 0.000000e+000 1.000000e+000 0.000000e+000
      outer loop
         vertex 7.480485e+001 3.000485e+002 2.576654e+002
         vertex 6.970934e+001 3.000485e+002 2.636315e+002
         vertex 1.101602e+002 3.000485e+002 2.930207e+002
      endloop
   endfacet
   facet normal 0.000000e+000 1.000000e+000 0.000000e+000
      outer loop
         vertex 1.101602e+002 3.000485e+002 2.930207e+002
         vertex 6.970934e+001 3.000485e+002 2.636315e+002
         vertex 6.560986e+001 3.000485e+002 2.703212e+002
      endloop
   endfacet
   facet normal 0.000000e+000 1.000000e+000 0.000000e+000
      outer loop
         vertex 1.101602e+002 3.000485e+002 2.930207e+002
         vertex 6.560986e+001 3.000485e+002 2.703212e+002
         vertex 6.260736e+001 3.000485e+002 2.775699e+002
      endloop
   endfacet
   facet normal 0.000000e+000 1.000000e+000 0.000000e+000
      outer loop
         vertex 9.470934e+001 3.000485e+002 2.454679e+002
         vertex 8.746067e+001 3.000485e+002 2.484704e+002
         vertex 1.101602e+002 3.000485e+002 2.930207e+002
      endloop
   endfacet
   facet normal 0.000000e+000 1.000000e+000 0.000000e+000
      outer loop
         vertex 1.101602e+002 3.000485e+002 2.930207e+002
         vertex 8.746067e+001 3.000485e+002 2.484704e+002
         vertex 8.077094e+001 3.000485e+002 2.525699e+002
      endloop
   endfacet
   facet normal 0.000000e+000 1.000000e+000 0.000000e+000
      outer loop
         vertex 1.101602e+002 3.000485e+002 2.930207e+002
         vertex 8.077094e+001 3.000485e+002 2.525699e+002
         vertex 7.480485e+001 3.000485e+002 2.576654e+002
      endloop
   endfacet
   facet normal 0.000000e+000 1.000000e+000 0.000000e+000
      outer loop
         vertex 1.179819e+002 3.000485e+002 2.436363e+002
         vertex 1.101602e+002 3.000485e+002 2.430207e+002
         vertex 1.101602e+002 3.000485e+002 2.930207e+002
      endloop
   endfacet
   facet normal 0.000000e+000 1.000000e+000 0.000000e+000
      outer loop
         vertex 1.101602e+002 3.000485e+002 2.930207e+002
         vertex 1.101602e+002 3.000485e+002 2.430207e+002
         vertex 1.023385e+002 3.000485e+002 2.436363e+002
      endloop
   endfacet
   facet normal 0.000000e+000 1.000000e+000 0.000000e+000
      outer loop
         vertex 1.101602e+002 3.000485e+002 2.930207e+002
         vertex 1.023385e+002 3.000485e+002 2.436363e+002
         vertex 9.470934e+001 3.000485e+002 2.454679e+002
      endloop
   endfacet
   facet normal 0.000000e+000 1.000000e+000 0.000000e+000
      outer loop
         vertex 1.395495e+002 3.000485e+002 2.525699e+002
         vertex 1.328597e+002 3.000485e+002 2.484704e+002
         vertex 1.101602e+002 3.000485e+002 2.930207e+002
      endloop
   endfacet
   facet normal 0.000000e+000 1.000000e+000 0.000000e+000
      outer loop
         vertex 1.101602e+002 3.000485e+002 2.930207e+002
         vertex 1.328597e+002 3.000485e+002 2.484704e+002
         vertex 1.256110e+002 3.000485e+002 2.454679e+002
      endloop
   endfacet
   facet normal 0.000000e+000 1.000000e+000 0.000000e+000
      outer loop
         vertex 1.101602e+002 3.000485e+002 2.930207e+002
         vertex 1.256110e+002 3.000485e+002 2.454679e+002
         vertex 1.179819e+002 3.000485e+002 2.436363e+002
      endloop
   endfacet
   facet normal 0.000000e+000 1.000000e+000 0.000000e+000
      outer loop
         vertex 1.547105e+002 3.000485e+002 2.703212e+002
         vertex 1.506110e+002 3.000485e+002 2.636315e+002
         vertex 1.101602e+002 3.000485e+002 2.930207e+002
      endloop
   endfacet
   facet normal 0.000000e+000 1.000000e+000 0.000000e+000
      outer loop
         vertex 1.101602e+002 3.000485e+002 2.930207e+002
         vertex 1.506110e+002 3.000485e+002 2.636315e+002
         vertex 1.455155e+002 3.000485e+002 2.576654e+002
      endloop
   endfacet
   facet normal 0.000000e+000 1.000000e+000 0.000000e+000
      outer loop
         vertex 1.101602e+002 3.000485e+002 2.930207e+002
         vertex 1.455155e+002 3.000485e+002 2.576654e+002
         vertex 1.395495e+002 3.000485e+002 2.525699e+002
      endloop
   endfacet
   facet normal 0.000000e+000 1.000000e+000 0.000000e+000
      outer loop
         vertex 1.601602e+002 3.000485e+002 2.930207e+002
         vertex 1.595446e+002 3.000485e+002 2.851990e+002
         vertex 1.101602e+002 3.000485e+002 2.930207e+002
      endloop
   endfacet
   facet normal 0.000000e+000 1.000000e+000 0.000000e+000
      outer loop
         vertex 1.101602e+002 3.000485e+002 2.930207e+002
         vertex 1.595446e+002 3.000485e+002 2.851990e+002
         vertex 1.577130e+002 3.000485e+002 2.775699e+002
      endloop
   endfacet
   facet normal 0.000000e+000 1.000000e+000 0.000000e+000
      outer loop
         vertex 1.101602e+002 3.000485e+002 2.930207e+002
         vertex 1.577130e+002 3.000485e+002 2.775699e+002
         vertex 1.547105e+002 3.000485e+002 2.703212e+002
      endloop
   endfacet
   facet normal 0.000000e+000 1.000000e+000 0.000000e+000
      outer loop
         vertex 1.547105e+002 3.000485e+002 3.157202e+002
         vertex 1.577130e+002 3.000485e+002 3.084716e+002
         vertex 1.101602e+002 3.000485e+002 2.930207e+002
      endloop
   endfacet
   facet normal 0.000000e+000 1.000000e+000 0.000000e+000
      outer loop
         vertex 1.101602e+002 3.000485e+002 2.930207e+002
         vertex 1.577130e+002 3.000485e+002 3.084716e+002
         vertex 1.595446e+002 3.000485e+002 3.008425e+002
      endloop
   endfacet
   facet normal 0.000000e+000 1.000000e+000 0.000000e+000
      outer loop
         vertex 1.101602e+002 3.000485e+002 2.930207e+002
         vertex 1.595446e+002 3.000485e+002 3.008425e+002
         vertex 1.601602e+002 3.000485e+002 2.930207e+002
      endloop
   endfacet
   facet normal 0.000000e+000 1.000000e+000 0.000000e+000
      outer loop
         vertex 1.395495e+002 3.000485e+002 3.334716e+002
         vertex 1.455155e+002 3.000485e+002 3.283761e+002
         vertex 1.101602e+002 3.000485e+002 2.930207e+002
      endloop
   endfacet
   facet normal 0.000000e+000 1.000000e+000 0.000000e+000
      outer loop
         vertex 1.101602e+002 3.000485e+002 2.930207e+002
         vertex 1.455155e+002 3.000485e+002 3.283761e+002
         vertex 1.506110e+002 3.000485e+002 3.224100e+002
      endloop
   endfacet
   facet normal 0.000000e+000 1.000000e+000 0.000000e+000
      outer loop
         vertex 1.101602e+002 3.000485e+002 2.930207e+002
         vertex 1.506110e+002 3.000485e+002 3.224100e+002
         vertex 1.547105e+002 3.000485e+002 3.157202e+002
      endloop
   endfacet
   facet normal 0.000000e+000 1.000000e+000 0.000000e+000
      outer loop
         vertex 1.179819e+002 3.000485e+002 3.424052e+002
         vertex 1.256110e+002 3.000485e+002 3.405736e+002
         vertex 1.101602e+002 3.000485e+002 2.930207e+002
      endloop
   endfacet
   facet normal 0.000000e+000 1.000000e+000 0.000000e+000
      outer loop
         vertex 1.101602e+002 3.000485e+002 2.930207e+002
         vertex 1.256110e+002 3.000485e+002 3.405736e+002
         vertex 1.328597e+002 3.000485e+002 3.375710e+002
      endloop
   endfacet
   facet normal 0.000000e+000 1.000000e+000 0.000000e+000
      outer loop
         vertex 1.101602e+002 3.000485e+002 2.930207e+002
         vertex 1.328597e+002 3.000485e+002 3.375710e+002
         vertex 1.395495e+002 3.000485e+002 3.334716e+002
      endloop
   endfacet
   facet normal 0.000000e+000 -1.000000e+000 0.000000e+000
      outer loop
         vertex 1.101602e+002 4.848713e-002 3.430208e+002
         vertex 1.023385e+002 4.848713e-002 3.424052e+002
         vertex 1.101602e+002 4.848713e-002 2.930207e+002
      endloop
   endfacet
   facet normal 0.000000e+000 -1.000000e+000 0.000000e+000
      outer loop
         vertex 1.328597e+002 4.848713e-002 3.375710e+002
         vertex 1.256110e+002 4.848713e-002 3.405736e+002
         vertex 1.101602e+002 4.848713e-002 2.930207e+002
      endloop
   endfacet
   facet normal 0.000000e+000 -1.000000e+000 0.000000e+000
      outer loop
         vertex 1.101602e+002 4.848713e-002 2.930207e+002
         vertex 1.256110e+002 4.848713e-002 3.405736e+002
         vertex 1.179819e+002 4.848713e-002 3.424052e+002
      endloop
   endfacet
   facet normal 0.000000e+000 -1.000000e+000 0.000000e+000
      outer loop
         vertex 1.101602e+002 4.848713e-002 2.930207e+002
         vertex 1.179819e+002 4.848713e-002 3.424052e+002
         vertex 1.101602e+002 4.848713e-002 3.430208e+002
      endloop
   endfacet
   facet normal 0.000000e+000 -1.000000e+000 0.000000e+000
      outer loop
         vertex 1.506110e+002 4.848713e-002 3.224100e+002
         vertex 1.455155e+002 4.848713e-002 3.283761e+002
         vertex 1.101602e+002 4.848713e-002 2.930207e+002
      endloop
   endfacet
   facet normal 0.000000e+000 -1.000000e+000 0.000000e+000
      outer loop
         vertex 1.101602e+002 4.848713e-002 2.930207e+002
         vertex 1.455155e+002 4.848713e-002 3.283761e+002
         vertex 1.395495e+002 4.848713e-002 3.334716e+002
      endloop
   endfacet
   facet normal 0.000000e+000 -1.000000e+000 0.000000e+000
      outer loop
         vertex 1.101602e+002 4.848713e-002 2.930207e+002
         vertex 1.395495e+002 4.848713e-002 3.334716e+002
         vertex 1.328597e+002 4.848713e-002 3.375710e+002
      endloop
   endfacet
   facet normal 0.000000e+000 -1.000000e+000 0.000000e+000
      outer loop
         vertex 1.595446e+002 4.848713e-002 3.008425e+002
         vertex 1.577130e+002 4.848713e-002 3.084716e+002
         vertex 1.101602e+002 4.848713e-002 2.930207e+002
      endloop
   endfacet
   facet normal 0.000000e+000 -1.000000e+000 0.000000e+000
      outer loop
         vertex 1.101602e+002 4.848713e-002 2.930207e+002
         vertex 1.577130e+002 4.848713e-002 3.084716e+002
         vertex 1.547105e+002 4.848713e-002 3.157202e+002
      endloop
   endfacet
   facet normal 0.000000e+000 -1.000000e+000 0.000000e+000
      outer loop
         vertex 1.101602e+002 4.848713e-002 2.930207e+002
         vertex 1.547105e+002 4.848713e-002 3.157202e+002
         vertex 1.506110e+002 4.848713e-002 3.224100e+002
      endloop
   endfacet
   facet normal 0.000000e+000 -1.000000e+000 0.000000e+000
      outer loop
         vertex 1.577130e+002 4.848713e-002 2.775699e+002
         vertex 1.595446e+002 4.848713e-002 2.851990e+002
         vertex 1.101602e+002 4.848713e-002 2.930207e+002
      endloop
   endfacet
   facet normal 0.000000e+000 -1.000000e+000 0.000000e+000
      outer loop
         vertex 1.101602e+002 4.848713e-002 2.930207e+002
         vertex 1.595446e+002 4.848713e-002 2.851990e+002
         vertex 1.601602e+002 4.848713e-002 2.930207e+002
      endloop
   endfacet
   facet normal 0.000000e+000 -1.000000e+000 0.000000e+000
      outer loop
         vertex 1.101602e+002 4.848713e-002 2.930207e+002
         vertex 1.601602e+002 4.848713e-002 2.930207e+002
         vertex 1.595446e+002 4.848713e-002 3.008425e+002
      endloop
   endfacet
   facet normal 0.000000e+000 -1.000000e+000 0.000000e+000
      outer loop
         vertex 1.455155e+002 4.848713e-002 2.576654e+002
         vertex 1.506110e+002 4.848713e-002 2.636315e+002
         vertex 1.101602e+002 4.848713e-002 2.930207e+002
      endloop
   endfacet
   facet normal 0.000000e+000 -1.000000e+000 0.000000e+000
      outer loop
         vertex 1.101602e+002 4.848713e-002 2.930207e+002
         vertex 1.506110e+002 4.848713e-002 2.636315e+002
         vertex 1.547105e+002 4.848713e-002 2.703212e+002
      endloop
   endfacet
   facet normal 0.000000e+000 -1.000000e+000 0.000000e+000
      outer loop
         vertex 1.101602e+002 4.848713e-002 2.930207e+002
         vertex 1.547105e+002 4.848713e-002 2.703212e+002
         vertex 1.577130e+002 4.848713e-002 2.775699e+002
      endloop
   endfacet
   facet normal 0.000000e+000 -1.000000e+000 0.000000e+000
      outer loop
         vertex 1.256110e+002 4.848713e-002 2.454679e+002
         vertex 1.328597e+002 4.848713e-002 2.484704e+002
         vertex 1.101602e+002 4.848713e-002 2.930207e+002
      endloop
   endfacet
   facet normal 0.000000e+000 -1.000000e+000 0.000000e+000
      outer loop
         vertex 1.101602e+002 4.848713e-002 2.930207e+002
         vertex 1.328597e+002 4.848713e-002 2.484704e+002
         vertex 1.395495e+002 4.848713e-002 2.525699e+002
      endloop
   endfacet
   facet normal 0.000000e+000 -1.000000e+000 0.000000e+000
      outer loop
         vertex 1.101602e+002 4.848713e-002 2.930207e+002
         vertex 1.395495e+002 4.848713e-002 2.525699e+002
         vertex 1.455155e+002 4.848713e-002 2.576654e+002
      endloop
   endfacet
   facet normal 0.000000e+000 -1.000000e+000 0.000000e+000
      outer loop
         vertex 1.023385e+002 4.848713e-002 2.436363e+002
         vertex 1.101602e+002 4.848713e-002 2.430207e+002
         vertex 1.101602e+002 4.848713e-002 2.930207e+002
      endloop
   endfacet
   facet normal 0.000000e+000 -1.000000e+000 0.000000e+000
      outer loop
         vertex 1.101602e+002 4.848713e-002 2.930207e+002
         vertex 1.101602e+002 4.848713e-002 2.430207e+002
         vertex 1.179819e+002 4.848713e-002 2.436363e+002
      endloop
   endfacet
   facet normal 0.000000e+000 -1.000000e+000 0.000000e+000
      outer loop
         vertex 1.101602e+002 4.848713e-002 2.930207e+002
         vertex 1.179819e+002 4.848713e-002 2.436363e+002
         vertex 1.256110e+002 4.848713e-002 2.454679e+002
      endloop
   endfacet
   facet normal 0.000000e+000 -1.000000e+000 0.000000e+000
      outer loop
         vertex 8.077094e+001 4.848713e-002 2.525699e+002
         vertex 8.746067e+001 4.848713e-002 2.484704e+002
         vertex 1.101602e+002 4.848713e-002 2.930207e+002
      endloop
   endfacet
   facet normal 0.000000e+000 -1.000000e+000 0.000000e+000
      outer loop
         vertex 1.101602e+002 4.848713e-002 2.930207e+002
         vertex 8.746067e+001 4.848713e-002 2.484704e+002
         vertex 9.470934e+001 4.848713e-002 2.454679e+002
      endloop
   endfacet
   facet normal 0.000000e+000 -1.000000e+000 0.000000e+000
      outer loop
         vertex 1.101602e+002 4.848713e-002 2.930207e+002
         vertex 9.470934e+001 4.848713e-002 2.454679e+002
         vertex 1.023385e+002 4.848713e-002 2.436363e+002
      endloop
   endfacet
   facet normal 0.000000e+000 -1.000000e+000 0.000000e+000
      outer loop
         vertex 6.560986e+001 4.848713e-002 2.703212e+002
         vertex 6.970934e+001 4.848713e-002 2.636315e+002
         vertex 1.101602e+002 4.848713e-002 2.930207e+002
      endloop
   endfacet
   facet normal 0.000000e+000 -1.000000e+000 0.000000e+000
      outer loop
         vertex 1.101602e+002 4.848713e-002 2.930207e+002
         vertex 6.970934e+001 4.848713e-002 2.636315e+002
         vertex 7.480485e+001 4.848713e-002 2.576654e+002
      endloop
   endfacet
   facet normal 0.000000e+000 -1.000000e+000 0.000000e+000
      outer loop
         vertex 1.101602e+002 4.848713e-002 2.930207e+002
         vertex 7.480485e+001 4.848713e-002 2.576654e+002
         vertex 8.077094e+001 4.848713e-002 2.525699e+002
      endloop
   endfacet
   facet normal 0.000000e+000 -1.000000e+000 0.000000e+000
      outer loop
         vertex 6.016019e+001 4.848713e-002 2.930207e+002
         vertex 6.077578e+001 4.848713e-002 2.851990e+002
         vertex 1.101602e+002 4.848713e-002 2.930207e+002
      endloop
   endfacet
   facet normal 0.000000e+000 -1.000000e+000 0.000000e+000
      outer loop
         vertex 1.101602e+002 4.848713e-002 2.930207e+002
         vertex 6.077578e+001 4.848713e-002 2.851990e+002
         vertex 6.260736e+001 4.848713e-002 2.775699e+002
      endloop
   endfacet
   facet normal 0.000000e+000 -1.000000e+000 0.000000e+000
      outer loop
         vertex 1.101602e+002 4.848713e-002 2.930207e+002
         vertex 6.260736e+001 4.848713e-002 2.775699e+002
         vertex 6.560986e+001 4.848713e-002 2.703212e+002
      endloop
   endfacet
   facet normal 0.000000e+000 -1.000000e+000 0.000000e+000
      outer loop
         vertex 6.560986e+001 4.848713e-002 3.157202e+002
         vertex 6.260736e+001 4.848713e-002 3.084716e+002
         vertex 1.101602e+002 4.848713e-002 2.930207e+002
      endloop
   endfacet
   facet normal 0.000000e+000 -1.000000e+000 0.000000e+000
      outer loop
         vertex 1.101602e+002 4.848713e-002 2.930207e+002
         vertex 6.260736e+001 4.848713e-002 3.084716e+002
         vertex 6.077578e+001 4.848713e-002 3.008425e+002
      endloop
   endfacet
   facet normal 0.000000e+000 -1.000000e+000 0.000000e+000
      outer loop
         vertex 1.101602e+002 4.848713e-002 2.930207e+002
         vertex 6.077578e+001 4.848713e-002 3.008425e+002
         vertex 6.016019e+001 4.848713e-002 2.930207e+002
      endloop
   endfacet
   facet normal 0.000000e+000 -1.000000e+000 0.000000e+000
      outer loop
         vertex 8.077094e+001 4.848713e-002 3.334716e+002
         vertex 7.480485e+001 4.848713e-002 3.283761e+002
         vertex 1.101602e+002 4.848713e-002 2.930207e+002
      endloop
   endfacet
   facet normal 0.000000e+000 -1.000000e+000 0.000000e+000
      outer loop
         vertex 1.101602e+002 4.848713e-002 2.930207e+002
         vertex 7.480485e+001 4.848713e-002 3.283761e+002
         vertex 6.970934e+001 4.848713e-002 3.224100e+002
      endloop
   endfacet
   facet normal 0.000000e+000 -1.000000e+000 0.000000e+000
      outer loop
         vertex 1.101602e+002 4.848713e-002 2.930207e+002
         vertex 6.970934e+001 4.848713e-002 3.224100e+002
         vertex 6.560986e+001 4.848713e-002 3.157202e+002
      endloop
   endfacet
   facet normal 0.000000e+000 -1.000000e+000 0.000000e+000
      outer loop
         vertex 1.023385e+002 4.848713e-002 3.424052e+002
         vertex 9.470934e+001 4.848713e-002 3.405736e+002
         vertex 1.101602e+002 4.848713e-002 2.930207e+002
      endloop
   endfacet
   facet normal 0.000000e+000 -1.000000e+000 0.000000e+000
      outer loop
         vertex 1.101602e+002 4.848713e-002 2.930207e+002
         vertex 9.470934e+001 4.848713e-002 3.405736e+002
         vertex 8.746067e+001 4.848713e-002 3.375710e+002
      endloop
   endfacet
   facet normal 0.000000e+000 -1.000000e+000 0.000000e+000
      outer loop
         vertex 1.101602e+002 4.848713e-002 2.930207e+002
         vertex 8.746067e+001 4.848713e-002 3.375710e+002
         vertex 8.077094e+001 4.848713e-002 3.334716e+002
      endloop
   endfacet
endsolid