solid blade6
   facet normal -9.982049e-001 0.000000e+000 5.989229e-002
      outer loop
         vertex 0.000000e+000 1.000000e+002 0.000000e+000
         vertex 0.000000e+000 0.000000e+000 0.000000e+000
         vertex 1.500000e+000 1.000000e+002 2.500000e+001
      endloop
   endfacet
   facet normal -9.982049e-001 0.000000e+000 5.989229e-002
      outer loop
         vertex 1.500000e+000 1.000000e+002 2.500000e+001
         vertex 0.000000e+000 0.000000e+000 0.000000e+000
         vertex 1.500000e+000 0.000000e+000 2.500000e+001
      endloop
   endfacet
   facet normal 0.000000e+000 0.000000e+000 -1.000000e+000
      outer loop
         vertex 3.000000e+000 1.000000e+002 0.000000e+000
         vertex 3.000000e+000 0.000000e+000 0.000000e+000
         vertex 0.000000e+000 1.000000e+002 0.000000e+000
      endloop
   endfacet
   facet normal 0.000000e+000 0.000000e+000 -1.000000e+000
      outer loop
         vertex 0.000000e+000 1.000000e+002 0.000000e+000
         vertex 3.000000e+000 0.000000e+000 0.000000e+000
         vertex 0.000000e+000 0.000000e+000 0.000000e+000
      endloop
   endfacet
   facet normal 9.982049e-001 0.000000e+000 5.989229e-002
      outer loop
         vertex 1.500000e+000 1.000000e+002 2.500000e+001
         vertex 1.500000e+000 0.000000e+000 2.500000e+001
         vertex 3.000000e+000 1.000000e+002 0.000000e+000
      endloop
   endfacet
   facet normal 9.982049e-001 0.000000e+000 5.989229e-002
      outer loop
         vertex 3.000000e+000 1.000000e+002 0.000000e+000
         vertex 1.500000e+000 0.000000e+000 2.500000e+001
         vertex 3.000000e+000 0.000000e+000 0.000000e+000
      endloop
   endfacet
   facet normal 0.000000e+000 -1.000000e+000 0.000000e+000
      outer loop
         vertex 0.000000e+000 0.000000e+000 0.000000e+000
         vertex 3.000000e+000 0.000000e+000 0.000000e+000
         vertex 1.500000e+000 0.000000e+000 2.500000e+001
      endloop
   endfacet
   facet normal 0.000000e+000 1.000000e+000 0.000000e+000
      outer loop
         vertex 1.500000e+000 1.000000e+002 2.500000e+001
         vertex 3.000000e+000 1.000000e+002 0.000000e+000
         vertex 0.000000e+000 1.000000e+002 0.000000e+000
      endloop
   endfacet
endsolid