solid link_004
   facet normal -1.387779e-016 0.000000e+000 -1.000000e+000
      outer loop
         vertex 0.000000e+000 3.000000e+002 0.000000e+000
         vertex 9.999999e+001 3.000000e+002 0.000000e+000
         vertex 0.000000e+000 0.000000e+000 0.000000e+000
      endloop
   endfacet
   facet normal -1.387779e-016 0.000000e+000 -1.000000e+000
      outer loop
         vertex 0.000000e+000 0.000000e+000 0.000000e+000
         vertex 9.999999e+001 3.000000e+002 0.000000e+000
         vertex 9.999999e+001 0.000000e+000 0.000000e+000
      endloop
   endfacet
   facet normal -1.000000e+000 0.000000e+000 2.312965e-016
      outer loop
         vertex 0.000000e+000 3.000000e+002 3.000000e+001
         vertex 0.000000e+000 3.000000e+002 0.000000e+000
         vertex 0.000000e+000 0.000000e+000 3.000000e+001
      endloop
   endfacet
   facet normal -1.000000e+000 0.000000e+000 2.312965e-016
      outer loop
         vertex 0.000000e+000 0.000000e+000 3.000000e+001
         vertex 0.000000e+000 3.000000e+002 0.000000e+000
         vertex 0.000000e+000 0.000000e+000 0.000000e+000
      endloop
   endfacet
   facet normal 2.775558e-016 0.000000e+000 1.000000e+000
      outer loop
         vertex 9.999999e+001 0.000000e+000 3.000000e+001
         vertex 5.520944e+001 2.896923e+001 3.000000e+001
         vertex 5.000000e+001 2.851346e+001 3.000000e+001
      endloop
   endfacet
   facet normal 2.775558e-016 0.000000e+000 1.000000e+000
      outer loop
         vertex 9.999999e+001 0.000000e+000 3.000000e+001
         vertex 5.000000e+001 2.851346e+001 3.000000e+001
         vertex 0.000000e+000 0.000000e+000 3.000000e+001
      endloop
   endfacet
   facet normal 2.775558e-016 0.000000e+000 1.000000e+000
      outer loop
         vertex 0.000000e+000 0.000000e+000 3.000000e+001
         vertex 5.000000e+001 2.851346e+001 3.000000e+001
         vertex 4.479055e+001 2.896923e+001 3.000000e+001
      endloop
   endfacet
   facet normal 2.775558e-016 0.000000e+000 1.000000e+000
      outer loop
         vertex 0.000000e+000 0.000000e+000 3.000000e+001
         vertex 4.479055e+001 2.896923e+001 3.000000e+001
         vertex 3.973940e+001 3.032268e+001 3.000000e+001
      endloop
   endfacet
   facet normal 2.775558e-016 0.000000e+000 1.000000e+000
      outer loop
         vertex 3.973940e+001 8.670424e+001 3.000000e+001
         vertex 4.479055e+001 8.805769e+001 3.000000e+001
         vertex 0.000000e+000 3.000000e+002 3.000000e+001
      endloop
   endfacet
   facet normal 2.775558e-016 0.000000e+000 1.000000e+000
      outer loop
         vertex 9.999999e+001 0.000000e+000 3.000000e+001
         vertex 7.954423e+001 5.330401e+001 3.000000e+001
         vertex 7.819077e+001 4.825285e+001 3.000000e+001
      endloop
   endfacet
   facet normal 2.775558e-016 0.000000e+000 1.000000e+000
      outer loop
         vertex 7.819077e+001 4.825285e+001 3.000000e+001
         vertex 7.598076e+001 4.351346e+001 3.000000e+001
         vertex 9.999999e+001 0.000000e+000 3.000000e+001
      endloop
   endfacet
   facet normal 2.775558e-016 0.000000e+000 1.000000e+000
      outer loop
         vertex 9.999999e+001 0.000000e+000 3.000000e+001
         vertex 7.598076e+001 4.351346e+001 3.000000e+001
         vertex 7.298133e+001 3.922983e+001 3.000000e+001
      endloop
   endfacet
   facet normal 2.775558e-016 0.000000e+000 1.000000e+000
      outer loop
         vertex 9.999999e+001 0.000000e+000 3.000000e+001
         vertex 7.298133e+001 3.922983e+001 3.000000e+001
         vertex 6.928363e+001 3.553213e+001 3.000000e+001
      endloop
   endfacet
   facet normal 2.775558e-016 0.000000e+000 1.000000e+000
      outer loop
         vertex 3.973940e+001 3.032268e+001 3.000000e+001
         vertex 3.500000e+001 3.253270e+001 3.000000e+001
         vertex 0.000000e+000 0.000000e+000 3.000000e+001
      endloop
   endfacet
   facet normal 2.775558e-016 0.000000e+000 1.000000e+000
      outer loop
         vertex 0.000000e+000 0.000000e+000 3.000000e+001
         vertex 3.500000e+001 3.253270e+001 3.000000e+001
         vertex 3.071637e+001 3.553213e+001 3.000000e+001
      endloop
   endfacet
   facet normal 2.775558e-016 0.000000e+000 1.000000e+000
      outer loop
         vertex 0.000000e+000 0.000000e+000 3.000000e+001
         vertex 3.071637e+001 3.553213e+001 3.000000e+001
         vertex 2.701867e+001 3.922983e+001 3.000000e+001
      endloop
   endfacet
   facet normal 2.775558e-016 0.000000e+000 1.000000e+000
      outer loop
         vertex 6.500000e+001 8.449422e+001 3.000000e+001
         vertex 9.999999e+001 3.000000e+002 3.000000e+001
         vertex 6.026060e+001 8.670424e+001 3.000000e+001
      endloop
   endfacet
   facet normal 2.775558e-016 0.000000e+000 1.000000e+000
      outer loop
         vertex 6.026060e+001 8.670424e+001 3.000000e+001
         vertex 9.999999e+001 3.000000e+002 3.000000e+001
         vertex 5.520944e+001 8.805769e+001 3.000000e+001
      endloop
   endfacet
   facet normal 2.775558e-016 0.000000e+000 1.000000e+000
      outer loop
         vertex 6.500000e+001 8.449422e+001 3.000000e+001
         vertex 6.928363e+001 8.149480e+001 3.000000e+001
         vertex 9.999999e+001 3.000000e+002 3.000000e+001
      endloop
   endfacet
   facet normal 2.775558e-016 0.000000e+000 1.000000e+000
      outer loop
         vertex 9.999999e+001 3.000000e+002 3.000000e+001
         vertex 6.928363e+001 8.149480e+001 3.000000e+001
         vertex 7.298133e+001 7.779709e+001 3.000000e+001
      endloop
   endfacet
   facet normal 2.775558e-016 0.000000e+000 1.000000e+000
      outer loop
         vertex 9.999999e+001 3.000000e+002 3.000000e+001
         vertex 7.298133e+001 7.779709e+001 3.000000e+001
         vertex 7.598076e+001 7.351347e+001 3.000000e+001
      endloop
   endfacet
   facet normal 2.775558e-016 0.000000e+000 1.000000e+000
      outer loop
         vertex 6.928363e+001 3.553213e+001 3.000000e+001
         vertex 6.500000e+001 3.253270e+001 3.000000e+001
         vertex 9.999999e+001 0.000000e+000 3.000000e+001
      endloop
   endfacet
   facet normal 2.775558e-016 0.000000e+000 1.000000e+000
      outer loop
         vertex 9.999999e+001 0.000000e+000 3.000000e+001
         vertex 6.500000e+001 3.253270e+001 3.000000e+001
         vertex 6.026060e+001 3.032268e+001 3.000000e+001
      endloop
   endfacet
   facet normal 2.775558e-016 0.000000e+000 1.000000e+000
      outer loop
         vertex 9.999999e+001 0.000000e+000 3.000000e+001
         vertex 6.026060e+001 3.032268e+001 3.000000e+001
         vertex 5.520944e+001 2.896923e+001 3.000000e+001
      endloop
   endfacet
   facet normal 2.775558e-016 0.000000e+000 1.000000e+000
      outer loop
         vertex 0.000000e+000 3.000000e+002 3.000000e+001
         vertex 4.479055e+001 8.805769e+001 3.000000e+001
         vertex 9.999999e+001 3.000000e+002 3.000000e+001
      endloop
   endfacet
   facet normal 2.775558e-016 0.000000e+000 1.000000e+000
      outer loop
         vertex 9.999999e+001 3.000000e+002 3.000000e+001
         vertex 4.479055e+001 8.805769e+001 3.000000e+001
         vertex 5.000000e+001 8.851346e+001 3.000000e+001
      endloop
   endfacet
   facet normal 2.775558e-016 0.000000e+000 1.000000e+000
      outer loop
         vertex 9.999999e+001 3.000000e+002 3.000000e+001
         vertex 5.000000e+001 8.851346e+001 3.000000e+001
         vertex 5.520944e+001 8.805769e+001 3.000000e+001
      endloop
   endfacet
   facet normal 2.775558e-016 0.000000e+000 1.000000e+000
      outer loop
         vertex 7.598076e+001 7.351347e+001 3.000000e+001
         vertex 7.819077e+001 6.877406e+001 3.000000e+001
         vertex 9.999999e+001 3.000000e+002 3.000000e+001
      endloop
   endfacet
   facet normal 2.775558e-016 0.000000e+000 1.000000e+000
      outer loop
         vertex 9.999999e+001 3.000000e+002 3.000000e+001
         vertex 7.819077e+001 6.877406e+001 3.000000e+001
         vertex 7.954423e+001 6.372291e+001 3.000000e+001
      endloop
   endfacet
   facet normal 2.775558e-016 0.000000e+000 1.000000e+000
      outer loop
         vertex 9.999999e+001 3.000000e+002 3.000000e+001
         vertex 7.954423e+001 6.372291e+001 3.000000e+001
         vertex 9.999999e+001 0.000000e+000 3.000000e+001
      endloop
   endfacet
   facet normal 2.775558e-016 0.000000e+000 1.000000e+000
      outer loop
         vertex 9.999999e+001 0.000000e+000 3.000000e+001
         vertex 7.954423e+001 6.372291e+001 3.000000e+001
         vertex 8.000000e+001 5.851346e+001 3.000000e+001
      endloop
   endfacet
   facet normal 2.775558e-016 0.000000e+000 1.000000e+000
      outer loop
         vertex 9.999999e+001 0.000000e+000 3.000000e+001
         vertex 8.000000e+001 5.851346e+001 3.000000e+001
         vertex 7.954423e+001 5.330401e+001 3.000000e+001
      endloop
   endfacet
   facet normal 2.775558e-016 0.000000e+000 1.000000e+000
      outer loop
         vertex 2.701867e+001 3.922983e+001 3.000000e+001
         vertex 2.401924e+001 4.351346e+001 3.000000e+001
         vertex 0.000000e+000 0.000000e+000 3.000000e+001
      endloop
   endfacet
   facet normal 2.775558e-016 0.000000e+000 1.000000e+000
      outer loop
         vertex 0.000000e+000 0.000000e+000 3.000000e+001
         vertex 2.401924e+001 4.351346e+001 3.000000e+001
         vertex 2.180922e+001 4.825285e+001 3.000000e+001
      endloop
   endfacet
   facet normal 2.775558e-016 0.000000e+000 1.000000e+000
      outer loop
         vertex 0.000000e+000 0.000000e+000 3.000000e+001
         vertex 2.180922e+001 4.825285e+001 3.000000e+001
         vertex 2.045577e+001 5.330401e+001 3.000000e+001
      endloop
   endfacet
   facet normal 2.775558e-016 0.000000e+000 1.000000e+000
      outer loop
         vertex 0.000000e+000 3.000000e+002 3.000000e+001
         vertex 2.401924e+001 7.351347e+001 3.000000e+001
         vertex 2.701867e+001 7.779709e+001 3.000000e+001
      endloop
   endfacet
   facet normal 2.775558e-016 0.000000e+000 1.000000e+000
      outer loop
         vertex 2.701867e+001 7.779709e+001 3.000000e+001
         vertex 3.071637e+001 8.149480e+001 3.000000e+001
         vertex 0.000000e+000 3.000000e+002 3.000000e+001
      endloop
   endfacet
   facet normal 2.775558e-016 0.000000e+000 1.000000e+000
      outer loop
         vertex 0.000000e+000 3.000000e+002 3.000000e+001
         vertex 3.071637e+001 8.149480e+001 3.000000e+001
         vertex 3.500000e+001 8.449422e+001 3.000000e+001
      endloop
   endfacet
   facet normal 2.775558e-016 0.000000e+000 1.000000e+000
      outer loop
         vertex 0.000000e+000 3.000000e+002 3.000000e+001
         vertex 3.500000e+001 8.449422e+001 3.000000e+001
         vertex 3.973940e+001 8.670424e+001 3.000000e+001
      endloop
   endfacet
   facet normal 2.775558e-016 0.000000e+000 1.000000e+000
      outer loop
         vertex 2.045577e+001 5.330401e+001 3.000000e+001
         vertex 2.000000e+001 5.851346e+001 3.000000e+001
         vertex 0.000000e+000 0.000000e+000 3.000000e+001
      endloop
   endfacet
   facet normal 2.775558e-016 0.000000e+000 1.000000e+000
      outer loop
         vertex 0.000000e+000 0.000000e+000 3.000000e+001
         vertex 2.000000e+001 5.851346e+001 3.000000e+001
         vertex 2.045577e+001 6.372291e+001 3.000000e+001
      endloop
   endfacet
   facet normal 2.775558e-016 0.000000e+000 1.000000e+000
      outer loop
         vertex 0.000000e+000 0.000000e+000 3.000000e+001
         vertex 2.045577e+001 6.372291e+001 3.000000e+001
         vertex 0.000000e+000 3.000000e+002 3.000000e+001
      endloop
   endfacet
   facet normal 2.775558e-016 0.000000e+000 1.000000e+000
      outer loop
         vertex 0.000000e+000 3.000000e+002 3.000000e+001
         vertex 2.045577e+001 6.372291e+001 3.000000e+001
         vertex 2.180922e+001 6.877406e+001 3.000000e+001
      endloop
   endfacet
   facet normal 2.775558e-016 0.000000e+000 1.000000e+000
      outer loop
         vertex 0.000000e+000 3.000000e+002 3.000000e+001
         vertex 2.180922e+001 6.877406e+001 3.000000e+001
         vertex 2.401924e+001 7.351347e+001 3.000000e+001
      endloop
   endfacet
   facet normal 1.000000e+000 0.000000e+000 0.000000e+000
      outer loop
         vertex 9.999999e+001 3.000000e+002 0.000000e+000
         vertex 9.999999e+001 3.000000e+002 3.000000e+001
         vertex 9.999999e+001 0.000000e+000 0.000000e+000
      endloop
   endfacet
   facet normal 1.000000e+000 0.000000e+000 0.000000e+000
      outer loop
         vertex 9.999999e+001 0.000000e+000 0.000000e+000
         vertex 9.999999e+001 3.000000e+002 3.000000e+001
         vertex 9.999999e+001 0.000000e+000 3.000000e+001
      endloop
   endfacet
   facet normal 0.000000e+000 1.000000e+000 0.000000e+000
      outer loop
         vertex 0.000000e+000 3.000000e+002 3.000000e+001
         vertex 9.999999e+001 3.000000e+002 3.000000e+001
         vertex 0.000000e+000 3.000000e+002 0.000000e+000
      endloop
   endfacet
   facet normal 0.000000e+000 1.000000e+000 0.000000e+000
      outer loop
         vertex 0.000000e+000 3.000000e+002 0.000000e+000
         vertex 9.999999e+001 3.000000e+002 3.000000e+001
         vertex 9.999999e+001 3.000000e+002 0.000000e+000
      endloop
   endfacet
   facet normal 0.000000e+000 -1.000000e+000 0.000000e+000
      outer loop
         vertex 9.999999e+001 0.000000e+000 3.000000e+001
         vertex 0.000000e+000 0.000000e+000 3.000000e+001
         vertex 9.999999e+001 0.000000e+000 0.000000e+000
      endloop
   endfacet
   facet normal 0.000000e+000 -1.000000e+000 0.000000e+000
      outer loop
         vertex 9.999999e+001 0.000000e+000 0.000000e+000
         vertex 0.000000e+000 0.000000e+000 3.000000e+001
         vertex 0.000000e+000 0.000000e+000 0.000000e+000
      endloop
   endfacet
   facet normal 9.932307e-001 1.161583e-001 0.000000e+000
      outer loop
         vertex 8.000000e+001 5.851346e+001 8.000000e+001
         vertex 7.954423e+001 6.372291e+001 3.000000e+001
         vertex 7.954423e+001 6.372291e+001 8.000000e+001
      endloop
   endfacet
   facet normal 9.730600e-001 2.305519e-001 0.000000e+000
      outer loop
         vertex 7.954423e+001 6.372291e+001 8.000000e+001
         vertex 7.954423e+001 6.372291e+001 3.000000e+001
         vertex 7.819077e+001 6.877406e+001 3.000000e+001
      endloop
   endfacet
   facet normal 9.579706e-001 2.868663e-001 0.000000e+000
      outer loop
         vertex 7.954423e+001 6.372291e+001 8.000000e+001
         vertex 7.819077e+001 6.877406e+001 3.000000e+001
         vertex 7.819077e+001 6.877406e+001 8.000000e+001
      endloop
   endfacet
   facet normal 9.182422e-001 3.960194e-001 0.000000e+000
      outer loop
         vertex 7.819077e+001 6.877406e+001 8.000000e+001
         vertex 7.819077e+001 6.877406e+001 3.000000e+001
         vertex 7.598076e+001 7.351347e+001 3.000000e+001
      endloop
   endfacet
   facet normal 8.936031e-001 4.488580e-001 0.000000e+000
      outer loop
         vertex 7.819077e+001 6.877406e+001 8.000000e+001
         vertex 7.598076e+001 7.351347e+001 3.000000e+001
         vertex 7.598076e+001 7.351347e+001 8.000000e+001
      endloop
   endfacet
   facet normal 8.355240e-001 5.494540e-001 0.000000e+000
      outer loop
         vertex 7.598076e+001 7.351347e+001 8.000000e+001
         vertex 7.598076e+001 7.351347e+001 3.000000e+001
         vertex 7.298133e+001 7.779709e+001 3.000000e+001
      endloop
   endfacet
   facet normal 8.020838e-001 5.972114e-001 0.000000e+000
      outer loop
         vertex 7.598076e+001 7.351347e+001 8.000000e+001
         vertex 7.298133e+001 7.779709e+001 3.000000e+001
         vertex 7.298133e+001 7.779709e+001 8.000000e+001
      endloop
   endfacet
   facet normal 7.274188e-001 6.861938e-001 0.000000e+000
      outer loop
         vertex 7.298133e+001 7.779709e+001 8.000000e+001
         vertex 7.298133e+001 7.779709e+001 3.000000e+001
         vertex 6.928363e+001 8.149480e+001 3.000000e+001
      endloop
   endfacet
   facet normal 6.861938e-001 7.274188e-001 0.000000e+000
      outer loop
         vertex 7.298133e+001 7.779709e+001 8.000000e+001
         vertex 6.928363e+001 8.149480e+001 3.000000e+001
         vertex 6.928363e+001 8.149480e+001 8.000000e+001
      endloop
   endfacet
   facet normal 5.972114e-001 8.020838e-001 0.000000e+000
      outer loop
         vertex 6.928363e+001 8.149480e+001 8.000000e+001
         vertex 6.928363e+001 8.149480e+001 3.000000e+001
         vertex 6.500000e+001 8.449422e+001 3.000000e+001
      endloop
   endfacet
   facet normal 5.494540e-001 8.355240e-001 0.000000e+000
      outer loop
         vertex 6.928363e+001 8.149480e+001 8.000000e+001
         vertex 6.500000e+001 8.449422e+001 3.000000e+001
         vertex 6.500000e+001 8.449422e+001 8.000000e+001
      endloop
   endfacet
   facet normal 4.488580e-001 8.936031e-001 0.000000e+000
      outer loop
         vertex 6.500000e+001 8.449422e+001 8.000000e+001
         vertex 6.500000e+001 8.449422e+001 3.000000e+001
         vertex 6.026060e+001 8.670424e+001 3.000000e+001
      endloop
   endfacet
   facet normal 3.960194e-001 9.182422e-001 0.000000e+000
      outer loop
         vertex 6.500000e+001 8.449422e+001 8.000000e+001
         vertex 6.026060e+001 8.670424e+001 3.000000e+001
         vertex 6.026060e+001 8.670424e+001 8.000000e+001
      endloop
   endfacet
   facet normal 2.868663e-001 9.579706e-001 0.000000e+000
      outer loop
         vertex 6.026060e+001 8.670424e+001 8.000000e+001
         vertex 6.026060e+001 8.670424e+001 3.000000e+001
         vertex 5.520944e+001 8.805769e+001 3.000000e+001
      endloop
   endfacet
   facet normal 2.305519e-001 9.730600e-001 0.000000e+000
      outer loop
         vertex 6.026060e+001 8.670424e+001 8.000000e+001
         vertex 5.520944e+001 8.805769e+001 3.000000e+001
         vertex 5.520944e+001 8.805769e+001 8.000000e+001
      endloop
   endfacet
   facet normal 1.161583e-001 9.932307e-001 0.000000e+000
      outer loop
         vertex 5.520944e+001 8.805769e+001 8.000000e+001
         vertex 5.520944e+001 8.805769e+001 3.000000e+001
         vertex 5.000000e+001 8.851346e+001 3.000000e+001
      endloop
   endfacet
   facet normal 5.807913e-002 9.983119e-001 0.000000e+000
      outer loop
         vertex 5.520944e+001 8.805769e+001 8.000000e+001
         vertex 5.000000e+001 8.851346e+001 3.000000e+001
         vertex 5.000000e+001 8.851346e+001 8.000000e+001
      endloop
   endfacet
   facet normal -5.807913e-002 9.983119e-001 0.000000e+000
      outer loop
         vertex 5.000000e+001 8.851346e+001 8.000000e+001
         vertex 5.000000e+001 8.851346e+001 3.000000e+001
         vertex 4.479055e+001 8.805769e+001 3.000000e+001
      endloop
   endfacet
   facet normal -1.161583e-001 9.932307e-001 0.000000e+000
      outer loop
         vertex 5.000000e+001 8.851346e+001 8.000000e+001
         vertex 4.479055e+001 8.805769e+001 3.000000e+001
         vertex 4.479055e+001 8.805769e+001 8.000000e+001
      endloop
   endfacet
   facet normal -2.305519e-001 9.730600e-001 0.000000e+000
      outer loop
         vertex 4.479055e+001 8.805769e+001 8.000000e+001
         vertex 4.479055e+001 8.805769e+001 3.000000e+001
         vertex 3.973940e+001 8.670424e+001 3.000000e+001
      endloop
   endfacet
   facet normal -2.868663e-001 9.579706e-001 0.000000e+000
      outer loop
         vertex 4.479055e+001 8.805769e+001 8.000000e+001
         vertex 3.973940e+001 8.670424e+001 3.000000e+001
         vertex 3.973940e+001 8.670424e+001 8.000000e+001
      endloop
   endfacet
   facet normal -3.960194e-001 9.182422e-001 0.000000e+000
      outer loop
         vertex 3.973940e+001 8.670424e+001 8.000000e+001
         vertex 3.973940e+001 8.670424e+001 3.000000e+001
         vertex 3.500000e+001 8.449422e+001 3.000000e+001
      endloop
   endfacet
   facet normal -4.488580e-001 8.936031e-001 0.000000e+000
      outer loop
         vertex 3.973940e+001 8.670424e+001 8.000000e+001
         vertex 3.500000e+001 8.449422e+001 3.000000e+001
         vertex 3.500000e+001 8.449422e+001 8.000000e+001
      endloop
   endfacet
   facet normal -5.494540e-001 8.355240e-001 0.000000e+000
      outer loop
         vertex 3.500000e+001 8.449422e+001 8.000000e+001
         vertex 3.500000e+001 8.449422e+001 3.000000e+001
         vertex 3.071637e+001 8.149480e+001 3.000000e+001
      endloop
   endfacet
   facet normal -5.972114e-001 8.020838e-001 0.000000e+000
      outer loop
         vertex 3.500000e+001 8.449422e+001 8.000000e+001
         vertex 3.071637e+001 8.149480e+001 3.000000e+001
         vertex 3.071637e+001 8.149480e+001 8.000000e+001
      endloop
   endfacet
   facet normal -6.861938e-001 7.274188e-001 0.000000e+000
      outer loop
         vertex 3.071637e+001 8.149480e+001 8.000000e+001
         vertex 3.071637e+001 8.149480e+001 3.000000e+001
         vertex 2.701867e+001 7.779709e+001 3.000000e+001
      endloop
   endfacet
   facet normal -7.274188e-001 6.861938e-001 0.000000e+000
      outer loop
         vertex 3.071637e+001 8.149480e+001 8.000000e+001
         vertex 2.701867e+001 7.779709e+001 3.000000e+001
         vertex 2.701867e+001 7.779709e+001 8.000000e+001
      endloop
   endfacet
   facet normal -8.020838e-001 5.972114e-001 0.000000e+000
      outer loop
         vertex 2.701867e+001 7.779709e+001 8.000000e+001
         vertex 2.701867e+001 7.779709e+001 3.000000e+001
         vertex 2.401924e+001 7.351347e+001 3.000000e+001
      endloop
   endfacet
   facet normal -8.355240e-001 5.494540e-001 0.000000e+000
      outer loop
         vertex 2.701867e+001 7.779709e+001 8.000000e+001
         vertex 2.401924e+001 7.351347e+001 3.000000e+001
         vertex 2.401924e+001 7.351347e+001 8.000000e+001
      endloop
   endfacet
   facet normal -8.936031e-001 4.488580e-001 0.000000e+000
      outer loop
         vertex 2.401924e+001 7.351347e+001 8.000000e+001
         vertex 2.401924e+001 7.351347e+001 3.000000e+001
         vertex 2.180922e+001 6.877406e+001 3.000000e+001
      endloop
   endfacet
   facet normal -9.182422e-001 3.960194e-001 0.000000e+000
      outer loop
         vertex 2.401924e+001 7.351347e+001 8.000000e+001
         vertex 2.180922e+001 6.877406e+001 3.000000e+001
         vertex 2.180922e+001 6.877406e+001 8.000000e+001
      endloop
   endfacet
   facet normal -9.579706e-001 2.868663e-001 0.000000e+000
      outer loop
         vertex 2.180922e+001 6.877406e+001 8.000000e+001
         vertex 2.180922e+001 6.877406e+001 3.000000e+001
         vertex 2.045577e+001 6.372291e+001 3.000000e+001
      endloop
   endfacet
   facet normal -9.730600e-001 2.305519e-001 0.000000e+000
      outer loop
         vertex 2.180922e+001 6.877406e+001 8.000000e+001
         vertex 2.045577e+001 6.372291e+001 3.000000e+001
         vertex 2.045577e+001 6.372291e+001 8.000000e+001
      endloop
   endfacet
   facet normal -9.932307e-001 1.161583e-001 0.000000e+000
      outer loop
         vertex 2.045577e+001 6.372291e+001 8.000000e+001
         vertex 2.045577e+001 6.372291e+001 3.000000e+001
         vertex 2.000000e+001 5.851346e+001 3.000000e+001
      endloop
   endfacet
   facet normal -9.983119e-001 5.807913e-002 0.000000e+000
      outer loop
         vertex 2.045577e+001 6.372291e+001 8.000000e+001
         vertex 2.000000e+001 5.851346e+001 3.000000e+001
         vertex 2.000000e+001 5.851346e+001 8.000000e+001
      endloop
   endfacet
   facet normal -9.983119e-001 -5.807913e-002 0.000000e+000
      outer loop
         vertex 2.000000e+001 5.851346e+001 8.000000e+001
         vertex 2.000000e+001 5.851346e+001 3.000000e+001
         vertex 2.045577e+001 5.330401e+001 3.000000e+001
      endloop
   endfacet
   facet normal -9.932307e-001 -1.161583e-001 0.000000e+000
      outer loop
         vertex 2.000000e+001 5.851346e+001 8.000000e+001
         vertex 2.045577e+001 5.330401e+001 3.000000e+001
         vertex 2.045577e+001 5.330401e+001 8.000000e+001
      endloop
   endfacet
   facet normal -9.730600e-001 -2.305519e-001 0.000000e+000
      outer loop
         vertex 2.045577e+001 5.330401e+001 8.000000e+001
         vertex 2.045577e+001 5.330401e+001 3.000000e+001
         vertex 2.180922e+001 4.825285e+001 3.000000e+001
      endloop
   endfacet
   facet normal -9.579706e-001 -2.868663e-001 0.000000e+000
      outer loop
         vertex 2.045577e+001 5.330401e+001 8.000000e+001
         vertex 2.180922e+001 4.825285e+001 3.000000e+001
         vertex 2.180922e+001 4.825285e+001 8.000000e+001
      endloop
   endfacet
   facet normal -9.182422e-001 -3.960194e-001 0.000000e+000
      outer loop
         vertex 2.180922e+001 4.825285e+001 8.000000e+001
         vertex 2.180922e+001 4.825285e+001 3.000000e+001
         vertex 2.401924e+001 4.351346e+001 3.000000e+001
      endloop
   endfacet
   facet normal -8.936031e-001 -4.488580e-001 0.000000e+000
      outer loop
         vertex 2.180922e+001 4.825285e+001 8.000000e+001
         vertex 2.401924e+001 4.351346e+001 3.000000e+001
         vertex 2.401924e+001 4.351346e+001 8.000000e+001
      endloop
   endfacet
   facet normal -8.355240e-001 -5.494540e-001 0.000000e+000
      outer loop
         vertex 2.401924e+001 4.351346e+001 8.000000e+001
         vertex 2.401924e+001 4.351346e+001 3.000000e+001
         vertex 2.701867e+001 3.922983e+001 3.000000e+001
      endloop
   endfacet
   facet normal -8.020838e-001 -5.972114e-001 0.000000e+000
      outer loop
         vertex 2.401924e+001 4.351346e+001 8.000000e+001
         vertex 2.701867e+001 3.922983e+001 3.000000e+001
         vertex 2.701867e+001 3.922983e+001 8.000000e+001
      endloop
   endfacet
   facet normal -7.274188e-001 -6.861938e-001 0.000000e+000
      outer loop
         vertex 2.701867e+001 3.922983e+001 8.000000e+001
         vertex 2.701867e+001 3.922983e+001 3.000000e+001
         vertex 3.071637e+001 3.553213e+001 3.000000e+001
      endloop
   endfacet
   facet normal -6.861938e-001 -7.274188e-001 0.000000e+000
      outer loop
         vertex 2.701867e+001 3.922983e+001 8.000000e+001
         vertex 3.071637e+001 3.553213e+001 3.000000e+001
         vertex 3.071637e+001 3.553213e+001 8.000000e+001
      endloop
   endfacet
   facet normal -5.972114e-001 -8.020838e-001 0.000000e+000
      outer loop
         vertex 3.071637e+001 3.553213e+001 8.000000e+001
         vertex 3.071637e+001 3.553213e+001 3.000000e+001
         vertex 3.500000e+001 3.253270e+001 3.000000e+001
      endloop
   endfacet
   facet normal -5.494540e-001 -8.355240e-001 0.000000e+000
      outer loop
         vertex 3.071637e+001 3.553213e+001 8.000000e+001
         vertex 3.500000e+001 3.253270e+001 3.000000e+001
         vertex 3.500000e+001 3.253270e+001 8.000000e+001
      endloop
   endfacet
   facet normal -4.488580e-001 -8.936031e-001 0.000000e+000
      outer loop
         vertex 3.500000e+001 3.253270e+001 8.000000e+001
         vertex 3.500000e+001 3.253270e+001 3.000000e+001
         vertex 3.973940e+001 3.032268e+001 3.000000e+001
      endloop
   endfacet
   facet normal -3.960194e-001 -9.182422e-001 0.000000e+000
      outer loop
         vertex 3.500000e+001 3.253270e+001 8.000000e+001
         vertex 3.973940e+001 3.032268e+001 3.000000e+001
         vertex 3.973940e+001 3.032268e+001 8.000000e+001
      endloop
   endfacet
   facet normal -2.868663e-001 -9.579706e-001 0.000000e+000
      outer loop
         vertex 3.973940e+001 3.032268e+001 8.000000e+001
         vertex 3.973940e+001 3.032268e+001 3.000000e+001
         vertex 4.479055e+001 2.896923e+001 3.000000e+001
      endloop
   endfacet
   facet normal -2.305519e-001 -9.730600e-001 0.000000e+000
      outer loop
         vertex 3.973940e+001 3.032268e+001 8.000000e+001
         vertex 4.479055e+001 2.896923e+001 3.000000e+001
         vertex 4.479055e+001 2.896923e+001 8.000000e+001
      endloop
   endfacet
   facet normal -1.161583e-001 -9.932307e-001 0.000000e+000
      outer loop
         vertex 4.479055e+001 2.896923e+001 8.000000e+001
         vertex 4.479055e+001 2.896923e+001 3.000000e+001
         vertex 5.000000e+001 2.851346e+001 3.000000e+001
      endloop
   endfacet
   facet normal -5.807913e-002 -9.983119e-001 0.000000e+000
      outer loop
         vertex 4.479055e+001 2.896923e+001 8.000000e+001
         vertex 5.000000e+001 2.851346e+001 3.000000e+001
         vertex 5.000000e+001 2.851346e+001 8.000000e+001
      endloop
   endfacet
   facet normal 5.807913e-002 -9.983119e-001 0.000000e+000
      outer loop
         vertex 5.000000e+001 2.851346e+001 8.000000e+001
         vertex 5.000000e+001 2.851346e+001 3.000000e+001
         vertex 5.520944e+001 2.896923e+001 3.000000e+001
      endloop
   endfacet
   facet normal 1.161583e-001 -9.932307e-001 0.000000e+000
      outer loop
         vertex 5.000000e+001 2.851346e+001 8.000000e+001
         vertex 5.520944e+001 2.896923e+001 3.000000e+001
         vertex 5.520944e+001 2.896923e+001 8.000000e+001
      endloop
   endfacet
   facet normal 2.305519e-001 -9.730600e-001 0.000000e+000
      outer loop
         vertex 5.520944e+001 2.896923e+001 8.000000e+001
         vertex 5.520944e+001 2.896923e+001 3.000000e+001
         vertex 6.026060e+001 3.032268e+001 3.000000e+001
      endloop
   endfacet
   facet normal 2.868663e-001 -9.579706e-001 0.000000e+000
      outer loop
         vertex 5.520944e+001 2.896923e+001 8.000000e+001
         vertex 6.026060e+001 3.032268e+001 3.000000e+001
         vertex 6.026060e+001 3.032268e+001 8.000000e+001
      endloop
   endfacet
   facet normal 3.960194e-001 -9.182422e-001 0.000000e+000
      outer loop
         vertex 6.026060e+001 3.032268e+001 8.000000e+001
         vertex 6.026060e+001 3.032268e+001 3.000000e+001
         vertex 6.500000e+001 3.253270e+001 3.000000e+001
      endloop
   endfacet
   facet normal 4.488580e-001 -8.936031e-001 0.000000e+000
      outer loop
         vertex 6.026060e+001 3.032268e+001 8.000000e+001
         vertex 6.500000e+001 3.253270e+001 3.000000e+001
         vertex 6.500000e+001 3.253270e+001 8.000000e+001
      endloop
   endfacet
   facet normal 5.494540e-001 -8.355240e-001 0.000000e+000
      outer loop
         vertex 6.500000e+001 3.253270e+001 8.000000e+001
         vertex 6.500000e+001 3.253270e+001 3.000000e+001
         vertex 6.928363e+001 3.553213e+001 3.000000e+001
      endloop
   endfacet
   facet normal 5.972114e-001 -8.020838e-001 0.000000e+000
      outer loop
         vertex 6.500000e+001 3.253270e+001 8.000000e+001
         vertex 6.928363e+001 3.553213e+001 3.000000e+001
         vertex 6.928363e+001 3.553213e+001 8.000000e+001
      endloop
   endfacet
   facet normal 6.861938e-001 -7.274188e-001 0.000000e+000
      outer loop
         vertex 6.928363e+001 3.553213e+001 8.000000e+001
         vertex 6.928363e+001 3.553213e+001 3.000000e+001
         vertex 7.298133e+001 3.922983e+001 3.000000e+001
      endloop
   endfacet
   facet normal 7.274188e-001 -6.861938e-001 0.000000e+000
      outer loop
         vertex 6.928363e+001 3.553213e+001 8.000000e+001
         vertex 7.298133e+001 3.922983e+001 3.000000e+001
         vertex 7.298133e+001 3.922983e+001 8.000000e+001
      endloop
   endfacet
   facet normal 8.020838e-001 -5.972114e-001 0.000000e+000
      outer loop
         vertex 7.298133e+001 3.922983e+001 8.000000e+001
         vertex 7.298133e+001 3.922983e+001 3.000000e+001
         vertex 7.598076e+001 4.351346e+001 3.000000e+001
      endloop
   endfacet
   facet normal 8.355240e-001 -5.494540e-001 0.000000e+000
      outer loop
         vertex 7.298133e+001 3.922983e+001 8.000000e+001
         vertex 7.598076e+001 4.351346e+001 3.000000e+001
         vertex 7.598076e+001 4.351346e+001 8.000000e+001
      endloop
   endfacet
   facet normal 8.936031e-001 -4.488580e-001 0.000000e+000
      outer loop
         vertex 7.598076e+001 4.351346e+001 8.000000e+001
         vertex 7.598076e+001 4.351346e+001 3.000000e+001
         vertex 7.819077e+001 4.825285e+001 3.000000e+001
      endloop
   endfacet
   facet normal 9.182422e-001 -3.960194e-001 0.000000e+000
      outer loop
         vertex 7.598076e+001 4.351346e+001 8.000000e+001
         vertex 7.819077e+001 4.825285e+001 3.000000e+001
         vertex 7.819077e+001 4.825285e+001 8.000000e+001
      endloop
   endfacet
   facet normal 9.579706e-001 -2.868663e-001 0.000000e+000
      outer loop
         vertex 7.819077e+001 4.825285e+001 8.000000e+001
         vertex 7.819077e+001 4.825285e+001 3.000000e+001
         vertex 7.954423e+001 5.330401e+001 3.000000e+001
      endloop
   endfacet
   facet normal 9.730600e-001 -2.305519e-001 0.000000e+000
      outer loop
         vertex 7.819077e+001 4.825285e+001 8.000000e+001
         vertex 7.954423e+001 5.330401e+001 3.000000e+001
         vertex 7.954423e+001 5.330401e+001 8.000000e+001
      endloop
   endfacet
   facet normal 9.932307e-001 -1.161583e-001 0.000000e+000
      outer loop
         vertex 7.954423e+001 5.330401e+001 8.000000e+001
         vertex 7.954423e+001 5.330401e+001 3.000000e+001
         vertex 8.000000e+001 5.851346e+001 3.000000e+001
      endloop
   endfacet
   facet normal 9.983119e-001 -5.807913e-002 0.000000e+000
      outer loop
         vertex 7.954423e+001 5.330401e+001 8.000000e+001
         vertex 8.000000e+001 5.851346e+001 3.000000e+001
         vertex 8.000000e+001 5.851346e+001 8.000000e+001
      endloop
   endfacet
   facet normal 9.983119e-001 5.807913e-002 0.000000e+000
      outer loop
         vertex 8.000000e+001 5.851346e+001 8.000000e+001
         vertex 8.000000e+001 5.851346e+001 3.000000e+001
         vertex 7.954423e+001 6.372291e+001 3.000000e+001
      endloop
   endfacet
   facet normal 0.000000e+000 0.000000e+000 1.000000e+000
      outer loop
         vertex 7.819077e+001 4.825285e+001 8.000000e+001
         vertex 7.954423e+001 5.330401e+001 8.000000e+001
         vertex 5.000000e+001 5.851346e+001 8.000000e+001
      endloop
   endfacet
   facet normal 0.000000e+000 0.000000e+000 1.000000e+000
      outer loop
         vertex 5.000000e+001 5.851346e+001 8.000000e+001
         vertex 7.954423e+001 5.330401e+001 8.000000e+001
         vertex 8.000000e+001 5.851346e+001 8.000000e+001
      endloop
   endfacet
   facet normal 0.000000e+000 0.000000e+000 1.000000e+000
      outer loop
         vertex 5.000000e+001 5.851346e+001 8.000000e+001
         vertex 8.000000e+001 5.851346e+001 8.000000e+001
         vertex 7.954423e+001 6.372291e+001 8.000000e+001
      endloop
   endfacet
   facet normal 0.000000e+000 0.000000e+000 1.000000e+000
      outer loop
         vertex 6.928363e+001 3.553213e+001 8.000000e+001
         vertex 7.298133e+001 3.922983e+001 8.000000e+001
         vertex 5.000000e+001 5.851346e+001 8.000000e+001
      endloop
   endfacet
   facet normal 0.000000e+000 0.000000e+000 1.000000e+000
      outer loop
         vertex 5.000000e+001 5.851346e+001 8.000000e+001
         vertex 7.298133e+001 3.922983e+001 8.000000e+001
         vertex 7.598076e+001 4.351346e+001 8.000000e+001
      endloop
   endfacet
   facet normal 0.000000e+000 0.000000e+000 1.000000e+000
      outer loop
         vertex 5.000000e+001 5.851346e+001 8.000000e+001
         vertex 7.598076e+001 4.351346e+001 8.000000e+001
         vertex 7.819077e+001 4.825285e+001 8.000000e+001
      endloop
   endfacet
   facet normal 0.000000e+000 0.000000e+000 1.000000e+000
      outer loop
         vertex 5.520944e+001 2.896923e+001 8.000000e+001
         vertex 6.026060e+001 3.032268e+001 8.000000e+001
         vertex 5.000000e+001 5.851346e+001 8.000000e+001
      endloop
   endfacet
   facet normal 0.000000e+000 0.000000e+000 1.000000e+000
      outer loop
         vertex 5.000000e+001 5.851346e+001 8.000000e+001
         vertex 6.026060e+001 3.032268e+001 8.000000e+001
         vertex 6.500000e+001 3.253270e+001 8.000000e+001
      endloop
   endfacet
   facet normal 0.000000e+000 0.000000e+000 1.000000e+000
      outer loop
         vertex 5.000000e+001 5.851346e+001 8.000000e+001
         vertex 6.500000e+001 3.253270e+001 8.000000e+001
         vertex 6.928363e+001 3.553213e+001 8.000000e+001
      endloop
   endfacet
   facet normal 0.000000e+000 0.000000e+000 1.000000e+000
      outer loop
         vertex 3.973940e+001 3.032268e+001 8.000000e+001
         vertex 4.479055e+001 2.896923e+001 8.000000e+001
         vertex 5.000000e+001 5.851346e+001 8.000000e+001
      endloop
   endfacet
   facet normal 0.000000e+000 0.000000e+000 1.000000e+000
      outer loop
         vertex 5.000000e+001 5.851346e+001 8.000000e+001
         vertex 4.479055e+001 2.896923e+001 8.000000e+001
         vertex 5.000000e+001 2.851346e+001 8.000000e+001
      endloop
   endfacet
   facet normal 0.000000e+000 0.000000e+000 1.000000e+000
      outer loop
         vertex 5.000000e+001 5.851346e+001 8.000000e+001
         vertex 5.000000e+001 2.851346e+001 8.000000e+001
         vertex 5.520944e+001 2.896923e+001 8.000000e+001
      endloop
   endfacet
   facet normal 0.000000e+000 0.000000e+000 1.000000e+000
      outer loop
         vertex 2.701867e+001 3.922983e+001 8.000000e+001
         vertex 3.071637e+001 3.553213e+001 8.000000e+001
         vertex 5.000000e+001 5.851346e+001 8.000000e+001
      endloop
   endfacet
   facet normal 0.000000e+000 0.000000e+000 1.000000e+000
      outer loop
         vertex 5.000000e+001 5.851346e+001 8.000000e+001
         vertex 3.071637e+001 3.553213e+001 8.000000e+001
         vertex 3.500000e+001 3.253270e+001 8.000000e+001
      endloop
   endfacet
   facet normal 0.000000e+000 0.000000e+000 1.000000e+000
      outer loop
         vertex 5.000000e+001 5.851346e+001 8.000000e+001
         vertex 3.500000e+001 3.253270e+001 8.000000e+001
         vertex 3.973940e+001 3.032268e+001 8.000000e+001
      endloop
   endfacet
   facet normal 0.000000e+000 0.000000e+000 1.000000e+000
      outer loop
         vertex 2.045577e+001 5.330401e+001 8.000000e+001
         vertex 2.180922e+001 4.825285e+001 8.000000e+001
         vertex 5.000000e+001 5.851346e+001 8.000000e+001
      endloop
   endfacet
   facet normal 0.000000e+000 0.000000e+000 1.000000e+000
      outer loop
         vertex 5.000000e+001 5.851346e+001 8.000000e+001
         vertex 2.180922e+001 4.825285e+001 8.000000e+001
         vertex 2.401924e+001 4.351346e+001 8.000000e+001
      endloop
   endfacet
   facet normal 0.000000e+000 0.000000e+000 1.000000e+000
      outer loop
         vertex 5.000000e+001 5.851346e+001 8.000000e+001
         vertex 2.401924e+001 4.351346e+001 8.000000e+001
         vertex 2.701867e+001 3.922983e+001 8.000000e+001
      endloop
   endfacet
   facet normal 0.000000e+000 0.000000e+000 1.000000e+000
      outer loop
         vertex 2.180922e+001 6.877406e+001 8.000000e+001
         vertex 2.045577e+001 6.372291e+001 8.000000e+001
         vertex 5.000000e+001 5.851346e+001 8.000000e+001
      endloop
   endfacet
   facet normal 0.000000e+000 0.000000e+000 1.000000e+000
      outer loop
         vertex 5.000000e+001 5.851346e+001 8.000000e+001
         vertex 2.045577e+001 6.372291e+001 8.000000e+001
         vertex 2.000000e+001 5.851346e+001 8.000000e+001
      endloop
   endfacet
   facet normal 0.000000e+000 0.000000e+000 1.000000e+000
      outer loop
         vertex 5.000000e+001 5.851346e+001 8.000000e+001
         vertex 2.000000e+001 5.851346e+001 8.000000e+001
         vertex 2.045577e+001 5.330401e+001 8.000000e+001
      endloop
   endfacet
   facet normal 0.000000e+000 0.000000e+000 1.000000e+000
      outer loop
         vertex 3.071637e+001 8.149480e+001 8.000000e+001
         vertex 2.701867e+001 7.779709e+001 8.000000e+001
         vertex 5.000000e+001 5.851346e+001 8.000000e+001
      endloop
   endfacet
   facet normal 0.000000e+000 0.000000e+000 1.000000e+000
      outer loop
         vertex 5.000000e+001 5.851346e+001 8.000000e+001
         vertex 2.701867e+001 7.779709e+001 8.000000e+001
         vertex 2.401924e+001 7.351347e+001 8.000000e+001
      endloop
   endfacet
   facet normal 0.000000e+000 0.000000e+000 1.000000e+000
      outer loop
         vertex 5.000000e+001 5.851346e+001 8.000000e+001
         vertex 2.401924e+001 7.351347e+001 8.000000e+001
         vertex 2.180922e+001 6.877406e+001 8.000000e+001
      endloop
   endfacet
   facet normal 0.000000e+000 0.000000e+000 1.000000e+000
      outer loop
         vertex 4.479055e+001 8.805769e+001 8.000000e+001
         vertex 3.973940e+001 8.670424e+001 8.000000e+001
         vertex 5.000000e+001 5.851346e+001 8.000000e+001
      endloop
   endfacet
   facet normal 0.000000e+000 0.000000e+000 1.000000e+000
      outer loop
         vertex 5.000000e+001 5.851346e+001 8.000000e+001
         vertex 3.973940e+001 8.670424e+001 8.000000e+001
         vertex 3.500000e+001 8.449422e+001 8.000000e+001
      endloop
   endfacet
   facet normal 0.000000e+000 0.000000e+000 1.000000e+000
      outer loop
         vertex 5.000000e+001 5.851346e+001 8.000000e+001
         vertex 3.500000e+001 8.449422e+001 8.000000e+001
         vertex 3.071637e+001 8.149480e+001 8.000000e+001
      endloop
   endfacet
   facet normal 0.000000e+000 0.000000e+000 1.000000e+000
      outer loop
         vertex 6.026060e+001 8.670424e+001 8.000000e+001
         vertex 5.520944e+001 8.805769e+001 8.000000e+001
         vertex 5.000000e+001 5.851346e+001 8.000000e+001
      endloop
   endfacet
   facet normal 0.000000e+000 0.000000e+000 1.000000e+000
      outer loop
         vertex 5.000000e+001 5.851346e+001 8.000000e+001
         vertex 5.520944e+001 8.805769e+001 8.000000e+001
         vertex 5.000000e+001 8.851346e+001 8.000000e+001
      endloop
   endfacet
   facet normal 0.000000e+000 0.000000e+000 1.000000e+000
      outer loop
         vertex 5.000000e+001 5.851346e+001 8.000000e+001
         vertex 5.000000e+001 8.851346e+001 8.000000e+001
         vertex 4.479055e+001 8.805769e+001 8.000000e+001
      endloop
   endfacet
   facet normal 0.000000e+000 0.000000e+000 1.000000e+000
      outer loop
         vertex 7.298133e+001 7.779709e+001 8.000000e+001
         vertex 6.928363e+001 8.149480e+001 8.000000e+001
         vertex 5.000000e+001 5.851346e+001 8.000000e+001
      endloop
   endfacet
   facet normal 0.000000e+000 0.000000e+000 1.000000e+000
      outer loop
         vertex 5.000000e+001 5.851346e+001 8.000000e+001
         vertex 6.928363e+001 8.149480e+001 8.000000e+001
         vertex 6.500000e+001 8.449422e+001 8.000000e+001
      endloop
   endfacet
   facet normal 0.000000e+000 0.000000e+000 1.000000e+000
      outer loop
         vertex 5.000000e+001 5.851346e+001 8.000000e+001
         vertex 6.500000e+001 8.449422e+001 8.000000e+001
         vertex 6.026060e+001 8.670424e+001 8.000000e+001
      endloop
   endfacet
   facet normal 0.000000e+000 0.000000e+000 1.000000e+000
      outer loop
         vertex 7.954423e+001 6.372291e+001 8.000000e+001
         vertex 7.819077e+001 6.877406e+001 8.000000e+001
         vertex 5.000000e+001 5.851346e+001 8.000000e+001
      endloop
   endfacet
   facet normal 0.000000e+000 0.000000e+000 1.000000e+000
      outer loop
         vertex 5.000000e+001 5.851346e+001 8.000000e+001
         vertex 7.819077e+001 6.877406e+001 8.000000e+001
         vertex 7.598076e+001 7.351347e+001 8.000000e+001
      endloop
   endfacet
   facet normal 0.000000e+000 0.000000e+000 1.000000e+000
      outer loop
         vertex 5.000000e+001 5.851346e+001 8.000000e+001
         vertex 7.598076e+001 7.351347e+001 8.000000e+001
         vertex 7.298133e+001 7.779709e+001 8.000000e+001
      endloop
   endfacet
endsolid