solid link_3
   facet normal -1.387779e-016 0.000000e+000 -1.000000e+000
      outer loop
         vertex 0.000000e+000 3.000000e+001 0.000000e+000
         vertex 1.500000e+002 3.000000e+001 0.000000e+000
         vertex 0.000000e+000 0.000000e+000 0.000000e+000
      endloop
   endfacet
   facet normal -1.387779e-016 0.000000e+000 -1.000000e+000
      outer loop
         vertex 0.000000e+000 0.000000e+000 0.000000e+000
         vertex 1.500000e+002 3.000000e+001 0.000000e+000
         vertex 1.500000e+002 0.000000e+000 0.000000e+000
      endloop
   endfacet
   facet normal -1.000000e+000 0.000000e+000 1.249001e-016
      outer loop
         vertex 0.000000e+000 3.000000e+001 5.000000e+002
         vertex 0.000000e+000 3.000000e+001 0.000000e+000
         vertex 0.000000e+000 0.000000e+000 5.000000e+002
      endloop
   endfacet
   facet normal -1.000000e+000 0.000000e+000 1.249001e-016
      outer loop
         vertex 0.000000e+000 0.000000e+000 5.000000e+002
         vertex 0.000000e+000 3.000000e+001 0.000000e+000
         vertex 0.000000e+000 0.000000e+000 0.000000e+000
      endloop
   endfacet
   facet normal -3.700743e-016 0.000000e+000 1.000000e+000
      outer loop
         vertex 1.500000e+002 3.000000e+001 5.000000e+002
         vertex 0.000000e+000 3.000000e+001 5.000000e+002
         vertex 1.500000e+002 0.000000e+000 5.000000e+002
      endloop
   endfacet
   facet normal -3.700743e-016 0.000000e+000 1.000000e+000
      outer loop
         vertex 1.500000e+002 0.000000e+000 5.000000e+002
         vertex 0.000000e+000 3.000000e+001 5.000000e+002
         vertex 0.000000e+000 0.000000e+000 5.000000e+002
      endloop
   endfacet
   facet normal 1.000000e+000 0.000000e+000 0.000000e+000
      outer loop
         vertex 1.500000e+002 3.000000e+001 0.000000e+000
         vertex 1.500000e+002 3.000000e+001 5.000000e+002
         vertex 1.500000e+002 0.000000e+000 0.000000e+000
      endloop
   endfacet
   facet normal 1.000000e+000 0.000000e+000 0.000000e+000
      outer loop
         vertex 1.500000e+002 0.000000e+000 0.000000e+000
         vertex 1.500000e+002 3.000000e+001 5.000000e+002
         vertex 1.500000e+002 0.000000e+000 5.000000e+002
      endloop
   endfacet
   facet normal 0.000000e+000 1.000000e+000 0.000000e+000
      outer loop
         vertex 0.000000e+000 3.000000e+001 5.000000e+002
         vertex 1.500000e+002 3.000000e+001 5.000000e+002
         vertex 0.000000e+000 3.000000e+001 0.000000e+000
      endloop
   endfacet
   facet normal 0.000000e+000 1.000000e+000 0.000000e+000
      outer loop
         vertex 0.000000e+000 3.000000e+001 0.000000e+000
         vertex 1.500000e+002 3.000000e+001 5.000000e+002
         vertex 1.500000e+002 3.000000e+001 0.000000e+000
      endloop
   endfacet
   facet normal 0.000000e+000 -1.000000e+000 0.000000e+000
      outer loop
         vertex 1.500000e+002 0.000000e+000 5.000000e+002
         vertex 0.000000e+000 0.000000e+000 5.000000e+002
         vertex 1.500000e+002 0.000000e+000 0.000000e+000
      endloop
   endfacet
   facet normal 0.000000e+000 -1.000000e+000 0.000000e+000
      outer loop
         vertex 1.500000e+002 0.000000e+000 0.000000e+000
         vertex 0.000000e+000 0.000000e+000 5.000000e+002
         vertex 0.000000e+000 0.000000e+000 0.000000e+000
      endloop
   endfacet
endsolid