solid link_01
   facet normal 9.964908e-001 8.370229e-002 0.000000e+000
      outer loop
         vertex 1.524000e+004 7.620000e+003 2.286000e+004
         vertex 1.517991e+004 8.575039e+003 0.000000e+000
         vertex 1.517991e+004 8.575039e+003 2.286000e+004
      endloop
   endfacet
   facet normal 9.860001e-001 1.667446e-001 0.000000e+000
      outer loop
         vertex 1.517991e+004 8.575039e+003 2.286000e+004
         vertex 1.517991e+004 8.575039e+003 0.000000e+000
         vertex 1.500060e+004 9.515017e+003 0.000000e+000
      endloop
   endfacet
   facet normal 9.781425e-001 2.079357e-001 0.000000e+000
      outer loop
         vertex 1.517991e+004 8.575039e+003 2.286000e+004
         vertex 1.500060e+004 9.515017e+003 0.000000e+000
         vertex 1.500060e+004 9.515017e+003 2.286000e+004
      endloop
   endfacet
   facet normal 9.573266e-001 2.890083e-001 0.000000e+000
      outer loop
         vertex 1.500060e+004 9.515017e+003 2.286000e+004
         vertex 1.500060e+004 9.515017e+003 0.000000e+000
         vertex 1.470490e+004 1.042511e+004 0.000000e+000
      endloop
   endfacet
   facet normal 9.443683e-001 3.288898e-001 0.000000e+000
      outer loop
         vertex 1.500060e+004 9.515017e+003 2.286000e+004
         vertex 1.470490e+004 1.042511e+004 0.000000e+000
         vertex 1.470490e+004 1.042511e+004 2.286000e+004
      endloop
   endfacet
   facet normal 9.135554e-001 4.067142e-001 0.000000e+000
      outer loop
         vertex 1.470490e+004 1.042511e+004 2.286000e+004
         vertex 1.470490e+004 1.042511e+004 0.000000e+000
         vertex 1.429746e+004 1.129096e+004 0.000000e+000
      endloop
   endfacet
   facet normal 8.957008e-001 4.446571e-001 0.000000e+000
      outer loop
         vertex 1.470490e+004 1.042511e+004 2.286000e+004
         vertex 1.429746e+004 1.129096e+004 0.000000e+000
         vertex 1.429746e+004 1.129096e+004 2.286000e+004
      endloop
   endfacet
   facet normal 8.553770e-001 5.180060e-001 0.000000e+000
      outer loop
         vertex 1.429746e+004 1.129096e+004 2.286000e+004
         vertex 1.429746e+004 1.129096e+004 0.000000e+000
         vertex 1.378471e+004 1.209892e+004 0.000000e+000
      endloop
   endfacet
   facet normal 8.329076e-001 5.534120e-001 0.000000e+000
      outer loop
         vertex 1.429746e+004 1.129096e+004 2.286000e+004
         vertex 1.378471e+004 1.209892e+004 0.000000e+000
         vertex 1.378471e+004 1.209892e+004 2.286000e+004
      endloop
   endfacet
   facet normal 7.837087e-001 6.211286e-001 0.000000e+000
      outer loop
         vertex 1.378471e+004 1.209892e+004 2.286000e+004
         vertex 1.378471e+004 1.209892e+004 0.000000e+000
         vertex 1.317474e+004 1.283625e+004 0.000000e+000
      endloop
   endfacet
   facet normal 7.569790e-001 6.534392e-001 0.000000e+000
      outer loop
         vertex 1.378471e+004 1.209892e+004 2.286000e+004
         vertex 1.317474e+004 1.283625e+004 0.000000e+000
         vertex 1.317474e+004 1.283625e+004 2.286000e+004
      endloop
   endfacet
   facet normal 6.996809e-001 7.144555e-001 0.000000e+000
      outer loop
         vertex 1.317474e+004 1.283625e+004 2.286000e+004
         vertex 1.317474e+004 1.283625e+004 0.000000e+000
         vertex 1.247717e+004 1.349131e+004 0.000000e+000
      endloop
   endfacet
   facet normal 6.691124e-001 7.431613e-001 0.000000e+000
      outer loop
         vertex 1.317474e+004 1.283625e+004 2.286000e+004
         vertex 1.247717e+004 1.349131e+004 0.000000e+000
         vertex 1.247717e+004 1.349131e+004 2.286000e+004
      endloop
   endfacet
   facet normal 6.046186e-001 7.965151e-001 0.000000e+000
      outer loop
         vertex 1.247717e+004 1.349131e+004 2.286000e+004
         vertex 1.247717e+004 1.349131e+004 0.000000e+000
         vertex 1.170300e+004 1.405378e+004 0.000000e+000
      endloop
   endfacet
   facet normal 5.706934e-001 8.211632e-001 0.000000e+000
      outer loop
         vertex 1.247717e+004 1.349131e+004 2.286000e+004
         vertex 1.170300e+004 1.405378e+004 0.000000e+000
         vertex 1.170300e+004 1.405378e+004 2.286000e+004
      endloop
   endfacet
   facet normal 5.000213e-001 8.660132e-001 0.000000e+000
      outer loop
         vertex 1.170300e+004 1.405378e+004 2.286000e+004
         vertex 1.170300e+004 1.405378e+004 0.000000e+000
         vertex 1.086444e+004 1.451478e+004 0.000000e+000
      endloop
   endfacet
   facet normal 4.632743e-001 8.862150e-001 0.000000e+000
      outer loop
         vertex 1.170300e+004 1.405378e+004 2.286000e+004
         vertex 1.086444e+004 1.451478e+004 0.000000e+000
         vertex 1.086444e+004 1.451478e+004 2.286000e+004
      endloop
   endfacet
   facet normal 3.875382e-001 9.218537e-001 0.000000e+000
      outer loop
         vertex 1.086444e+004 1.451478e+004 2.286000e+004
         vertex 1.086444e+004 1.451478e+004 0.000000e+000
         vertex 9.974710e+003 1.486705e+004 0.000000e+000
      endloop
   endfacet
   facet normal 3.485490e-001 9.372905e-001 0.000000e+000
      outer loop
         vertex 1.086444e+004 1.451478e+004 2.286000e+004
         vertex 9.974710e+003 1.486705e+004 0.000000e+000
         vertex 9.974710e+003 1.486705e+004 2.286000e+004
      endloop
   endfacet
   facet normal 2.689435e-001 9.631560e-001 0.000000e+000
      outer loop
         vertex 9.974710e+003 1.486705e+004 2.286000e+004
         vertex 9.974710e+003 1.486705e+004 0.000000e+000
         vertex 9.047846e+003 1.510503e+004 0.000000e+000
      endloop
   endfacet
   facet normal 2.283270e-001 9.735845e-001 0.000000e+000
      outer loop
         vertex 9.974710e+003 1.486705e+004 2.286000e+004
         vertex 9.047846e+003 1.510503e+004 0.000000e+000
         vertex 9.047846e+003 1.510503e+004 2.286000e+004
      endloop
   endfacet
   facet normal 1.461073e-001 9.892687e-001 0.000000e+000
      outer loop
         vertex 9.047846e+003 1.510503e+004 2.286000e+004
         vertex 9.047846e+003 1.510503e+004 0.000000e+000
         vertex 8.098464e+003 1.522496e+004 0.000000e+000
      endloop
   endfacet
   facet normal 1.045041e-001 9.945244e-001 0.000000e+000
      outer loop
         vertex 9.047846e+003 1.510503e+004 2.286000e+004
         vertex 8.098464e+003 1.522496e+004 0.000000e+000
         vertex 8.098464e+003 1.522496e+004 2.286000e+004
      endloop
   endfacet
   facet normal 2.096695e-002 9.997802e-001 0.000000e+000
      outer loop
         vertex 8.098464e+003 1.522496e+004 2.286000e+004
         vertex 8.098464e+003 1.522496e+004 0.000000e+000
         vertex 7.141536e+003 1.522496e+004 0.000000e+000
      endloop
   endfacet
   facet normal -2.096695e-002 9.997802e-001 0.000000e+000
      outer loop
         vertex 8.098464e+003 1.522496e+004 2.286000e+004
         vertex 7.141536e+003 1.522496e+004 0.000000e+000
         vertex 7.141536e+003 1.522496e+004 2.286000e+004
      endloop
   endfacet
   facet normal -1.045041e-001 9.945244e-001 0.000000e+000
      outer loop
         vertex 7.141536e+003 1.522496e+004 2.286000e+004
         vertex 7.141536e+003 1.522496e+004 0.000000e+000
         vertex 6.192154e+003 1.510503e+004 0.000000e+000
      endloop
   endfacet
   facet normal -1.461073e-001 9.892687e-001 0.000000e+000
      outer loop
         vertex 7.141536e+003 1.522496e+004 2.286000e+004
         vertex 6.192154e+003 1.510503e+004 0.000000e+000
         vertex 6.192154e+003 1.510503e+004 2.286000e+004
      endloop
   endfacet
   facet normal -2.283270e-001 9.735845e-001 0.000000e+000
      outer loop
         vertex 6.192154e+003 1.510503e+004 2.286000e+004
         vertex 6.192154e+003 1.510503e+004 0.000000e+000
         vertex 5.265290e+003 1.486705e+004 0.000000e+000
      endloop
   endfacet
   facet normal -2.689435e-001 9.631560e-001 0.000000e+000
      outer loop
         vertex 6.192154e+003 1.510503e+004 2.286000e+004
         vertex 5.265290e+003 1.486705e+004 0.000000e+000
         vertex 5.265290e+003 1.486705e+004 2.286000e+004
      endloop
   endfacet
   facet normal -3.485490e-001 9.372905e-001 0.000000e+000
      outer loop
         vertex 5.265290e+003 1.486705e+004 2.286000e+004
         vertex 5.265290e+003 1.486705e+004 0.000000e+000
         vertex 4.375562e+003 1.451478e+004 0.000000e+000
      endloop
   endfacet
   facet normal -3.875382e-001 9.218537e-001 0.000000e+000
      outer loop
         vertex 5.265290e+003 1.486705e+004 2.286000e+004
         vertex 4.375562e+003 1.451478e+004 0.000000e+000
         vertex 4.375562e+003 1.451478e+004 2.286000e+004
      endloop
   endfacet
   facet normal -4.632743e-001 8.862150e-001 0.000000e+000
      outer loop
         vertex 4.375562e+003 1.451478e+004 2.286000e+004
         vertex 4.375562e+003 1.451478e+004 0.000000e+000
         vertex 3.537000e+003 1.405378e+004 0.000000e+000
      endloop
   endfacet
   facet normal -5.000213e-001 8.660132e-001 0.000000e+000
      outer loop
         vertex 4.375562e+003 1.451478e+004 2.286000e+004
         vertex 3.537000e+003 1.405378e+004 0.000000e+000
         vertex 3.537000e+003 1.405378e+004 2.286000e+004
      endloop
   endfacet
   facet normal -5.706934e-001 8.211632e-001 0.000000e+000
      outer loop
         vertex 3.537000e+003 1.405378e+004 2.286000e+004
         vertex 3.537000e+003 1.405378e+004 0.000000e+000
         vertex 2.762829e+003 1.349131e+004 0.000000e+000
      endloop
   endfacet
   facet normal -6.046186e-001 7.965151e-001 0.000000e+000
      outer loop
         vertex 3.537000e+003 1.405378e+004 2.286000e+004
         vertex 2.762829e+003 1.349131e+004 0.000000e+000
         vertex 2.762829e+003 1.349131e+004 2.286000e+004
      endloop
   endfacet
   facet normal -6.691124e-001 7.431613e-001 0.000000e+000
      outer loop
         vertex 2.762829e+003 1.349131e+004 2.286000e+004
         vertex 2.762829e+003 1.349131e+004 0.000000e+000
         vertex 2.065259e+003 1.283625e+004 0.000000e+000
      endloop
   endfacet
   facet normal -6.996809e-001 7.144555e-001 0.000000e+000
      outer loop
         vertex 2.762829e+003 1.349131e+004 2.286000e+004
         vertex 2.065259e+003 1.283625e+004 0.000000e+000
         vertex 2.065259e+003 1.283625e+004 2.286000e+004
      endloop
   endfacet
   facet normal -7.569790e-001 6.534392e-001 0.000000e+000
      outer loop
         vertex 2.065259e+003 1.283625e+004 2.286000e+004
         vertex 2.065259e+003 1.283625e+004 0.000000e+000
         vertex 1.455290e+003 1.209892e+004 0.000000e+000
      endloop
   endfacet
   facet normal -7.837087e-001 6.211286e-001 0.000000e+000
      outer loop
         vertex 2.065259e+003 1.283625e+004 2.286000e+004
         vertex 1.455290e+003 1.209892e+004 0.000000e+000
         vertex 1.455290e+003 1.209892e+004 2.286000e+004
      endloop
   endfacet
   facet normal -8.329076e-001 5.534120e-001 0.000000e+000
      outer loop
         vertex 1.455290e+003 1.209892e+004 2.286000e+004
         vertex 1.455290e+003 1.209892e+004 0.000000e+000
         vertex 9.425430e+002 1.129096e+004 0.000000e+000
      endloop
   endfacet
   facet normal -8.553770e-001 5.180060e-001 0.000000e+000
      outer loop
         vertex 1.455290e+003 1.209892e+004 2.286000e+004
         vertex 9.425430e+002 1.129096e+004 0.000000e+000
         vertex 9.425430e+002 1.129096e+004 2.286000e+004
      endloop
   endfacet
   facet normal -8.957008e-001 4.446571e-001 0.000000e+000
      outer loop
         vertex 9.425430e+002 1.129096e+004 2.286000e+004
         vertex 9.425430e+002 1.129096e+004 0.000000e+000
         vertex 5.351028e+002 1.042511e+004 0.000000e+000
      endloop
   endfacet
   facet normal -9.135554e-001 4.067142e-001 0.000000e+000
      outer loop
         vertex 9.425430e+002 1.129096e+004 2.286000e+004
         vertex 5.351028e+002 1.042511e+004 0.000000e+000
         vertex 5.351028e+002 1.042511e+004 2.286000e+004
      endloop
   endfacet
   facet normal -9.443683e-001 3.288898e-001 0.000000e+000
      outer loop
         vertex 5.351028e+002 1.042511e+004 2.286000e+004
         vertex 5.351028e+002 1.042511e+004 0.000000e+000
         vertex 2.393961e+002 9.515017e+003 0.000000e+000
      endloop
   endfacet
   facet normal -9.573266e-001 2.890083e-001 0.000000e+000
      outer loop
         vertex 5.351028e+002 1.042511e+004 2.286000e+004
         vertex 2.393961e+002 9.515017e+003 0.000000e+000
         vertex 2.393961e+002 9.515017e+003 2.286000e+004
      endloop
   endfacet
   facet normal -9.781425e-001 2.079357e-001 0.000000e+000
      outer loop
         vertex 2.393961e+002 9.515017e+003 2.286000e+004
         vertex 2.393961e+002 9.515017e+003 0.000000e+000
         vertex 6.008577e+001 8.575039e+003 0.000000e+000
      endloop
   endfacet
   facet normal -9.860001e-001 1.667446e-001 0.000000e+000
      outer loop
         vertex 2.393961e+002 9.515017e+003 2.286000e+004
         vertex 6.008577e+001 8.575039e+003 0.000000e+000
         vertex 6.008577e+001 8.575039e+003 2.286000e+004
      endloop
   endfacet
   facet normal -9.964908e-001 8.370229e-002 0.000000e+000
      outer loop
         vertex 6.008577e+001 8.575039e+003 2.286000e+004
         vertex 6.008577e+001 8.575039e+003 0.000000e+000
         vertex 0.000000e+000 7.620000e+003 0.000000e+000
      endloop
   endfacet
   facet normal -9.991238e-001 4.185114e-002 0.000000e+000
      outer loop
         vertex 6.008577e+001 8.575039e+003 2.286000e+004
         vertex 0.000000e+000 7.620000e+003 0.000000e+000
         vertex 0.000000e+000 7.620000e+003 2.286000e+004
      endloop
   endfacet
   facet normal -9.991238e-001 -4.185114e-002 0.000000e+000
      outer loop
         vertex 0.000000e+000 7.620000e+003 2.286000e+004
         vertex 0.000000e+000 7.620000e+003 0.000000e+000
         vertex 6.008577e+001 6.664961e+003 0.000000e+000
      endloop
   endfacet
   facet normal -9.964908e-001 -8.370229e-002 0.000000e+000
      outer loop
         vertex 0.000000e+000 7.620000e+003 2.286000e+004
         vertex 6.008577e+001 6.664961e+003 0.000000e+000
         vertex 6.008577e+001 6.664961e+003 2.286000e+004
      endloop
   endfacet
   facet normal -9.860001e-001 -1.667446e-001 0.000000e+000
      outer loop
         vertex 6.008577e+001 6.664961e+003 2.286000e+004
         vertex 6.008577e+001 6.664961e+003 0.000000e+000
         vertex 2.393961e+002 5.724983e+003 0.000000e+000
      endloop
   endfacet
   facet normal -9.781425e-001 -2.079357e-001 0.000000e+000
      outer loop
         vertex 6.008577e+001 6.664961e+003 2.286000e+004
         vertex 2.393961e+002 5.724983e+003 0.000000e+000
         vertex 2.393961e+002 5.724983e+003 2.286000e+004
      endloop
   endfacet
   facet normal -9.573266e-001 -2.890083e-001 0.000000e+000
      outer loop
         vertex 2.393961e+002 5.724983e+003 2.286000e+004
         vertex 2.393961e+002 5.724983e+003 0.000000e+000
         vertex 5.351028e+002 4.814891e+003 0.000000e+000
      endloop
   endfacet
   facet normal -9.443683e-001 -3.288898e-001 0.000000e+000
      outer loop
         vertex 2.393961e+002 5.724983e+003 2.286000e+004
         vertex 5.351028e+002 4.814891e+003 0.000000e+000
         vertex 5.351028e+002 4.814891e+003 2.286000e+004
      endloop
   endfacet
   facet normal -9.135554e-001 -4.067142e-001 0.000000e+000
      outer loop
         vertex 5.351028e+002 4.814891e+003 2.286000e+004
         vertex 5.351028e+002 4.814891e+003 0.000000e+000
         vertex 9.425430e+002 3.949037e+003 0.000000e+000
      endloop
   endfacet
   facet normal -8.957008e-001 -4.446571e-001 0.000000e+000
      outer loop
         vertex 5.351028e+002 4.814891e+003 2.286000e+004
         vertex 9.425430e+002 3.949037e+003 0.000000e+000
         vertex 9.425430e+002 3.949037e+003 2.286000e+004
      endloop
   endfacet
   facet normal -8.553770e-001 -5.180060e-001 0.000000e+000
      outer loop
         vertex 9.425430e+002 3.949037e+003 2.286000e+004
         vertex 9.425430e+002 3.949037e+003 0.000000e+000
         vertex 1.455290e+003 3.141076e+003 0.000000e+000
      endloop
   endfacet
   facet normal -8.329076e-001 -5.534120e-001 0.000000e+000
      outer loop
         vertex 9.425430e+002 3.949037e+003 2.286000e+004
         vertex 1.455290e+003 3.141076e+003 0.000000e+000
         vertex 1.455290e+003 3.141076e+003 2.286000e+004
      endloop
   endfacet
   facet normal -7.837087e-001 -6.211286e-001 0.000000e+000
      outer loop
         vertex 1.455290e+003 3.141076e+003 2.286000e+004
         vertex 1.455290e+003 3.141076e+003 0.000000e+000
         vertex 2.065259e+003 2.403751e+003 0.000000e+000
      endloop
   endfacet
   facet normal -7.569790e-001 -6.534392e-001 0.000000e+000
      outer loop
         vertex 1.455290e+003 3.141076e+003 2.286000e+004
         vertex 2.065259e+003 2.403751e+003 0.000000e+000
         vertex 2.065259e+003 2.403751e+003 2.286000e+004
      endloop
   endfacet
   facet normal -6.996809e-001 -7.144555e-001 0.000000e+000
      outer loop
         vertex 2.065259e+003 2.403751e+003 2.286000e+004
         vertex 2.065259e+003 2.403751e+003 0.000000e+000
         vertex 2.762829e+003 1.748689e+003 0.000000e+000
      endloop
   endfacet
   facet normal -6.691124e-001 -7.431613e-001 0.000000e+000
      outer loop
         vertex 2.065259e+003 2.403751e+003 2.286000e+004
         vertex 2.762829e+003 1.748689e+003 0.000000e+000
         vertex 2.762829e+003 1.748689e+003 2.286000e+004
      endloop
   endfacet
   facet normal -6.046186e-001 -7.965151e-001 0.000000e+000
      outer loop
         vertex 2.762829e+003 1.748689e+003 2.286000e+004
         vertex 2.762829e+003 1.748689e+003 0.000000e+000
         vertex 3.537000e+003 1.186221e+003 0.000000e+000
      endloop
   endfacet
   facet normal -5.706934e-001 -8.211632e-001 0.000000e+000
      outer loop
         vertex 2.762829e+003 1.748689e+003 2.286000e+004
         vertex 3.537000e+003 1.186221e+003 0.000000e+000
         vertex 3.537000e+003 1.186221e+003 2.286000e+004
      endloop
   endfacet
   facet normal -5.000213e-001 -8.660132e-001 0.000000e+000
      outer loop
         vertex 3.537000e+003 1.186221e+003 2.286000e+004
         vertex 3.537000e+003 1.186221e+003 0.000000e+000
         vertex 4.375562e+003 7.252178e+002 0.000000e+000
      endloop
   endfacet
   facet normal -4.632743e-001 -8.862150e-001 0.000000e+000
      outer loop
         vertex 3.537000e+003 1.186221e+003 2.286000e+004
         vertex 4.375562e+003 7.252178e+002 0.000000e+000
         vertex 4.375562e+003 7.252178e+002 2.286000e+004
      endloop
   endfacet
   facet normal -3.875382e-001 -9.218537e-001 0.000000e+000
      outer loop
         vertex 4.375562e+003 7.252178e+002 2.286000e+004
         vertex 4.375562e+003 7.252178e+002 0.000000e+000
         vertex 5.265290e+003 3.729491e+002 0.000000e+000
      endloop
   endfacet
   facet normal -3.485490e-001 -9.372905e-001 0.000000e+000
      outer loop
         vertex 4.375562e+003 7.252178e+002 2.286000e+004
         vertex 5.265290e+003 3.729491e+002 0.000000e+000
         vertex 5.265290e+003 3.729491e+002 2.286000e+004
      endloop
   endfacet
   facet normal -2.689435e-001 -9.631560e-001 0.000000e+000
      outer loop
         vertex 5.265290e+003 3.729491e+002 2.286000e+004
         vertex 5.265290e+003 3.729491e+002 0.000000e+000
         vertex 6.192154e+003 1.349711e+002 0.000000e+000
      endloop
   endfacet
   facet normal -2.283270e-001 -9.735845e-001 0.000000e+000
      outer loop
         vertex 5.265290e+003 3.729491e+002 2.286000e+004
         vertex 6.192154e+003 1.349711e+002 0.000000e+000
         vertex 6.192154e+003 1.349711e+002 2.286000e+004
      endloop
   endfacet
   facet normal -1.461073e-001 -9.892687e-001 0.000000e+000
      outer loop
         vertex 6.192154e+003 1.349711e+002 2.286000e+004
         vertex 6.192154e+003 1.349711e+002 0.000000e+000
         vertex 7.141536e+003 1.503611e+001 0.000000e+000
      endloop
   endfacet
   facet normal -1.045041e-001 -9.945244e-001 0.000000e+000
      outer loop
         vertex 6.192154e+003 1.349711e+002 2.286000e+004
         vertex 7.141536e+003 1.503611e+001 0.000000e+000
         vertex 7.141536e+003 1.503611e+001 2.286000e+004
      endloop
   endfacet
   facet normal -2.096695e-002 -9.997802e-001 0.000000e+000
      outer loop
         vertex 7.141536e+003 1.503611e+001 2.286000e+004
         vertex 7.141536e+003 1.503611e+001 0.000000e+000
         vertex 8.098464e+003 1.503611e+001 0.000000e+000
      endloop
   endfacet
   facet normal 2.096695e-002 -9.997802e-001 0.000000e+000
      outer loop
         vertex 7.141536e+003 1.503611e+001 2.286000e+004
         vertex 8.098464e+003 1.503611e+001 0.000000e+000
         vertex 8.098464e+003 1.503611e+001 2.286000e+004
      endloop
   endfacet
   facet normal 1.045041e-001 -9.945244e-001 0.000000e+000
      outer loop
         vertex 8.098464e+003 1.503611e+001 2.286000e+004
         vertex 8.098464e+003 1.503611e+001 0.000000e+000
         vertex 9.047846e+003 1.349711e+002 0.000000e+000
      endloop
   endfacet
   facet normal 1.461073e-001 -9.892687e-001 0.000000e+000
      outer loop
         vertex 8.098464e+003 1.503611e+001 2.286000e+004
         vertex 9.047846e+003 1.349711e+002 0.000000e+000
         vertex 9.047846e+003 1.349711e+002 2.286000e+004
      endloop
   endfacet
   facet normal 2.283270e-001 -9.735845e-001 0.000000e+000
      outer loop
         vertex 9.047846e+003 1.349711e+002 2.286000e+004
         vertex 9.047846e+003 1.349711e+002 0.000000e+000
         vertex 9.974710e+003 3.729491e+002 0.000000e+000
      endloop
   endfacet
   facet normal 2.689435e-001 -9.631560e-001 0.000000e+000
      outer loop
         vertex 9.047846e+003 1.349711e+002 2.286000e+004
         vertex 9.974710e+003 3.729491e+002 0.000000e+000
         vertex 9.974710e+003 3.729491e+002 2.286000e+004
      endloop
   endfacet
   facet normal 3.485490e-001 -9.372905e-001 0.000000e+000
      outer loop
         vertex 9.974710e+003 3.729491e+002 2.286000e+004
         vertex 9.974710e+003 3.729491e+002 0.000000e+000
         vertex 1.086444e+004 7.252178e+002 0.000000e+000
      endloop
   endfacet
   facet normal 3.875382e-001 -9.218537e-001 0.000000e+000
      outer loop
         vertex 9.974710e+003 3.729491e+002 2.286000e+004
         vertex 1.086444e+004 7.252178e+002 0.000000e+000
         vertex 1.086444e+004 7.252178e+002 2.286000e+004
      endloop
   endfacet
   facet normal 4.632743e-001 -8.862150e-001 0.000000e+000
      outer loop
         vertex 1.086444e+004 7.252178e+002 2.286000e+004
         vertex 1.086444e+004 7.252178e+002 0.000000e+000
         vertex 1.170300e+004 1.186221e+003 0.000000e+000
      endloop
   endfacet
   facet normal 5.000213e-001 -8.660132e-001 0.000000e+000
      outer loop
         vertex 1.086444e+004 7.252178e+002 2.286000e+004
         vertex 1.170300e+004 1.186221e+003 0.000000e+000
         vertex 1.170300e+004 1.186221e+003 2.286000e+004
      endloop
   endfacet
   facet normal 5.706934e-001 -8.211632e-001 0.000000e+000
      outer loop
         vertex 1.170300e+004 1.186221e+003 2.286000e+004
         vertex 1.170300e+004 1.186221e+003 0.000000e+000
         vertex 1.247717e+004 1.748689e+003 0.000000e+000
      endloop
   endfacet
   facet normal 6.046186e-001 -7.965151e-001 0.000000e+000
      outer loop
         vertex 1.170300e+004 1.186221e+003 2.286000e+004
         vertex 1.247717e+004 1.748689e+003 0.000000e+000
         vertex 1.247717e+004 1.748689e+003 2.286000e+004
      endloop
   endfacet
   facet normal 6.691124e-001 -7.431613e-001 0.000000e+000
      outer loop
         vertex 1.247717e+004 1.748689e+003 2.286000e+004
         vertex 1.247717e+004 1.748689e+003 0.000000e+000
         vertex 1.317474e+004 2.403751e+003 0.000000e+000
      endloop
   endfacet
   facet normal 6.996809e-001 -7.144555e-001 0.000000e+000
      outer loop
         vertex 1.247717e+004 1.748689e+003 2.286000e+004
         vertex 1.317474e+004 2.403751e+003 0.000000e+000
         vertex 1.317474e+004 2.403751e+003 2.286000e+004
      endloop
   endfacet
   facet normal 7.569790e-001 -6.534392e-001 0.000000e+000
      outer loop
         vertex 1.317474e+004 2.403751e+003 2.286000e+004
         vertex 1.317474e+004 2.403751e+003 0.000000e+000
         vertex 1.378471e+004 3.141076e+003 0.000000e+000
      endloop
   endfacet
   facet normal 7.837087e-001 -6.211286e-001 0.000000e+000
      outer loop
         vertex 1.317474e+004 2.403751e+003 2.286000e+004
         vertex 1.378471e+004 3.141076e+003 0.000000e+000
         vertex 1.378471e+004 3.141076e+003 2.286000e+004
      endloop
   endfacet
   facet normal 8.329076e-001 -5.534120e-001 0.000000e+000
      outer loop
         vertex 1.378471e+004 3.141076e+003 2.286000e+004
         vertex 1.378471e+004 3.141076e+003 0.000000e+000
         vertex 1.429746e+004 3.949037e+003 0.000000e+000
      endloop
   endfacet
   facet normal 8.553770e-001 -5.180060e-001 0.000000e+000
      outer loop
         vertex 1.378471e+004 3.141076e+003 2.286000e+004
         vertex 1.429746e+004 3.949037e+003 0.000000e+000
         vertex 1.429746e+004 3.949037e+003 2.286000e+004
      endloop
   endfacet
   facet normal 8.957008e-001 -4.446571e-001 0.000000e+000
      outer loop
         vertex 1.429746e+004 3.949037e+003 2.286000e+004
         vertex 1.429746e+004 3.949037e+003 0.000000e+000
         vertex 1.470490e+004 4.814891e+003 0.000000e+000
      endloop
   endfacet
   facet normal 9.135554e-001 -4.067142e-001 0.000000e+000
      outer loop
         vertex 1.429746e+004 3.949037e+003 2.286000e+004
         vertex 1.470490e+004 4.814891e+003 0.000000e+000
         vertex 1.470490e+004 4.814891e+003 2.286000e+004
      endloop
   endfacet
   facet normal 9.443683e-001 -3.288898e-001 0.000000e+000
      outer loop
         vertex 1.470490e+004 4.814891e+003 2.286000e+004
         vertex 1.470490e+004 4.814891e+003 0.000000e+000
         vertex 1.500060e+004 5.724983e+003 0.000000e+000
      endloop
   endfacet
   facet normal 9.573266e-001 -2.890083e-001 0.000000e+000
      outer loop
         vertex 1.470490e+004 4.814891e+003 2.286000e+004
         vertex 1.500060e+004 5.724983e+003 0.000000e+000
         vertex 1.500060e+004 5.724983e+003 2.286000e+004
      endloop
   endfacet
   facet normal 9.781425e-001 -2.079357e-001 0.000000e+000
      outer loop
         vertex 1.500060e+004 5.724983e+003 2.286000e+004
         vertex 1.500060e+004 5.724983e+003 0.000000e+000
         vertex 1.517991e+004 6.664961e+003 0.000000e+000
      endloop
   endfacet
   facet normal 9.860001e-001 -1.667446e-001 0.000000e+000
      outer loop
         vertex 1.500060e+004 5.724983e+003 2.286000e+004
         vertex 1.517991e+004 6.664961e+003 0.000000e+000
         vertex 1.517991e+004 6.664961e+003 2.286000e+004
      endloop
   endfacet
   facet normal 9.964908e-001 -8.370229e-002 0.000000e+000
      outer loop
         vertex 1.517991e+004 6.664961e+003 2.286000e+004
         vertex 1.517991e+004 6.664961e+003 0.000000e+000
         vertex 1.524000e+004 7.620000e+003 0.000000e+000
      endloop
   endfacet
   facet normal 9.991238e-001 -4.185114e-002 0.000000e+000
      outer loop
         vertex 1.517991e+004 6.664961e+003 2.286000e+004
         vertex 1.524000e+004 7.620000e+003 0.000000e+000
         vertex 1.524000e+004 7.620000e+003 2.286000e+004
      endloop
   endfacet
   facet normal 9.991238e-001 4.185114e-002 0.000000e+000
      outer loop
         vertex 1.524000e+004 7.620000e+003 2.286000e+004
         vertex 1.524000e+004 7.620000e+003 0.000000e+000
         vertex 1.517991e+004 8.575039e+003 0.000000e+000
      endloop
   endfacet
   facet normal 0.000000e+000 0.000000e+000 -1.000000e+000
      outer loop
         vertex 1.524000e+004 7.620000e+003 0.000000e+000
         vertex 1.517991e+004 6.664961e+003 0.000000e+000
         vertex 7.620000e+003 7.620000e+003 0.000000e+000
      endloop
   endfacet
   facet normal 0.000000e+000 0.000000e+000 -1.000000e+000
      outer loop
         vertex 1.524000e+004 7.620000e+003 0.000000e+000
         vertex 7.620000e+003 7.620000e+003 0.000000e+000
         vertex 1.517991e+004 8.575039e+003 0.000000e+000
      endloop
   endfacet
   facet normal 0.000000e+000 0.000000e+000 -1.000000e+000
      outer loop
         vertex 1.429746e+004 1.129096e+004 0.000000e+000
         vertex 1.470490e+004 1.042511e+004 0.000000e+000
         vertex 7.620000e+003 7.620000e+003 0.000000e+000
      endloop
   endfacet
   facet normal 0.000000e+000 0.000000e+000 -1.000000e+000
      outer loop
         vertex 7.620000e+003 7.620000e+003 0.000000e+000
         vertex 1.470490e+004 1.042511e+004 0.000000e+000
         vertex 1.500060e+004 9.515017e+003 0.000000e+000
      endloop
   endfacet
   facet normal 0.000000e+000 0.000000e+000 -1.000000e+000
      outer loop
         vertex 7.620000e+003 7.620000e+003 0.000000e+000
         vertex 1.500060e+004 9.515017e+003 0.000000e+000
         vertex 1.517991e+004 8.575039e+003 0.000000e+000
      endloop
   endfacet
   facet normal 0.000000e+000 0.000000e+000 -1.000000e+000
      outer loop
         vertex 1.247717e+004 1.349131e+004 0.000000e+000
         vertex 1.317474e+004 1.283625e+004 0.000000e+000
         vertex 7.620000e+003 7.620000e+003 0.000000e+000
      endloop
   endfacet
   facet normal 0.000000e+000 0.000000e+000 -1.000000e+000
      outer loop
         vertex 7.620000e+003 7.620000e+003 0.000000e+000
         vertex 1.317474e+004 1.283625e+004 0.000000e+000
         vertex 1.378471e+004 1.209892e+004 0.000000e+000
      endloop
   endfacet
   facet normal 0.000000e+000 0.000000e+000 -1.000000e+000
      outer loop
         vertex 7.620000e+003 7.620000e+003 0.000000e+000
         vertex 1.378471e+004 1.209892e+004 0.000000e+000
         vertex 1.429746e+004 1.129096e+004 0.000000e+000
      endloop
   endfacet
   facet normal 0.000000e+000 0.000000e+000 -1.000000e+000
      outer loop
         vertex 9.974710e+003 1.486705e+004 0.000000e+000
         vertex 1.086444e+004 1.451478e+004 0.000000e+000
         vertex 7.620000e+003 7.620000e+003 0.000000e+000
      endloop
   endfacet
   facet normal 0.000000e+000 0.000000e+000 -1.000000e+000
      outer loop
         vertex 7.620000e+003 7.620000e+003 0.000000e+000
         vertex 1.086444e+004 1.451478e+004 0.000000e+000
         vertex 1.170300e+004 1.405378e+004 0.000000e+000
      endloop
   endfacet
   facet normal 0.000000e+000 0.000000e+000 -1.000000e+000
      outer loop
         vertex 7.620000e+003 7.620000e+003 0.000000e+000
         vertex 1.170300e+004 1.405378e+004 0.000000e+000
         vertex 1.247717e+004 1.349131e+004 0.000000e+000
      endloop
   endfacet
   facet normal 0.000000e+000 0.000000e+000 -1.000000e+000
      outer loop
         vertex 7.141536e+003 1.522496e+004 0.000000e+000
         vertex 8.098464e+003 1.522496e+004 0.000000e+000
         vertex 7.620000e+003 7.620000e+003 0.000000e+000
      endloop
   endfacet
   facet normal 0.000000e+000 0.000000e+000 -1.000000e+000
      outer loop
         vertex 7.620000e+003 7.620000e+003 0.000000e+000
         vertex 8.098464e+003 1.522496e+004 0.000000e+000
         vertex 9.047846e+003 1.510503e+004 0.000000e+000
      endloop
   endfacet
   facet normal 0.000000e+000 0.000000e+000 -1.000000e+000
      outer loop
         vertex 7.620000e+003 7.620000e+003 0.000000e+000
         vertex 9.047846e+003 1.510503e+004 0.000000e+000
         vertex 9.974710e+003 1.486705e+004 0.000000e+000
      endloop
   endfacet
   facet normal 0.000000e+000 0.000000e+000 -1.000000e+000
      outer loop
         vertex 4.375562e+003 1.451478e+004 0.000000e+000
         vertex 5.265290e+003 1.486705e+004 0.000000e+000
         vertex 7.620000e+003 7.620000e+003 0.000000e+000
      endloop
   endfacet
   facet normal 0.000000e+000 0.000000e+000 -1.000000e+000
      outer loop
         vertex 7.620000e+003 7.620000e+003 0.000000e+000
         vertex 5.265290e+003 1.486705e+004 0.000000e+000
         vertex 6.192154e+003 1.510503e+004 0.000000e+000
      endloop
   endfacet
   facet normal 0.000000e+000 0.000000e+000 -1.000000e+000
      outer loop
         vertex 7.620000e+003 7.620000e+003 0.000000e+000
         vertex 6.192154e+003 1.510503e+004 0.000000e+000
         vertex 7.141536e+003 1.522496e+004 0.000000e+000
      endloop
   endfacet
   facet normal 0.000000e+000 0.000000e+000 -1.000000e+000
      outer loop
         vertex 2.065259e+003 1.283625e+004 0.000000e+000
         vertex 2.762829e+003 1.349131e+004 0.000000e+000
         vertex 7.620000e+003 7.620000e+003 0.000000e+000
      endloop
   endfacet
   facet normal 0.000000e+000 0.000000e+000 -1.000000e+000
      outer loop
         vertex 7.620000e+003 7.620000e+003 0.000000e+000
         vertex 2.762829e+003 1.349131e+004 0.000000e+000
         vertex 3.537000e+003 1.405378e+004 0.000000e+000
      endloop
   endfacet
   facet normal 0.000000e+000 0.000000e+000 -1.000000e+000
      outer loop
         vertex 7.620000e+003 7.620000e+003 0.000000e+000
         vertex 3.537000e+003 1.405378e+004 0.000000e+000
         vertex 4.375562e+003 1.451478e+004 0.000000e+000
      endloop
   endfacet
   facet normal 0.000000e+000 0.000000e+000 -1.000000e+000
      outer loop
         vertex 5.351028e+002 1.042511e+004 0.000000e+000
         vertex 9.425430e+002 1.129096e+004 0.000000e+000
         vertex 7.620000e+003 7.620000e+003 0.000000e+000
      endloop
   endfacet
   facet normal 0.000000e+000 0.000000e+000 -1.000000e+000
      outer loop
         vertex 7.620000e+003 7.620000e+003 0.000000e+000
         vertex 9.425430e+002 1.129096e+004 0.000000e+000
         vertex 1.455290e+003 1.209892e+004 0.000000e+000
      endloop
   endfacet
   facet normal 0.000000e+000 0.000000e+000 -1.000000e+000
      outer loop
         vertex 7.620000e+003 7.620000e+003 0.000000e+000
         vertex 1.455290e+003 1.209892e+004 0.000000e+000
         vertex 2.065259e+003 1.283625e+004 0.000000e+000
      endloop
   endfacet
   facet normal 0.000000e+000 0.000000e+000 -1.000000e+000
      outer loop
         vertex 0.000000e+000 7.620000e+003 0.000000e+000
         vertex 6.008577e+001 8.575039e+003 0.000000e+000
         vertex 7.620000e+003 7.620000e+003 0.000000e+000
      endloop
   endfacet
   facet normal 0.000000e+000 0.000000e+000 -1.000000e+000
      outer loop
         vertex 7.620000e+003 7.620000e+003 0.000000e+000
         vertex 6.008577e+001 8.575039e+003 0.000000e+000
         vertex 2.393961e+002 9.515017e+003 0.000000e+000
      endloop
   endfacet
   facet normal 0.000000e+000 0.000000e+000 -1.000000e+000
      outer loop
         vertex 7.620000e+003 7.620000e+003 0.000000e+000
         vertex 2.393961e+002 9.515017e+003 0.000000e+000
         vertex 5.351028e+002 1.042511e+004 0.000000e+000
      endloop
   endfacet
   facet normal 0.000000e+000 0.000000e+000 -1.000000e+000
      outer loop
         vertex 5.351028e+002 4.814891e+003 0.000000e+000
         vertex 2.393961e+002 5.724983e+003 0.000000e+000
         vertex 7.620000e+003 7.620000e+003 0.000000e+000
      endloop
   endfacet
   facet normal 0.000000e+000 0.000000e+000 -1.000000e+000
      outer loop
         vertex 7.620000e+003 7.620000e+003 0.000000e+000
         vertex 2.393961e+002 5.724983e+003 0.000000e+000
         vertex 6.008577e+001 6.664961e+003 0.000000e+000
      endloop
   endfacet
   facet normal 0.000000e+000 0.000000e+000 -1.000000e+000
      outer loop
         vertex 7.620000e+003 7.620000e+003 0.000000e+000
         vertex 6.008577e+001 6.664961e+003 0.000000e+000
         vertex 0.000000e+000 7.620000e+003 0.000000e+000
      endloop
   endfacet
   facet normal 0.000000e+000 0.000000e+000 -1.000000e+000
      outer loop
         vertex 2.065259e+003 2.403751e+003 0.000000e+000
         vertex 1.455290e+003 3.141076e+003 0.000000e+000
         vertex 7.620000e+003 7.620000e+003 0.000000e+000
      endloop
   endfacet
   facet normal 0.000000e+000 0.000000e+000 -1.000000e+000
      outer loop
         vertex 7.620000e+003 7.620000e+003 0.000000e+000
         vertex 1.455290e+003 3.141076e+003 0.000000e+000
         vertex 9.425430e+002 3.949037e+003 0.000000e+000
      endloop
   endfacet
   facet normal 0.000000e+000 0.000000e+000 -1.000000e+000
      outer loop
         vertex 7.620000e+003 7.620000e+003 0.000000e+000
         vertex 9.425430e+002 3.949037e+003 0.000000e+000
         vertex 5.351028e+002 4.814891e+003 0.000000e+000
      endloop
   endfacet
   facet normal 0.000000e+000 0.000000e+000 -1.000000e+000
      outer loop
         vertex 4.375562e+003 7.252178e+002 0.000000e+000
         vertex 3.537000e+003 1.186221e+003 0.000000e+000
         vertex 7.620000e+003 7.620000e+003 0.000000e+000
      endloop
   endfacet
   facet normal 0.000000e+000 0.000000e+000 -1.000000e+000
      outer loop
         vertex 7.620000e+003 7.620000e+003 0.000000e+000
         vertex 3.537000e+003 1.186221e+003 0.000000e+000
         vertex 2.762829e+003 1.748689e+003 0.000000e+000
      endloop
   endfacet
   facet normal 0.000000e+000 0.000000e+000 -1.000000e+000
      outer loop
         vertex 7.620000e+003 7.620000e+003 0.000000e+000
         vertex 2.762829e+003 1.748689e+003 0.000000e+000
         vertex 2.065259e+003 2.403751e+003 0.000000e+000
      endloop
   endfacet
   facet normal 0.000000e+000 0.000000e+000 -1.000000e+000
      outer loop
         vertex 7.141536e+003 1.503611e+001 0.000000e+000
         vertex 6.192154e+003 1.349711e+002 0.000000e+000
         vertex 7.620000e+003 7.620000e+003 0.000000e+000
      endloop
   endfacet
   facet normal 0.000000e+000 0.000000e+000 -1.000000e+000
      outer loop
         vertex 7.620000e+003 7.620000e+003 0.000000e+000
         vertex 6.192154e+003 1.349711e+002 0.000000e+000
         vertex 5.265290e+003 3.729491e+002 0.000000e+000
      endloop
   endfacet
   facet normal 0.000000e+000 0.000000e+000 -1.000000e+000
      outer loop
         vertex 7.620000e+003 7.620000e+003 0.000000e+000
         vertex 5.265290e+003 3.729491e+002 0.000000e+000
         vertex 4.375562e+003 7.252178e+002 0.000000e+000
      endloop
   endfacet
   facet normal 0.000000e+000 0.000000e+000 -1.000000e+000
      outer loop
         vertex 9.974710e+003 3.729491e+002 0.000000e+000
         vertex 9.047846e+003 1.349711e+002 0.000000e+000
         vertex 7.620000e+003 7.620000e+003 0.000000e+000
      endloop
   endfacet
   facet normal 0.000000e+000 0.000000e+000 -1.000000e+000
      outer loop
         vertex 7.620000e+003 7.620000e+003 0.000000e+000
         vertex 9.047846e+003 1.349711e+002 0.000000e+000
         vertex 8.098464e+003 1.503611e+001 0.000000e+000
      endloop
   endfacet
   facet normal 0.000000e+000 0.000000e+000 -1.000000e+000
      outer loop
         vertex 7.620000e+003 7.620000e+003 0.000000e+000
         vertex 8.098464e+003 1.503611e+001 0.000000e+000
         vertex 7.141536e+003 1.503611e+001 0.000000e+000
      endloop
   endfacet
   facet normal 0.000000e+000 0.000000e+000 -1.000000e+000
      outer loop
         vertex 1.247717e+004 1.748689e+003 0.000000e+000
         vertex 1.170300e+004 1.186221e+003 0.000000e+000
         vertex 7.620000e+003 7.620000e+003 0.000000e+000
      endloop
   endfacet
   facet normal 0.000000e+000 0.000000e+000 -1.000000e+000
      outer loop
         vertex 7.620000e+003 7.620000e+003 0.000000e+000
         vertex 1.170300e+004 1.186221e+003 0.000000e+000
         vertex 1.086444e+004 7.252178e+002 0.000000e+000
      endloop
   endfacet
   facet normal 0.000000e+000 0.000000e+000 -1.000000e+000
      outer loop
         vertex 7.620000e+003 7.620000e+003 0.000000e+000
         vertex 1.086444e+004 7.252178e+002 0.000000e+000
         vertex 9.974710e+003 3.729491e+002 0.000000e+000
      endloop
   endfacet
   facet normal 0.000000e+000 0.000000e+000 -1.000000e+000
      outer loop
         vertex 1.429746e+004 3.949037e+003 0.000000e+000
         vertex 1.378471e+004 3.141076e+003 0.000000e+000
         vertex 7.620000e+003 7.620000e+003 0.000000e+000
      endloop
   endfacet
   facet normal 0.000000e+000 0.000000e+000 -1.000000e+000
      outer loop
         vertex 7.620000e+003 7.620000e+003 0.000000e+000
         vertex 1.378471e+004 3.141076e+003 0.000000e+000
         vertex 1.317474e+004 2.403751e+003 0.000000e+000
      endloop
   endfacet
   facet normal 0.000000e+000 0.000000e+000 -1.000000e+000
      outer loop
         vertex 7.620000e+003 7.620000e+003 0.000000e+000
         vertex 1.317474e+004 2.403751e+003 0.000000e+000
         vertex 1.247717e+004 1.748689e+003 0.000000e+000
      endloop
   endfacet
   facet normal 0.000000e+000 0.000000e+000 -1.000000e+000
      outer loop
         vertex 1.517991e+004 6.664961e+003 0.000000e+000
         vertex 1.500060e+004 5.724983e+003 0.000000e+000
         vertex 7.620000e+003 7.620000e+003 0.000000e+000
      endloop
   endfacet
   facet normal 0.000000e+000 0.000000e+000 -1.000000e+000
      outer loop
         vertex 7.620000e+003 7.620000e+003 0.000000e+000
         vertex 1.500060e+004 5.724983e+003 0.000000e+000
         vertex 1.470490e+004 4.814891e+003 0.000000e+000
      endloop
   endfacet
   facet normal 0.000000e+000 0.000000e+000 -1.000000e+000
      outer loop
         vertex 7.620000e+003 7.620000e+003 0.000000e+000
         vertex 1.470490e+004 4.814891e+003 0.000000e+000
         vertex 1.429746e+004 3.949037e+003 0.000000e+000
      endloop
   endfacet
   facet normal 0.000000e+000 0.000000e+000 1.000000e+000
      outer loop
         vertex 1.524000e+004 7.620000e+003 2.286000e+004
         vertex 1.517991e+004 8.575039e+003 2.286000e+004
         vertex 7.620000e+003 7.620000e+003 2.286000e+004
      endloop
   endfacet
   facet normal 0.000000e+000 0.000000e+000 1.000000e+000
      outer loop
         vertex 1.524000e+004 7.620000e+003 2.286000e+004
         vertex 7.620000e+003 7.620000e+003 2.286000e+004
         vertex 1.517991e+004 6.664961e+003 2.286000e+004
      endloop
   endfacet
   facet normal 0.000000e+000 0.000000e+000 1.000000e+000
      outer loop
         vertex 1.429746e+004 3.949037e+003 2.286000e+004
         vertex 1.470490e+004 4.814891e+003 2.286000e+004
         vertex 7.620000e+003 7.620000e+003 2.286000e+004
      endloop
   endfacet
   facet normal 0.000000e+000 0.000000e+000 1.000000e+000
      outer loop
         vertex 7.620000e+003 7.620000e+003 2.286000e+004
         vertex 1.470490e+004 4.814891e+003 2.286000e+004
         vertex 1.500060e+004 5.724983e+003 2.286000e+004
      endloop
   endfacet
   facet normal 0.000000e+000 0.000000e+000 1.000000e+000
      outer loop
         vertex 7.620000e+003 7.620000e+003 2.286000e+004
         vertex 1.500060e+004 5.724983e+003 2.286000e+004
         vertex 1.517991e+004 6.664961e+003 2.286000e+004
      endloop
   endfacet
   facet normal 0.000000e+000 0.000000e+000 1.000000e+000
      outer loop
         vertex 1.247717e+004 1.748689e+003 2.286000e+004
         vertex 1.317474e+004 2.403751e+003 2.286000e+004
         vertex 7.620000e+003 7.620000e+003 2.286000e+004
      endloop
   endfacet
   facet normal 0.000000e+000 0.000000e+000 1.000000e+000
      outer loop
         vertex 7.620000e+003 7.620000e+003 2.286000e+004
         vertex 1.317474e+004 2.403751e+003 2.286000e+004
         vertex 1.378471e+004 3.141076e+003 2.286000e+004
      endloop
   endfacet
   facet normal 0.000000e+000 0.000000e+000 1.000000e+000
      outer loop
         vertex 7.620000e+003 7.620000e+003 2.286000e+004
         vertex 1.378471e+004 3.141076e+003 2.286000e+004
         vertex 1.429746e+004 3.949037e+003 2.286000e+004
      endloop
   endfacet
   facet normal 0.000000e+000 0.000000e+000 1.000000e+000
      outer loop
         vertex 9.974710e+003 3.729491e+002 2.286000e+004
         vertex 1.086444e+004 7.252178e+002 2.286000e+004
         vertex 7.620000e+003 7.620000e+003 2.286000e+004
      endloop
   endfacet
   facet normal 0.000000e+000 0.000000e+000 1.000000e+000
      outer loop
         vertex 7.620000e+003 7.620000e+003 2.286000e+004
         vertex 1.086444e+004 7.252178e+002 2.286000e+004
         vertex 1.170300e+004 1.186221e+003 2.286000e+004
      endloop
   endfacet
   facet normal 0.000000e+000 0.000000e+000 1.000000e+000
      outer loop
         vertex 7.620000e+003 7.620000e+003 2.286000e+004
         vertex 1.170300e+004 1.186221e+003 2.286000e+004
         vertex 1.247717e+004 1.748689e+003 2.286000e+004
      endloop
   endfacet
   facet normal 0.000000e+000 0.000000e+000 1.000000e+000
      outer loop
         vertex 7.141536e+003 1.503611e+001 2.286000e+004
         vertex 8.098464e+003 1.503611e+001 2.286000e+004
         vertex 7.620000e+003 7.620000e+003 2.286000e+004
      endloop
   endfacet
   facet normal 0.000000e+000 0.000000e+000 1.000000e+000
      outer loop
         vertex 7.620000e+003 7.620000e+003 2.286000e+004
         vertex 8.098464e+003 1.503611e+001 2.286000e+004
         vertex 9.047846e+003 1.349711e+002 2.286000e+004
      endloop
   endfacet
   facet normal 0.000000e+000 0.000000e+000 1.000000e+000
      outer loop
         vertex 7.620000e+003 7.620000e+003 2.286000e+004
         vertex 9.047846e+003 1.349711e+002 2.286000e+004
         vertex 9.974710e+003 3.729491e+002 2.286000e+004
      endloop
   endfacet
   facet normal 0.000000e+000 0.000000e+000 1.000000e+000
      outer loop
         vertex 4.375562e+003 7.252178e+002 2.286000e+004
         vertex 5.265290e+003 3.729491e+002 2.286000e+004
         vertex 7.620000e+003 7.620000e+003 2.286000e+004
      endloop
   endfacet
   facet normal 0.000000e+000 0.000000e+000 1.000000e+000
      outer loop
         vertex 7.620000e+003 7.620000e+003 2.286000e+004
         vertex 5.265290e+003 3.729491e+002 2.286000e+004
         vertex 6.192154e+003 1.349711e+002 2.286000e+004
      endloop
   endfacet
   facet normal 0.000000e+000 0.000000e+000 1.000000e+000
      outer loop
         vertex 7.620000e+003 7.620000e+003 2.286000e+004
         vertex 6.192154e+003 1.349711e+002 2.286000e+004
         vertex 7.141536e+003 1.503611e+001 2.286000e+004
      endloop
   endfacet
   facet normal 0.000000e+000 0.000000e+000 1.000000e+000
      outer loop
         vertex 2.065259e+003 2.403751e+003 2.286000e+004
         vertex 2.762829e+003 1.748689e+003 2.286000e+004
         vertex 7.620000e+003 7.620000e+003 2.286000e+004
      endloop
   endfacet
   facet normal 0.000000e+000 0.000000e+000 1.000000e+000
      outer loop
         vertex 7.620000e+003 7.620000e+003 2.286000e+004
         vertex 2.762829e+003 1.748689e+003 2.286000e+004
         vertex 3.537000e+003 1.186221e+003 2.286000e+004
      endloop
   endfacet
   facet normal 0.000000e+000 0.000000e+000 1.000000e+000
      outer loop
         vertex 7.620000e+003 7.620000e+003 2.286000e+004
         vertex 3.537000e+003 1.186221e+003 2.286000e+004
         vertex 4.375562e+003 7.252178e+002 2.286000e+004
      endloop
   endfacet
   facet normal 0.000000e+000 0.000000e+000 1.000000e+000
      outer loop
         vertex 5.351028e+002 4.814891e+003 2.286000e+004
         vertex 9.425430e+002 3.949037e+003 2.286000e+004
         vertex 7.620000e+003 7.620000e+003 2.286000e+004
      endloop
   endfacet
   facet normal 0.000000e+000 0.000000e+000 1.000000e+000
      outer loop
         vertex 7.620000e+003 7.620000e+003 2.286000e+004
         vertex 9.425430e+002 3.949037e+003 2.286000e+004
         vertex 1.455290e+003 3.141076e+003 2.286000e+004
      endloop
   endfacet
   facet normal 0.000000e+000 0.000000e+000 1.000000e+000
      outer loop
         vertex 7.620000e+003 7.620000e+003 2.286000e+004
         vertex 1.455290e+003 3.141076e+003 2.286000e+004
         vertex 2.065259e+003 2.403751e+003 2.286000e+004
      endloop
   endfacet
   facet normal 0.000000e+000 0.000000e+000 1.000000e+000
      outer loop
         vertex 0.000000e+000 7.620000e+003 2.286000e+004
         vertex 6.008577e+001 6.664961e+003 2.286000e+004
         vertex 7.620000e+003 7.620000e+003 2.286000e+004
      endloop
   endfacet
   facet normal 0.000000e+000 0.000000e+000 1.000000e+000
      outer loop
         vertex 7.620000e+003 7.620000e+003 2.286000e+004
         vertex 6.008577e+001 6.664961e+003 2.286000e+004
         vertex 2.393961e+002 5.724983e+003 2.286000e+004
      endloop
   endfacet
   facet normal 0.000000e+000 0.000000e+000 1.000000e+000
      outer loop
         vertex 7.620000e+003 7.620000e+003 2.286000e+004
         vertex 2.393961e+002 5.724983e+003 2.286000e+004
         vertex 5.351028e+002 4.814891e+003 2.286000e+004
      endloop
   endfacet
   facet normal 0.000000e+000 0.000000e+000 1.000000e+000
      outer loop
         vertex 5.351028e+002 1.042511e+004 2.286000e+004
         vertex 2.393961e+002 9.515017e+003 2.286000e+004
         vertex 7.620000e+003 7.620000e+003 2.286000e+004
      endloop
   endfacet
   facet normal 0.000000e+000 0.000000e+000 1.000000e+000
      outer loop
         vertex 7.620000e+003 7.620000e+003 2.286000e+004
         vertex 2.393961e+002 9.515017e+003 2.286000e+004
         vertex 6.008577e+001 8.575039e+003 2.286000e+004
      endloop
   endfacet
   facet normal 0.000000e+000 0.000000e+000 1.000000e+000
      outer loop
         vertex 7.620000e+003 7.620000e+003 2.286000e+004
         vertex 6.008577e+001 8.575039e+003 2.286000e+004
         vertex 0.000000e+000 7.620000e+003 2.286000e+004
      endloop
   endfacet
   facet normal 0.000000e+000 0.000000e+000 1.000000e+000
      outer loop
         vertex 2.065259e+003 1.283625e+004 2.286000e+004
         vertex 1.455290e+003 1.209892e+004 2.286000e+004
         vertex 7.620000e+003 7.620000e+003 2.286000e+004
      endloop
   endfacet
   facet normal 0.000000e+000 0.000000e+000 1.000000e+000
      outer loop
         vertex 7.620000e+003 7.620000e+003 2.286000e+004
         vertex 1.455290e+003 1.209892e+004 2.286000e+004
         vertex 9.425430e+002 1.129096e+004 2.286000e+004
      endloop
   endfacet
   facet normal 0.000000e+000 0.000000e+000 1.000000e+000
      outer loop
         vertex 7.620000e+003 7.620000e+003 2.286000e+004
         vertex 9.425430e+002 1.129096e+004 2.286000e+004
         vertex 5.351028e+002 1.042511e+004 2.286000e+004
      endloop
   endfacet
   facet normal 0.000000e+000 0.000000e+000 1.000000e+000
      outer loop
         vertex 4.375562e+003 1.451478e+004 2.286000e+004
         vertex 3.537000e+003 1.405378e+004 2.286000e+004
         vertex 7.620000e+003 7.620000e+003 2.286000e+004
      endloop
   endfacet
   facet normal 0.000000e+000 0.000000e+000 1.000000e+000
      outer loop
         vertex 7.620000e+003 7.620000e+003 2.286000e+004
         vertex 3.537000e+003 1.405378e+004 2.286000e+004
         vertex 2.762829e+003 1.349131e+004 2.286000e+004
      endloop
   endfacet
   facet normal 0.000000e+000 0.000000e+000 1.000000e+000
      outer loop
         vertex 7.620000e+003 7.620000e+003 2.286000e+004
         vertex 2.762829e+003 1.349131e+004 2.286000e+004
         vertex 2.065259e+003 1.283625e+004 2.286000e+004
      endloop
   endfacet
   facet normal 0.000000e+000 0.000000e+000 1.000000e+000
      outer loop
         vertex 7.141536e+003 1.522496e+004 2.286000e+004
         vertex 6.192154e+003 1.510503e+004 2.286000e+004
         vertex 7.620000e+003 7.620000e+003 2.286000e+004
      endloop
   endfacet
   facet normal 0.000000e+000 0.000000e+000 1.000000e+000
      outer loop
         vertex 7.620000e+003 7.620000e+003 2.286000e+004
         vertex 6.192154e+003 1.510503e+004 2.286000e+004
         vertex 5.265290e+003 1.486705e+004 2.286000e+004
      endloop
   endfacet
   facet normal 0.000000e+000 0.000000e+000 1.000000e+000
      outer loop
         vertex 7.620000e+003 7.620000e+003 2.286000e+004
         vertex 5.265290e+003 1.486705e+004 2.286000e+004
         vertex 4.375562e+003 1.451478e+004 2.286000e+004
      endloop
   endfacet
   facet normal 0.000000e+000 0.000000e+000 1.000000e+000
      outer loop
         vertex 9.974710e+003 1.486705e+004 2.286000e+004
         vertex 9.047846e+003 1.510503e+004 2.286000e+004
         vertex 7.620000e+003 7.620000e+003 2.286000e+004
      endloop
   endfacet
   facet normal 0.000000e+000 0.000000e+000 1.000000e+000
      outer loop
         vertex 7.620000e+003 7.620000e+003 2.286000e+004
         vertex 9.047846e+003 1.510503e+004 2.286000e+004
         vertex 8.098464e+003 1.522496e+004 2.286000e+004
      endloop
   endfacet
   facet normal 0.000000e+000 0.000000e+000 1.000000e+000
      outer loop
         vertex 7.620000e+003 7.620000e+003 2.286000e+004
         vertex 8.098464e+003 1.522496e+004 2.286000e+004
         vertex 7.141536e+003 1.522496e+004 2.286000e+004
      endloop
   endfacet
   facet normal 0.000000e+000 0.000000e+000 1.000000e+000
      outer loop
         vertex 1.247717e+004 1.349131e+004 2.286000e+004
         vertex 1.170300e+004 1.405378e+004 2.286000e+004
         vertex 7.620000e+003 7.620000e+003 2.286000e+004
      endloop
   endfacet
   facet normal 0.000000e+000 0.000000e+000 1.000000e+000
      outer loop
         vertex 7.620000e+003 7.620000e+003 2.286000e+004
         vertex 1.170300e+004 1.405378e+004 2.286000e+004
         vertex 1.086444e+004 1.451478e+004 2.286000e+004
      endloop
   endfacet
   facet normal 0.000000e+000 0.000000e+000 1.000000e+000
      outer loop
         vertex 7.620000e+003 7.620000e+003 2.286000e+004
         vertex 1.086444e+004 1.451478e+004 2.286000e+004
         vertex 9.974710e+003 1.486705e+004 2.286000e+004
      endloop
   endfacet
   facet normal 0.000000e+000 0.000000e+000 1.000000e+000
      outer loop
         vertex 1.429746e+004 1.129096e+004 2.286000e+004
         vertex 1.378471e+004 1.209892e+004 2.286000e+004
         vertex 7.620000e+003 7.620000e+003 2.286000e+004
      endloop
   endfacet
   facet normal 0.000000e+000 0.000000e+000 1.000000e+000
      outer loop
         vertex 7.620000e+003 7.620000e+003 2.286000e+004
         vertex 1.378471e+004 1.209892e+004 2.286000e+004
         vertex 1.317474e+004 1.283625e+004 2.286000e+004
      endloop
   endfacet
   facet normal 0.000000e+000 0.000000e+000 1.000000e+000
      outer loop
         vertex 7.620000e+003 7.620000e+003 2.286000e+004
         vertex 1.317474e+004 1.283625e+004 2.286000e+004
         vertex 1.247717e+004 1.349131e+004 2.286000e+004
      endloop
   endfacet
   facet normal 0.000000e+000 0.000000e+000 1.000000e+000
      outer loop
         vertex 1.517991e+004 8.575039e+003 2.286000e+004
         vertex 1.500060e+004 9.515017e+003 2.286000e+004
         vertex 7.620000e+003 7.620000e+003 2.286000e+004
      endloop
   endfacet
   facet normal 0.000000e+000 0.000000e+000 1.000000e+000
      outer loop
         vertex 7.620000e+003 7.620000e+003 2.286000e+004
         vertex 1.500060e+004 9.515017e+003 2.286000e+004
         vertex 1.470490e+004 1.042511e+004 2.286000e+004
      endloop
   endfacet
   facet normal 0.000000e+000 0.000000e+000 1.000000e+000
      outer loop
         vertex 7.620000e+003 7.620000e+003 2.286000e+004
         vertex 1.470490e+004 1.042511e+004 2.286000e+004
         vertex 1.429746e+004 1.129096e+004 2.286000e+004
      endloop
   endfacet
endsolid