solid link_03
   facet normal -1.249001e-016 0.000000e+000 -1.000000e+000
      outer loop
         vertex 0.000000e+000 1.500000e+002 0.000000e+000
         vertex 5.000000e+002 1.500000e+002 0.000000e+000
         vertex 0.000000e+000 0.000000e+000 0.000000e+000
      endloop
   endfacet
   facet normal -1.249001e-016 0.000000e+000 -1.000000e+000
      outer loop
         vertex 0.000000e+000 0.000000e+000 0.000000e+000
         vertex 5.000000e+002 1.500000e+002 0.000000e+000
         vertex 5.000000e+002 0.000000e+000 0.000000e+000
      endloop
   endfacet
   facet normal -1.000000e+000 0.000000e+000 2.312965e-016
      outer loop
         vertex 0.000000e+000 1.500000e+002 3.000000e+001
         vertex 0.000000e+000 1.500000e+002 0.000000e+000
         vertex 0.000000e+000 0.000000e+000 3.000000e+001
      endloop
   endfacet
   facet normal -1.000000e+000 0.000000e+000 2.312965e-016
      outer loop
         vertex 0.000000e+000 0.000000e+000 3.000000e+001
         vertex 0.000000e+000 1.500000e+002 0.000000e+000
         vertex 0.000000e+000 0.000000e+000 0.000000e+000
      endloop
   endfacet
   facet normal 5.551115e-017 0.000000e+000 1.000000e+000
      outer loop
         vertex 5.000000e+002 1.500000e+002 3.000000e+001
         vertex 0.000000e+000 1.500000e+002 3.000000e+001
         vertex 5.000000e+002 0.000000e+000 3.000000e+001
      endloop
   endfacet
   facet normal 5.551115e-017 0.000000e+000 1.000000e+000
      outer loop
         vertex 5.000000e+002 0.000000e+000 3.000000e+001
         vertex 0.000000e+000 1.500000e+002 3.000000e+001
         vertex 0.000000e+000 0.000000e+000 3.000000e+001
      endloop
   endfacet
   facet normal 1.000000e+000 0.000000e+000 0.000000e+000
      outer loop
         vertex 5.000000e+002 1.500000e+002 0.000000e+000
         vertex 5.000000e+002 1.500000e+002 3.000000e+001
         vertex 5.000000e+002 0.000000e+000 0.000000e+000
      endloop
   endfacet
   facet normal 1.000000e+000 0.000000e+000 0.000000e+000
      outer loop
         vertex 5.000000e+002 0.000000e+000 0.000000e+000
         vertex 5.000000e+002 1.500000e+002 3.000000e+001
         vertex 5.000000e+002 0.000000e+000 3.000000e+001
      endloop
   endfacet
   facet normal 0.000000e+000 1.000000e+000 0.000000e+000
      outer loop
         vertex 0.000000e+000 1.500000e+002 3.000000e+001
         vertex 5.000000e+002 1.500000e+002 3.000000e+001
         vertex 0.000000e+000 1.500000e+002 0.000000e+000
      endloop
   endfacet
   facet normal 0.000000e+000 1.000000e+000 0.000000e+000
      outer loop
         vertex 0.000000e+000 1.500000e+002 0.000000e+000
         vertex 5.000000e+002 1.500000e+002 3.000000e+001
         vertex 5.000000e+002 1.500000e+002 0.000000e+000
      endloop
   endfacet
   facet normal 0.000000e+000 -1.000000e+000 0.000000e+000
      outer loop
         vertex 5.000000e+002 0.000000e+000 3.000000e+001
         vertex 0.000000e+000 0.000000e+000 3.000000e+001
         vertex 5.000000e+002 0.000000e+000 0.000000e+000
      endloop
   endfacet
   facet normal 0.000000e+000 -1.000000e+000 0.000000e+000
      outer loop
         vertex 5.000000e+002 0.000000e+000 0.000000e+000
         vertex 0.000000e+000 0.000000e+000 3.000000e+001
         vertex 0.000000e+000 0.000000e+000 0.000000e+000
      endloop
   endfacet
endsolid