solid link_4
   facet normal -1.734723e-016 0.000000e+000 -1.000000e+000
      outer loop
         vertex 0.000000e+000 2.000000e+002 0.000000e+000
         vertex 4.000000e+001 2.000000e+002 0.000000e+000
         vertex 0.000000e+000 0.000000e+000 0.000000e+000
      endloop
   endfacet
   facet normal -1.734723e-016 0.000000e+000 -1.000000e+000
      outer loop
         vertex 0.000000e+000 0.000000e+000 0.000000e+000
         vertex 4.000000e+001 2.000000e+002 0.000000e+000
         vertex 4.000000e+001 0.000000e+000 0.000000e+000
      endloop
   endfacet
   facet normal -1.000000e+000 0.000000e+000 2.312965e-016
      outer loop
         vertex 0.000000e+000 2.000000e+002 3.000000e+001
         vertex 0.000000e+000 2.000000e+002 0.000000e+000
         vertex 0.000000e+000 0.000000e+000 3.000000e+001
      endloop
   endfacet
   facet normal -1.000000e+000 0.000000e+000 2.312965e-016
      outer loop
         vertex 0.000000e+000 0.000000e+000 3.000000e+001
         vertex 0.000000e+000 2.000000e+002 0.000000e+000
         vertex 0.000000e+000 0.000000e+000 0.000000e+000
      endloop
   endfacet
   facet normal 6.938894e-016 0.000000e+000 1.000000e+000
      outer loop
         vertex 4.000000e+001 2.000000e+002 3.000000e+001
         vertex 0.000000e+000 2.000000e+002 3.000000e+001
         vertex 4.000000e+001 0.000000e+000 3.000000e+001
      endloop
   endfacet
   facet normal 6.938894e-016 0.000000e+000 1.000000e+000
      outer loop
         vertex 4.000000e+001 0.000000e+000 3.000000e+001
         vertex 0.000000e+000 2.000000e+002 3.000000e+001
         vertex 0.000000e+000 0.000000e+000 3.000000e+001
      endloop
   endfacet
   facet normal 1.000000e+000 0.000000e+000 0.000000e+000
      outer loop
         vertex 4.000000e+001 2.000000e+002 0.000000e+000
         vertex 4.000000e+001 2.000000e+002 3.000000e+001
         vertex 4.000000e+001 0.000000e+000 0.000000e+000
      endloop
   endfacet
   facet normal 1.000000e+000 0.000000e+000 0.000000e+000
      outer loop
         vertex 4.000000e+001 0.000000e+000 0.000000e+000
         vertex 4.000000e+001 2.000000e+002 3.000000e+001
         vertex 4.000000e+001 0.000000e+000 3.000000e+001
      endloop
   endfacet
   facet normal 0.000000e+000 1.000000e+000 0.000000e+000
      outer loop
         vertex 0.000000e+000 2.000000e+002 3.000000e+001
         vertex 4.000000e+001 2.000000e+002 3.000000e+001
         vertex 0.000000e+000 2.000000e+002 0.000000e+000
      endloop
   endfacet
   facet normal 0.000000e+000 1.000000e+000 0.000000e+000
      outer loop
         vertex 0.000000e+000 2.000000e+002 0.000000e+000
         vertex 4.000000e+001 2.000000e+002 3.000000e+001
         vertex 4.000000e+001 2.000000e+002 0.000000e+000
      endloop
   endfacet
   facet normal 0.000000e+000 -1.000000e+000 0.000000e+000
      outer loop
         vertex 4.000000e+001 0.000000e+000 3.000000e+001
         vertex 0.000000e+000 0.000000e+000 3.000000e+001
         vertex 4.000000e+001 0.000000e+000 0.000000e+000
      endloop
   endfacet
   facet normal 0.000000e+000 -1.000000e+000 0.000000e+000
      outer loop
         vertex 4.000000e+001 0.000000e+000 0.000000e+000
         vertex 0.000000e+000 0.000000e+000 3.000000e+001
         vertex 0.000000e+000 0.000000e+000 0.000000e+000
      endloop
   endfacet
endsolid