solid AutoCAD
   facet normal -8.0466569e-002 -9.9675731e-001 -0.0000000e+000
      outer loop
         vertex 3.7785908e-001 5.8290474e-003 7.8119979e-001
         vertex 3.7785908e-001 5.8290474e-003 1.0000000e-006
         vertex 4.5005240e-001 1.0000000e-006 7.8119979e-001
      endloop
   endfacet
   facet normal -8.0466569e-002 -9.9675731e-001 0.0000000e+000
      outer loop
         vertex 4.5005240e-001 1.0000000e-006 7.8119979e-001
         vertex 3.7785908e-001 5.8290474e-003 1.0000000e-006
         vertex 4.5005240e-001 1.0000000e-006 1.0000000e-006
      endloop
   endfacet
   facet normal 8.0466569e-002 -9.9675731e-001 0.0000000e+000
      outer loop
         vertex 4.5005240e-001 1.0000000e-006 7.8119979e-001
         vertex 4.5005240e-001 1.0000000e-006 1.0000000e-006
         vertex 5.2224572e-001 5.8290474e-003 7.8119979e-001
      endloop
   endfacet
   facet normal 8.0466569e-002 -9.9675731e-001 0.0000000e+000
      outer loop
         vertex 5.2224572e-001 5.8290474e-003 7.8119979e-001
         vertex 4.5005240e-001 1.0000000e-006 1.0000000e-006
         vertex 5.2224572e-001 5.8290474e-003 1.0000000e-006
      endloop
   endfacet
   facet normal 2.3931566e-001 -9.7094182e-001 0.0000000e+000
      outer loop
         vertex 5.2224572e-001 5.8290474e-003 7.8119979e-001
         vertex 5.2224572e-001 5.8290474e-003 1.0000000e-006
         vertex 5.9256927e-001 2.3162246e-002 7.8119979e-001
      endloop
   endfacet
   facet normal 2.3931566e-001 -9.7094182e-001 0.0000000e+000
      outer loop
         vertex 5.9256927e-001 2.3162246e-002 7.8119979e-001
         vertex 5.2224572e-001 5.8290474e-003 1.0000000e-006
         vertex 5.9256927e-001 2.3162246e-002 1.0000000e-006
      endloop
   endfacet
   facet normal 3.9196661e-001 -9.1997944e-001 0.0000000e+000
      outer loop
         vertex 5.9256927e-001 2.3162246e-002 7.8119979e-001
         vertex 5.9256927e-001 2.3162246e-002 1.0000000e-006
         vertex 6.5920171e-001 5.1551676e-002 7.8119979e-001
      endloop
   endfacet
   facet normal 3.9196661e-001 -9.1997944e-001 0.0000000e+000
      outer loop
         vertex 6.5920171e-001 5.1551676e-002 7.8119979e-001
         vertex 5.9256927e-001 2.3162246e-002 1.0000000e-006
         vertex 6.5920171e-001 5.1551676e-002 1.0000000e-006
      endloop
   endfacet
   facet normal 5.3446583e-001 -8.4519009e-001 0.0000000e+000
      outer loop
         vertex 6.5920171e-001 5.1551676e-002 7.8119979e-001
         vertex 6.5920171e-001 5.1551676e-002 1.0000000e-006
         vertex 7.2041729e-001 9.0262064e-002 7.8119979e-001
      endloop
   endfacet
   facet normal 5.3446583e-001 -8.4519009e-001 0.0000000e+000
      outer loop
         vertex 7.2041729e-001 9.0262064e-002 7.8119979e-001
         vertex 6.5920171e-001 5.1551676e-002 1.0000000e-006
         vertex 7.2041729e-001 9.0262064e-002 1.0000000e-006
      endloop
   endfacet
   facet normal 6.6312266e-001 -7.4851075e-001 0.0000000e+000
      outer loop
         vertex 7.2041729e-001 9.0262064e-002 7.8119979e-001
         vertex 7.2041729e-001 9.0262064e-002 1.0000000e-006
         vertex 7.7463057e-001 1.3829083e-001 7.8119979e-001
      endloop
   endfacet
   facet normal 6.6312266e-001 -7.4851075e-001 0.0000000e+000
      outer loop
         vertex 7.7463057e-001 1.3829083e-001 7.8119979e-001
         vertex 7.2041729e-001 9.0262064e-002 1.0000000e-006
         vertex 7.7463057e-001 1.3829083e-001 1.0000000e-006
      endloop
   endfacet
   facet normal 7.7460496e-001 -6.3244538e-001 0.0000000e+000
      outer loop
         vertex 7.7463057e-001 1.3829083e-001 7.8119979e-001
         vertex 7.7463057e-001 1.3829083e-001 1.0000000e-006
         vertex 8.2043744e-001 1.9439406e-001 7.8119979e-001
      endloop
   endfacet
   facet normal 7.7460496e-001 -6.3244538e-001 0.0000000e+000
      outer loop
         vertex 8.2043744e-001 1.9439406e-001 7.8119979e-001
         vertex 7.7463057e-001 1.3829083e-001 1.0000000e-006
         vertex 8.2043744e-001 1.9439406e-001 1.0000000e-006
      endloop
   endfacet
   facet normal 8.6602540e-001 -5.0000000e-001 0.0000000e+000
      outer loop
         vertex 8.2043744e-001 1.9439406e-001 7.8119979e-001
         vertex 8.2043744e-001 1.9439406e-001 1.0000000e-006
         vertex 8.5665153e-001 2.5711871e-001 7.8119979e-001
      endloop
   endfacet
   facet normal 8.6602540e-001 -5.0000000e-001 0.0000000e+000
      outer loop
         vertex 8.5665153e-001 2.5711871e-001 7.8119979e-001
         vertex 8.2043744e-001 1.9439406e-001 1.0000000e-006
         vertex 8.5665153e-001 2.5711871e-001 1.0000000e-006
      endloop
   endfacet
   facet normal 9.3501624e-001 -3.5460489e-001 0.0000000e+000
      outer loop
         vertex 8.5665153e-001 2.5711871e-001 7.8119979e-001
         vertex 8.5665153e-001 2.5711871e-001 1.0000000e-006
         vertex 8.8233491e-001 3.2484024e-001 7.8119979e-001
      endloop
   endfacet
   facet normal 9.3501624e-001 -3.5460489e-001 0.0000000e+000
      outer loop
         vertex 8.8233491e-001 3.2484024e-001 7.8119979e-001
         vertex 8.5665153e-001 2.5711871e-001 1.0000000e-006
         vertex 8.8233491e-001 3.2484024e-001 1.0000000e-006
      endloop
   endfacet
   facet normal 9.7979065e-001 -2.0002569e-001 0.0000000e+000
      outer loop
         vertex 8.8233491e-001 3.2484024e-001 7.8119979e-001
         vertex 8.8233491e-001 3.2484024e-001 1.0000000e-006
         vertex 8.9682241e-001 3.9580470e-001 7.8119979e-001
      endloop
   endfacet
   facet normal 9.7979065e-001 -2.0002569e-001 0.0000000e+000
      outer loop
         vertex 8.9682241e-001 3.9580470e-001 7.8119979e-001
         vertex 8.8233491e-001 3.2484024e-001 1.0000000e-006
         vertex 8.9682241e-001 3.9580470e-001 1.0000000e-006
      endloop
   endfacet
   facet normal 9.9918900e-001 -4.0265940e-002 0.0000000e+000
      outer loop
         vertex 8.9682241e-001 3.9580470e-001 7.8119979e-001
         vertex 8.9682241e-001 3.9580470e-001 1.0000000e-006
         vertex 8.9973880e-001 4.6817414e-001 7.8119979e-001
      endloop
   endfacet
   facet normal 9.9918900e-001 -4.0265940e-002 0.0000000e+000
      outer loop
         vertex 8.9973880e-001 4.6817414e-001 7.8119979e-001
         vertex 8.9682241e-001 3.9580470e-001 1.0000000e-006
         vertex 8.9973880e-001 4.6817414e-001 1.0000000e-006
      endloop
   endfacet
   facet normal 9.9270887e-001 1.2053668e-001 0.0000000e+000
      outer loop
         vertex 8.9973880e-001 4.6817414e-001 7.8119979e-001
         vertex 8.9973880e-001 4.6817414e-001 1.0000000e-006
         vertex 8.9100855e-001 5.4007424e-001 7.8119979e-001
      endloop
   endfacet
   facet normal 9.9270887e-001 1.2053668e-001 0.0000000e+000
      outer loop
         vertex 8.9100855e-001 5.4007424e-001 7.8119979e-001
         vertex 8.9973880e-001 4.6817414e-001 1.0000000e-006
         vertex 8.9100855e-001 5.4007424e-001 1.0000000e-006
      endloop
   endfacet
   facet normal 9.6051811e-001 2.7821746e-001 0.0000000e+000
      outer loop
         vertex 8.9100855e-001 5.4007424e-001 7.8119979e-001
         vertex 8.9100855e-001 5.4007424e-001 1.0000000e-006
         vertex 8.7085776e-001 6.0964282e-001 7.8119979e-001
      endloop
   endfacet
   facet normal 9.6051811e-001 2.7821746e-001 0.0000000e+000
      outer loop
         vertex 8.7085776e-001 6.0964282e-001 7.8119979e-001
         vertex 8.9100855e-001 5.4007424e-001 1.0000000e-006
         vertex 8.7085776e-001 6.0964282e-001 1.0000000e-006
      endloop
   endfacet
   facet normal 9.0345043e-001 4.2869256e-001 0.0000000e+000
      outer loop
         vertex 8.7085776e-001 6.0964282e-001 7.8119979e-001
         vertex 8.7085776e-001 6.0964282e-001 1.0000000e-006
         vertex 8.3980834e-001 6.7507810e-001 7.8119979e-001
      endloop
   endfacet
   facet normal 9.0345043e-001 4.2869256e-001 0.0000000e+000
      outer loop
         vertex 8.3980834e-001 6.7507810e-001 7.8119979e-001
         vertex 8.7085776e-001 6.0964282e-001 1.0000000e-006
         vertex 8.3980834e-001 6.7507810e-001 1.0000000e-006
      endloop
   endfacet
   facet normal 8.2298387e-001 5.6806475e-001 0.0000000e+000
      outer loop
         vertex 8.3980834e-001 6.7507810e-001 7.8119979e-001
         vertex 8.3980834e-001 6.7507810e-001 1.0000000e-006
         vertex 7.9866444e-001 7.3468532e-001 7.8119979e-001
      endloop
   endfacet
   facet normal 8.2298387e-001 5.6806475e-001 0.0000000e+000
      outer loop
         vertex 7.9866444e-001 7.3468532e-001 7.8119979e-001
         vertex 8.3980834e-001 6.7507810e-001 1.0000000e-006
         vertex 7.9866444e-001 7.3468532e-001 1.0000000e-006
      endloop
   endfacet
   facet normal 7.2120245e-001 6.9272435e-001 0.0000000e+000
      outer loop
         vertex 7.9866444e-001 7.3468532e-001 7.8119979e-001
         vertex 7.9866444e-001 7.3468532e-001 1.0000000e-006
         vertex 7.4849168e-001 7.8692070e-001 7.8119979e-001
      endloop
   endfacet
   facet normal 7.2120245e-001 6.9272435e-001 0.0000000e+000
      outer loop
         vertex 7.4849168e-001 7.8692070e-001 7.8119979e-001
         vertex 7.9866444e-001 7.3468532e-001 1.0000000e-006
         vertex 7.4849168e-001 7.8692070e-001 1.0000000e-006
      endloop
   endfacet
   facet normal 6.0074226e-001 7.9944276e-001 0.0000000e+000
      outer loop
         vertex 7.4849168e-001 7.8692070e-001 7.8119979e-001
         vertex 7.4849168e-001 7.8692070e-001 1.0000000e-006
         vertex 6.9058949e-001 8.3043138e-001 7.8119979e-001
      endloop
   endfacet
   facet normal 6.0074226e-001 7.9944276e-001 0.0000000e+000
      outer loop
         vertex 6.9058949e-001 8.3043138e-001 7.8119979e-001
         vertex 7.4849168e-001 7.8692070e-001 1.0000000e-006
         vertex 6.9058949e-001 8.3043138e-001 1.0000000e-006
      endloop
   endfacet
   facet normal 4.6472317e-001 8.8545603e-001 0.0000000e+000
      outer loop
         vertex 6.9058949e-001 8.3043138e-001 7.8119979e-001
         vertex 6.9058949e-001 8.3043138e-001 1.0000000e-006
         vertex 6.2645752e-001 8.6409043e-001 7.8119979e-001
      endloop
   endfacet
   facet normal 4.6472317e-001 8.8545603e-001 0.0000000e+000
      outer loop
         vertex 6.2645752e-001 8.6409043e-001 7.8119979e-001
         vertex 6.9058949e-001 8.3043138e-001 1.0000000e-006
         vertex 6.2645752e-001 8.6409043e-001 1.0000000e-006
      endloop
   endfacet
   facet normal 3.1666799e-001 9.4853644e-001 0.0000000e+000
      outer loop
         vertex 6.2645752e-001 8.6409043e-001 7.8119979e-001
         vertex 6.2645752e-001 8.6409043e-001 1.0000000e-006
         vertex 5.5775675e-001 8.8702612e-001 7.8119979e-001
      endloop
   endfacet
   facet normal 3.1666799e-001 9.4853644e-001 0.0000000e+000
      outer loop
         vertex 5.5775675e-001 8.8702612e-001 7.8119979e-001
         vertex 6.2645752e-001 8.6409043e-001 1.0000000e-006
         vertex 5.5775675e-001 8.8702612e-001 1.0000000e-006
      endloop
   endfacet
   facet normal 1.6041128e-001 9.8705026e-001 0.0000000e+000
      outer loop
         vertex 5.5775675e-001 8.8702612e-001 7.8119979e-001
         vertex 5.5775675e-001 8.8702612e-001 1.0000000e-006
         vertex 4.8626649e-001 8.9864442e-001 7.8119979e-001
      endloop
   endfacet
   facet normal 1.6041128e-001 9.8705026e-001 0.0000000e+000
      outer loop
         vertex 4.8626649e-001 8.9864442e-001 7.8119979e-001
         vertex 5.5775675e-001 8.8702612e-001 1.0000000e-006
         vertex 4.8626649e-001 8.9864442e-001 1.0000000e-006
      endloop
   endfacet
   facet normal 1.5328605e-015 1.0000000e+000 0.0000000e+000
      outer loop
         vertex 4.8626649e-001 8.9864442e-001 7.8119979e-001
         vertex 4.8626649e-001 8.9864442e-001 1.0000000e-006
         vertex 4.1383831e-001 8.9864442e-001 7.8119979e-001
      endloop
   endfacet
   facet normal 1.5328605e-015 1.0000000e+000 0.0000000e+000
      outer loop
         vertex 4.1383831e-001 8.9864442e-001 7.8119979e-001
         vertex 4.8626649e-001 8.9864442e-001 1.0000000e-006
         vertex 4.1383831e-001 8.9864442e-001 1.0000000e-006
      endloop
   endfacet
   facet normal -1.6041128e-001 9.8705026e-001 0.0000000e+000
      outer loop
         vertex 4.1383831e-001 8.9864442e-001 7.8119979e-001
         vertex 4.1383831e-001 8.9864442e-001 1.0000000e-006
         vertex 3.4234805e-001 8.8702612e-001 7.8119979e-001
      endloop
   endfacet
   facet normal -1.6041128e-001 9.8705026e-001 0.0000000e+000
      outer loop
         vertex 3.4234805e-001 8.8702612e-001 7.8119979e-001
         vertex 4.1383831e-001 8.9864442e-001 1.0000000e-006
         vertex 3.4234805e-001 8.8702612e-001 1.0000000e-006
      endloop
   endfacet
   facet normal -3.1666799e-001 9.4853644e-001 0.0000000e+000
      outer loop
         vertex 3.4234805e-001 8.8702612e-001 7.8119979e-001
         vertex 3.4234805e-001 8.8702612e-001 1.0000000e-006
         vertex 2.7364728e-001 8.6409043e-001 7.8119979e-001
      endloop
   endfacet
   facet normal -3.1666799e-001 9.4853644e-001 0.0000000e+000
      outer loop
         vertex 2.7364728e-001 8.6409043e-001 7.8119979e-001
         vertex 3.4234805e-001 8.8702612e-001 1.0000000e-006
         vertex 2.7364728e-001 8.6409043e-001 1.0000000e-006
      endloop
   endfacet
   facet normal -4.6472317e-001 8.8545603e-001 0.0000000e+000
      outer loop
         vertex 2.7364728e-001 8.6409043e-001 7.8119979e-001
         vertex 2.7364728e-001 8.6409043e-001 1.0000000e-006
         vertex 2.0951531e-001 8.3043138e-001 7.8119979e-001
      endloop
   endfacet
   facet normal -4.6472317e-001 8.8545603e-001 0.0000000e+000
      outer loop
         vertex 2.0951531e-001 8.3043138e-001 7.8119979e-001
         vertex 2.7364728e-001 8.6409043e-001 1.0000000e-006
         vertex 2.0951531e-001 8.3043138e-001 1.0000000e-006
      endloop
   endfacet
   facet normal -6.0074226e-001 7.9944276e-001 0.0000000e+000
      outer loop
         vertex 2.0951531e-001 8.3043138e-001 7.8119979e-001
         vertex 2.0951531e-001 8.3043138e-001 1.0000000e-006
         vertex 1.5161312e-001 7.8692070e-001 7.8119979e-001
      endloop
   endfacet
   facet normal -6.0074226e-001 7.9944276e-001 0.0000000e+000
      outer loop
         vertex 1.5161312e-001 7.8692070e-001 7.8119979e-001
         vertex 2.0951531e-001 8.3043138e-001 1.0000000e-006
         vertex 1.5161312e-001 7.8692070e-001 1.0000000e-006
      endloop
   endfacet
   facet normal -7.2120245e-001 6.9272435e-001 0.0000000e+000
      outer loop
         vertex 1.5161312e-001 7.8692070e-001 7.8119979e-001
         vertex 1.5161312e-001 7.8692070e-001 1.0000000e-006
         vertex 1.0144035e-001 7.3468532e-001 7.8119979e-001
      endloop
   endfacet
   facet normal -7.2120245e-001 6.9272435e-001 0.0000000e+000
      outer loop
         vertex 1.0144035e-001 7.3468532e-001 7.8119979e-001
         vertex 1.5161312e-001 7.8692070e-001 1.0000000e-006
         vertex 1.0144035e-001 7.3468532e-001 1.0000000e-006
      endloop
   endfacet
   facet normal -8.2298387e-001 5.6806475e-001 0.0000000e+000
      outer loop
         vertex 1.0144035e-001 7.3468532e-001 7.8119979e-001
         vertex 1.0144035e-001 7.3468532e-001 1.0000000e-006
         vertex 6.0296454e-002 6.7507810e-001 7.8119979e-001
      endloop
   endfacet
   facet normal -8.2298387e-001 5.6806475e-001 0.0000000e+000
      outer loop
         vertex 6.0296454e-002 6.7507810e-001 7.8119979e-001
         vertex 1.0144035e-001 7.3468532e-001 1.0000000e-006
         vertex 6.0296454e-002 6.7507810e-001 1.0000000e-006
      endloop
   endfacet
   facet normal -9.0345043e-001 4.2869256e-001 0.0000000e+000
      outer loop
         vertex 6.0296454e-002 6.7507810e-001 7.8119979e-001
         vertex 6.0296454e-002 6.7507810e-001 1.0000000e-006
         vertex 2.9247031e-002 6.0964282e-001 7.8119979e-001
      endloop
   endfacet
   facet normal -9.0345043e-001 4.2869256e-001 0.0000000e+000
      outer loop
         vertex 2.9247031e-002 6.0964282e-001 7.8119979e-001
         vertex 6.0296454e-002 6.7507810e-001 1.0000000e-006
         vertex 2.9247031e-002 6.0964282e-001 1.0000000e-006
      endloop
   endfacet
   facet normal -9.6051811e-001 2.7821746e-001 0.0000000e+000
      outer loop
         vertex 2.9247031e-002 6.0964282e-001 7.8119979e-001
         vertex 2.9247031e-002 6.0964282e-001 1.0000000e-006
         vertex 9.0962453e-003 5.4007424e-001 7.8119979e-001
      endloop
   endfacet
   facet normal -9.6051811e-001 2.7821746e-001 0.0000000e+000
      outer loop
         vertex 9.0962453e-003 5.4007424e-001 7.8119979e-001
         vertex 2.9247031e-002 6.0964282e-001 1.0000000e-006
         vertex 9.0962453e-003 5.4007424e-001 1.0000000e-006
      endloop
   endfacet
   facet normal -9.9270887e-001 1.2053668e-001 0.0000000e+000
      outer loop
         vertex 9.0962453e-003 5.4007424e-001 7.8119979e-001
         vertex 9.0962453e-003 5.4007424e-001 1.0000000e-006
         vertex 3.6599251e-004 4.6817414e-001 7.8119979e-001
      endloop
   endfacet
   facet normal -9.9270887e-001 1.2053668e-001 0.0000000e+000
      outer loop
         vertex 3.6599251e-004 4.6817414e-001 7.8119979e-001
         vertex 9.0962453e-003 5.4007424e-001 1.0000000e-006
         vertex 3.6599251e-004 4.6817414e-001 1.0000000e-006
      endloop
   endfacet
   facet normal -9.9918900e-001 -4.0265940e-002 -0.0000000e+000
      outer loop
         vertex 3.6599251e-004 4.6817414e-001 7.8119979e-001
         vertex 3.6599251e-004 4.6817414e-001 1.0000000e-006
         vertex 3.2823814e-003 3.9580470e-001 7.8119979e-001
      endloop
   endfacet
   facet normal -9.9918900e-001 -4.0265940e-002 0.0000000e+000
      outer loop
         vertex 3.2823814e-003 3.9580470e-001 7.8119979e-001
         vertex 3.6599251e-004 4.6817414e-001 1.0000000e-006
         vertex 3.2823814e-003 3.9580470e-001 1.0000000e-006
      endloop
   endfacet
   facet normal -9.7979065e-001 -2.0002569e-001 -0.0000000e+000
      outer loop
         vertex 3.2823814e-003 3.9580470e-001 7.8119979e-001
         vertex 3.2823814e-003 3.9580470e-001 1.0000000e-006
         vertex 1.7769879e-002 3.2484024e-001 7.8119979e-001
      endloop
   endfacet
   facet normal -9.7979065e-001 -2.0002569e-001 0.0000000e+000
      outer loop
         vertex 1.7769879e-002 3.2484024e-001 7.8119979e-001
         vertex 3.2823814e-003 3.9580470e-001 1.0000000e-006
         vertex 1.7769879e-002 3.2484024e-001 1.0000000e-006
      endloop
   endfacet
   facet normal -9.3501624e-001 -3.5460489e-001 -0.0000000e+000
      outer loop
         vertex 1.7769879e-002 3.2484024e-001 7.8119979e-001
         vertex 1.7769879e-002 3.2484024e-001 1.0000000e-006
         vertex 4.3453267e-002 2.5711871e-001 7.8119979e-001
      endloop
   endfacet
   facet normal -9.3501624e-001 -3.5460489e-001 0.0000000e+000
      outer loop
         vertex 4.3453267e-002 2.5711871e-001 7.8119979e-001
         vertex 1.7769879e-002 3.2484024e-001 1.0000000e-006
         vertex 4.3453267e-002 2.5711871e-001 1.0000000e-006
      endloop
   endfacet
   facet normal -8.6602540e-001 -5.0000000e-001 -0.0000000e+000
      outer loop
         vertex 4.3453267e-002 2.5711871e-001 7.8119979e-001
         vertex 4.3453267e-002 2.5711871e-001 1.0000000e-006
         vertex 7.9667358e-002 1.9439406e-001 7.8119979e-001
      endloop
   endfacet
   facet normal -8.6602540e-001 -5.0000000e-001 0.0000000e+000
      outer loop
         vertex 7.9667358e-002 1.9439406e-001 7.8119979e-001
         vertex 4.3453267e-002 2.5711871e-001 1.0000000e-006
         vertex 7.9667358e-002 1.9439406e-001 1.0000000e-006
      endloop
   endfacet
   facet normal -7.7460496e-001 -6.3244538e-001 -0.0000000e+000
      outer loop
         vertex 7.9667358e-002 1.9439406e-001 7.8119979e-001
         vertex 7.9667358e-002 1.9439406e-001 1.0000000e-006
         vertex 1.2547423e-001 1.3829083e-001 7.8119979e-001
      endloop
   endfacet
   facet normal -7.7460496e-001 -6.3244538e-001 0.0000000e+000
      outer loop
         vertex 1.2547423e-001 1.3829083e-001 7.8119979e-001
         vertex 7.9667358e-002 1.9439406e-001 1.0000000e-006
         vertex 1.2547423e-001 1.3829083e-001 1.0000000e-006
      endloop
   endfacet
   facet normal -6.6312266e-001 -7.4851075e-001 -0.0000000e+000
      outer loop
         vertex 1.2547423e-001 1.3829083e-001 7.8119979e-001
         vertex 1.2547423e-001 1.3829083e-001 1.0000000e-006
         vertex 1.7968750e-001 9.0262064e-002 7.8119979e-001
      endloop
   endfacet
   facet normal -6.6312266e-001 -7.4851075e-001 0.0000000e+000
      outer loop
         vertex 1.7968750e-001 9.0262064e-002 7.8119979e-001
         vertex 1.2547423e-001 1.3829083e-001 1.0000000e-006
         vertex 1.7968750e-001 9.0262064e-002 1.0000000e-006
      endloop
   endfacet
   facet normal -5.3446583e-001 -8.4519009e-001 -0.0000000e+000
      outer loop
         vertex 1.7968750e-001 9.0262064e-002 7.8119979e-001
         vertex 1.7968750e-001 9.0262064e-002 1.0000000e-006
         vertex 2.4090308e-001 5.1551676e-002 7.8119979e-001
      endloop
   endfacet
   facet normal -5.3446583e-001 -8.4519009e-001 0.0000000e+000
      outer loop
         vertex 2.4090308e-001 5.1551676e-002 7.8119979e-001
         vertex 1.7968750e-001 9.0262064e-002 1.0000000e-006
         vertex 2.4090308e-001 5.1551676e-002 1.0000000e-006
      endloop
   endfacet
   facet normal -3.9196661e-001 -9.1997944e-001 -0.0000000e+000
      outer loop
         vertex 2.4090308e-001 5.1551676e-002 7.8119979e-001
         vertex 2.4090308e-001 5.1551676e-002 1.0000000e-006
         vertex 3.0753552e-001 2.3162246e-002 7.8119979e-001
      endloop
   endfacet
   facet normal -3.9196661e-001 -9.1997944e-001 0.0000000e+000
      outer loop
         vertex 3.0753552e-001 2.3162246e-002 7.8119979e-001
         vertex 2.4090308e-001 5.1551676e-002 1.0000000e-006
         vertex 3.0753552e-001 2.3162246e-002 1.0000000e-006
      endloop
   endfacet
   facet normal -2.3931566e-001 -9.7094182e-001 -0.0000000e+000
      outer loop
         vertex 3.0753552e-001 2.3162246e-002 7.8119979e-001
         vertex 3.0753552e-001 2.3162246e-002 1.0000000e-006
         vertex 3.7785908e-001 5.8290474e-003 7.8119979e-001
      endloop
   endfacet
   facet normal -2.3931566e-001 -9.7094182e-001 0.0000000e+000
      outer loop
         vertex 3.7785908e-001 5.8290474e-003 7.8119979e-001
         vertex 3.0753552e-001 2.3162246e-002 1.0000000e-006
         vertex 3.7785908e-001 5.8290474e-003 1.0000000e-006
      endloop
   endfacet
   facet normal 0.0000000e+000 -0.0000000e+000 1.0000000e+000
      outer loop
         vertex 4.5005240e-001 1.0000000e-006 7.8119979e-001
         vertex 5.2224572e-001 5.8290474e-003 7.8119979e-001
         vertex 3.7785908e-001 5.8290474e-003 7.8119979e-001
      endloop
   endfacet
   facet normal 0.0000000e+000 0.0000000e+000 1.0000000e+000
      outer loop
         vertex 3.7785908e-001 5.8290474e-003 7.8119979e-001
         vertex 5.2224572e-001 5.8290474e-003 7.8119979e-001
         vertex 5.9256927e-001 2.3162246e-002 7.8119979e-001
      endloop
   endfacet
   facet normal 0.0000000e+000 -0.0000000e+000 1.0000000e+000
      outer loop
         vertex 3.7785908e-001 5.8290474e-003 7.8119979e-001
         vertex 5.9256927e-001 2.3162246e-002 7.8119979e-001
         vertex 3.0753552e-001 2.3162246e-002 7.8119979e-001
      endloop
   endfacet
   facet normal -0.0000000e+000 0.0000000e+000 1.0000000e+000
      outer loop
         vertex 3.0753552e-001 2.3162246e-002 7.8119979e-001
         vertex 5.9256927e-001 2.3162246e-002 7.8119979e-001
         vertex 6.5920171e-001 5.1551676e-002 7.8119979e-001
      endloop
   endfacet
   facet normal 0.0000000e+000 -0.0000000e+000 1.0000000e+000
      outer loop
         vertex 3.0753552e-001 2.3162246e-002 7.8119979e-001
         vertex 6.5920171e-001 5.1551676e-002 7.8119979e-001
         vertex 2.4090308e-001 5.1551676e-002 7.8119979e-001
      endloop
   endfacet
   facet normal -0.0000000e+000 0.0000000e+000 1.0000000e+000
      outer loop
         vertex 2.4090308e-001 5.1551676e-002 7.8119979e-001
         vertex 6.5920171e-001 5.1551676e-002 7.8119979e-001
         vertex 7.2041729e-001 9.0262064e-002 7.8119979e-001
      endloop
   endfacet
   facet normal 0.0000000e+000 -0.0000000e+000 1.0000000e+000
      outer loop
         vertex 2.4090308e-001 5.1551676e-002 7.8119979e-001
         vertex 7.2041729e-001 9.0262064e-002 7.8119979e-001
         vertex 1.7968750e-001 9.0262064e-002 7.8119979e-001
      endloop
   endfacet
   facet normal -0.0000000e+000 0.0000000e+000 1.0000000e+000
      outer loop
         vertex 1.7968750e-001 9.0262064e-002 7.8119979e-001
         vertex 7.2041729e-001 9.0262064e-002 7.8119979e-001
         vertex 7.7463057e-001 1.3829083e-001 7.8119979e-001
      endloop
   endfacet
   facet normal 0.0000000e+000 -0.0000000e+000 1.0000000e+000
      outer loop
         vertex 1.7968750e-001 9.0262064e-002 7.8119979e-001
         vertex 7.7463057e-001 1.3829083e-001 7.8119979e-001
         vertex 1.2547423e-001 1.3829083e-001 7.8119979e-001
      endloop
   endfacet
   facet normal -0.0000000e+000 0.0000000e+000 1.0000000e+000
      outer loop
         vertex 1.2547423e-001 1.3829083e-001 7.8119979e-001
         vertex 7.7463057e-001 1.3829083e-001 7.8119979e-001
         vertex 8.2043744e-001 1.9439406e-001 7.8119979e-001
      endloop
   endfacet
   facet normal 0.0000000e+000 -0.0000000e+000 1.0000000e+000
      outer loop
         vertex 1.2547423e-001 1.3829083e-001 7.8119979e-001
         vertex 8.2043744e-001 1.9439406e-001 7.8119979e-001
         vertex 7.9667358e-002 1.9439406e-001 7.8119979e-001
      endloop
   endfacet
   facet normal -0.0000000e+000 0.0000000e+000 1.0000000e+000
      outer loop
         vertex 7.9667358e-002 1.9439406e-001 7.8119979e-001
         vertex 8.2043744e-001 1.9439406e-001 7.8119979e-001
         vertex 8.5665153e-001 2.5711871e-001 7.8119979e-001
      endloop
   endfacet
   facet normal 0.0000000e+000 -0.0000000e+000 1.0000000e+000
      outer loop
         vertex 7.9667358e-002 1.9439406e-001 7.8119979e-001
         vertex 8.5665153e-001 2.5711871e-001 7.8119979e-001
         vertex 4.3453267e-002 2.5711871e-001 7.8119979e-001
      endloop
   endfacet
   facet normal -0.0000000e+000 0.0000000e+000 1.0000000e+000
      outer loop
         vertex 4.3453267e-002 2.5711871e-001 7.8119979e-001
         vertex 8.5665153e-001 2.5711871e-001 7.8119979e-001
         vertex 8.8233491e-001 3.2484024e-001 7.8119979e-001
      endloop
   endfacet
   facet normal 0.0000000e+000 -0.0000000e+000 1.0000000e+000
      outer loop
         vertex 4.3453267e-002 2.5711871e-001 7.8119979e-001
         vertex 8.8233491e-001 3.2484024e-001 7.8119979e-001
         vertex 1.7769879e-002 3.2484024e-001 7.8119979e-001
      endloop
   endfacet
   facet normal -0.0000000e+000 0.0000000e+000 1.0000000e+000
      outer loop
         vertex 1.7769879e-002 3.2484024e-001 7.8119979e-001
         vertex 8.8233491e-001 3.2484024e-001 7.8119979e-001
         vertex 8.9682241e-001 3.9580470e-001 7.8119979e-001
      endloop
   endfacet
   facet normal 0.0000000e+000 -0.0000000e+000 1.0000000e+000
      outer loop
         vertex 1.7769879e-002 3.2484024e-001 7.8119979e-001
         vertex 8.9682241e-001 3.9580470e-001 7.8119979e-001
         vertex 3.2823814e-003 3.9580470e-001 7.8119979e-001
      endloop
   endfacet
   facet normal -0.0000000e+000 0.0000000e+000 1.0000000e+000
      outer loop
         vertex 3.2823814e-003 3.9580470e-001 7.8119979e-001
         vertex 8.9682241e-001 3.9580470e-001 7.8119979e-001
         vertex 8.9973880e-001 4.6817414e-001 7.8119979e-001
      endloop
   endfacet
   facet normal 0.0000000e+000 -0.0000000e+000 1.0000000e+000
      outer loop
         vertex 3.2823814e-003 3.9580470e-001 7.8119979e-001
         vertex 8.9973880e-001 4.6817414e-001 7.8119979e-001
         vertex 3.6599251e-004 4.6817414e-001 7.8119979e-001
      endloop
   endfacet
   facet normal -0.0000000e+000 -0.0000000e+000 1.0000000e+000
      outer loop
         vertex 3.6599251e-004 4.6817414e-001 7.8119979e-001
         vertex 8.9973880e-001 4.6817414e-001 7.8119979e-001
         vertex 8.9100855e-001 5.4007424e-001 7.8119979e-001
      endloop
   endfacet
   facet normal 0.0000000e+000 -0.0000000e+000 1.0000000e+000
      outer loop
         vertex 3.6599251e-004 4.6817414e-001 7.8119979e-001
         vertex 8.9100855e-001 5.4007424e-001 7.8119979e-001
         vertex 8.7085776e-001 6.0964282e-001 7.8119979e-001
      endloop
   endfacet
   facet normal 0.0000000e+000 0.0000000e+000 1.0000000e+000
      outer loop
         vertex 8.7085776e-001 6.0964282e-001 7.8119979e-001
         vertex 8.3980834e-001 6.7507810e-001 7.8119979e-001
         vertex 3.6599251e-004 4.6817414e-001 7.8119979e-001
      endloop
   endfacet
   facet normal 0.0000000e+000 -0.0000000e+000 1.0000000e+000
      outer loop
         vertex 3.6599251e-004 4.6817414e-001 7.8119979e-001
         vertex 8.3980834e-001 6.7507810e-001 7.8119979e-001
         vertex 7.9866444e-001 7.3468532e-001 7.8119979e-001
      endloop
   endfacet
   facet normal 0.0000000e+000 -0.0000000e+000 1.0000000e+000
      outer loop
         vertex 3.6599251e-004 4.6817414e-001 7.8119979e-001
         vertex 7.9866444e-001 7.3468532e-001 7.8119979e-001
         vertex 7.4849168e-001 7.8692070e-001 7.8119979e-001
      endloop
   endfacet
   facet normal 0.0000000e+000 0.0000000e+000 1.0000000e+000
      outer loop
         vertex 7.4849168e-001 7.8692070e-001 7.8119979e-001
         vertex 6.9058949e-001 8.3043138e-001 7.8119979e-001
         vertex 3.6599251e-004 4.6817414e-001 7.8119979e-001
      endloop
   endfacet
   facet normal 0.0000000e+000 -0.0000000e+000 1.0000000e+000
      outer loop
         vertex 3.6599251e-004 4.6817414e-001 7.8119979e-001
         vertex 6.9058949e-001 8.3043138e-001 7.8119979e-001
         vertex 6.2645752e-001 8.6409043e-001 7.8119979e-001
      endloop
   endfacet
   facet normal 0.0000000e+000 -0.0000000e+000 1.0000000e+000
      outer loop
         vertex 3.6599251e-004 4.6817414e-001 7.8119979e-001
         vertex 6.2645752e-001 8.6409043e-001 7.8119979e-001
         vertex 5.5775675e-001 8.8702612e-001 7.8119979e-001
      endloop
   endfacet
   facet normal 0.0000000e+000 0.0000000e+000 1.0000000e+000
      outer loop
         vertex 5.5775675e-001 8.8702612e-001 7.8119979e-001
         vertex 4.8626649e-001 8.9864442e-001 7.8119979e-001
         vertex 3.6599251e-004 4.6817414e-001 7.8119979e-001
      endloop
   endfacet
   facet normal 0.0000000e+000 -0.0000000e+000 1.0000000e+000
      outer loop
         vertex 3.6599251e-004 4.6817414e-001 7.8119979e-001
         vertex 4.8626649e-001 8.9864442e-001 7.8119979e-001
         vertex 4.1383831e-001 8.9864442e-001 7.8119979e-001
      endloop
   endfacet
   facet normal 0.0000000e+000 -0.0000000e+000 1.0000000e+000
      outer loop
         vertex 3.6599251e-004 4.6817414e-001 7.8119979e-001
         vertex 4.1383831e-001 8.9864442e-001 7.8119979e-001
         vertex 3.4234805e-001 8.8702612e-001 7.8119979e-001
      endloop
   endfacet
   facet normal 0.0000000e+000 0.0000000e+000 1.0000000e+000
      outer loop
         vertex 3.4234805e-001 8.8702612e-001 7.8119979e-001
         vertex 2.7364728e-001 8.6409043e-001 7.8119979e-001
         vertex 3.6599251e-004 4.6817414e-001 7.8119979e-001
      endloop
   endfacet
   facet normal 0.0000000e+000 -0.0000000e+000 1.0000000e+000
      outer loop
         vertex 3.6599251e-004 4.6817414e-001 7.8119979e-001
         vertex 2.7364728e-001 8.6409043e-001 7.8119979e-001
         vertex 2.0951531e-001 8.3043138e-001 7.8119979e-001
      endloop
   endfacet
   facet normal 0.0000000e+000 -0.0000000e+000 1.0000000e+000
      outer loop
         vertex 3.6599251e-004 4.6817414e-001 7.8119979e-001
         vertex 2.0951531e-001 8.3043138e-001 7.8119979e-001
         vertex 1.5161312e-001 7.8692070e-001 7.8119979e-001
      endloop
   endfacet
   facet normal 0.0000000e+000 0.0000000e+000 1.0000000e+000
      outer loop
         vertex 1.5161312e-001 7.8692070e-001 7.8119979e-001
         vertex 1.0144035e-001 7.3468532e-001 7.8119979e-001
         vertex 3.6599251e-004 4.6817414e-001 7.8119979e-001
      endloop
   endfacet
   facet normal 0.0000000e+000 -0.0000000e+000 1.0000000e+000
      outer loop
         vertex 3.6599251e-004 4.6817414e-001 7.8119979e-001
         vertex 1.0144035e-001 7.3468532e-001 7.8119979e-001
         vertex 6.0296454e-002 6.7507810e-001 7.8119979e-001
      endloop
   endfacet
   facet normal 0.0000000e+000 -0.0000000e+000 1.0000000e+000
      outer loop
         vertex 3.6599251e-004 4.6817414e-001 7.8119979e-001
         vertex 6.0296454e-002 6.7507810e-001 7.8119979e-001
         vertex 2.9247031e-002 6.0964282e-001 7.8119979e-001
      endloop
   endfacet
   facet normal 0.0000000e+000 0.0000000e+000 1.0000000e+000
      outer loop
         vertex 2.9247031e-002 6.0964282e-001 7.8119979e-001
         vertex 9.0962453e-003 5.4007424e-001 7.8119979e-001
         vertex 3.6599251e-004 4.6817414e-001 7.8119979e-001
      endloop
   endfacet
   facet normal 0.0000000e+000 0.0000000e+000 -1.0000000e+000
      outer loop
         vertex 4.5005240e-001 1.0000000e-006 1.0000000e-006
         vertex 3.7785908e-001 5.8290474e-003 1.0000000e-006
         vertex 5.2224572e-001 5.8290474e-003 1.0000000e-006
      endloop
   endfacet
   facet normal 0.0000000e+000 0.0000000e+000 -1.0000000e+000
      outer loop
         vertex 5.2224572e-001 5.8290474e-003 1.0000000e-006
         vertex 3.7785908e-001 5.8290474e-003 1.0000000e-006
         vertex 5.9256927e-001 2.3162246e-002 1.0000000e-006
      endloop
   endfacet
   facet normal -0.0000000e+000 0.0000000e+000 -1.0000000e+000
      outer loop
         vertex 5.9256927e-001 2.3162246e-002 1.0000000e-006
         vertex 3.7785908e-001 5.8290474e-003 1.0000000e-006
         vertex 3.0753552e-001 2.3162246e-002 1.0000000e-006
      endloop
   endfacet
   facet normal 0.0000000e+000 0.0000000e+000 -1.0000000e+000
      outer loop
         vertex 5.9256927e-001 2.3162246e-002 1.0000000e-006
         vertex 3.0753552e-001 2.3162246e-002 1.0000000e-006
         vertex 6.5920171e-001 5.1551676e-002 1.0000000e-006
      endloop
   endfacet
   facet normal -0.0000000e+000 0.0000000e+000 -1.0000000e+000
      outer loop
         vertex 6.5920171e-001 5.1551676e-002 1.0000000e-006
         vertex 3.0753552e-001 2.3162246e-002 1.0000000e-006
         vertex 2.4090308e-001 5.1551676e-002 1.0000000e-006
      endloop
   endfacet
   facet normal 0.0000000e+000 0.0000000e+000 -1.0000000e+000
      outer loop
         vertex 6.5920171e-001 5.1551676e-002 1.0000000e-006
         vertex 2.4090308e-001 5.1551676e-002 1.0000000e-006
         vertex 7.2041729e-001 9.0262064e-002 1.0000000e-006
      endloop
   endfacet
   facet normal -0.0000000e+000 0.0000000e+000 -1.0000000e+000
      outer loop
         vertex 7.2041729e-001 9.0262064e-002 1.0000000e-006
         vertex 2.4090308e-001 5.1551676e-002 1.0000000e-006
         vertex 1.7968750e-001 9.0262064e-002 1.0000000e-006
      endloop
   endfacet
   facet normal 0.0000000e+000 0.0000000e+000 -1.0000000e+000
      outer loop
         vertex 7.2041729e-001 9.0262064e-002 1.0000000e-006
         vertex 1.7968750e-001 9.0262064e-002 1.0000000e-006
         vertex 7.7463057e-001 1.3829083e-001 1.0000000e-006
      endloop
   endfacet
   facet normal -0.0000000e+000 0.0000000e+000 -1.0000000e+000
      outer loop
         vertex 7.7463057e-001 1.3829083e-001 1.0000000e-006
         vertex 1.7968750e-001 9.0262064e-002 1.0000000e-006
         vertex 1.2547423e-001 1.3829083e-001 1.0000000e-006
      endloop
   endfacet
   facet normal 0.0000000e+000 0.0000000e+000 -1.0000000e+000
      outer loop
         vertex 7.7463057e-001 1.3829083e-001 1.0000000e-006
         vertex 1.2547423e-001 1.3829083e-001 1.0000000e-006
         vertex 8.2043744e-001 1.9439406e-001 1.0000000e-006
      endloop
   endfacet
   facet normal -0.0000000e+000 0.0000000e+000 -1.0000000e+000
      outer loop
         vertex 8.2043744e-001 1.9439406e-001 1.0000000e-006
         vertex 1.2547423e-001 1.3829083e-001 1.0000000e-006
         vertex 7.9667358e-002 1.9439406e-001 1.0000000e-006
      endloop
   endfacet
   facet normal 0.0000000e+000 0.0000000e+000 -1.0000000e+000
      outer loop
         vertex 8.2043744e-001 1.9439406e-001 1.0000000e-006
         vertex 7.9667358e-002 1.9439406e-001 1.0000000e-006
         vertex 8.5665153e-001 2.5711871e-001 1.0000000e-006
      endloop
   endfacet
   facet normal -0.0000000e+000 0.0000000e+000 -1.0000000e+000
      outer loop
         vertex 8.5665153e-001 2.5711871e-001 1.0000000e-006
         vertex 7.9667358e-002 1.9439406e-001 1.0000000e-006
         vertex 4.3453267e-002 2.5711871e-001 1.0000000e-006
      endloop
   endfacet
   facet normal 0.0000000e+000 0.0000000e+000 -1.0000000e+000
      outer loop
         vertex 8.5665153e-001 2.5711871e-001 1.0000000e-006
         vertex 4.3453267e-002 2.5711871e-001 1.0000000e-006
         vertex 8.8233491e-001 3.2484024e-001 1.0000000e-006
      endloop
   endfacet
   facet normal -0.0000000e+000 0.0000000e+000 -1.0000000e+000
      outer loop
         vertex 8.8233491e-001 3.2484024e-001 1.0000000e-006
         vertex 4.3453267e-002 2.5711871e-001 1.0000000e-006
         vertex 1.7769879e-002 3.2484024e-001 1.0000000e-006
      endloop
   endfacet
   facet normal 0.0000000e+000 0.0000000e+000 -1.0000000e+000
      outer loop
         vertex 8.8233491e-001 3.2484024e-001 1.0000000e-006
         vertex 1.7769879e-002 3.2484024e-001 1.0000000e-006
         vertex 8.9682241e-001 3.9580470e-001 1.0000000e-006
      endloop
   endfacet
   facet normal -0.0000000e+000 0.0000000e+000 -1.0000000e+000
      outer loop
         vertex 8.9682241e-001 3.9580470e-001 1.0000000e-006
         vertex 1.7769879e-002 3.2484024e-001 1.0000000e-006
         vertex 3.2823814e-003 3.9580470e-001 1.0000000e-006
      endloop
   endfacet
   facet normal 0.0000000e+000 0.0000000e+000 -1.0000000e+000
      outer loop
         vertex 8.9682241e-001 3.9580470e-001 1.0000000e-006
         vertex 3.2823814e-003 3.9580470e-001 1.0000000e-006
         vertex 8.9973880e-001 4.6817414e-001 1.0000000e-006
      endloop
   endfacet
   facet normal -0.0000000e+000 0.0000000e+000 -1.0000000e+000
      outer loop
         vertex 8.9973880e-001 4.6817414e-001 1.0000000e-006
         vertex 3.2823814e-003 3.9580470e-001 1.0000000e-006
         vertex 3.6599251e-004 4.6817414e-001 1.0000000e-006
      endloop
   endfacet
   facet normal 0.0000000e+000 0.0000000e+000 -1.0000000e+000
      outer loop
         vertex 8.9973880e-001 4.6817414e-001 1.0000000e-006
         vertex 3.6599251e-004 4.6817414e-001 1.0000000e-006
         vertex 8.9100855e-001 5.4007424e-001 1.0000000e-006
      endloop
   endfacet
   facet normal -0.0000000e+000 0.0000000e+000 -1.0000000e+000
      outer loop
         vertex 8.9100855e-001 5.4007424e-001 1.0000000e-006
         vertex 3.6599251e-004 4.6817414e-001 1.0000000e-006
         vertex 8.7085776e-001 6.0964282e-001 1.0000000e-006
      endloop
   endfacet
   facet normal -0.0000000e+000 0.0000000e+000 -1.0000000e+000
      outer loop
         vertex 8.7085776e-001 6.0964282e-001 1.0000000e-006
         vertex 3.6599251e-004 4.6817414e-001 1.0000000e-006
         vertex 8.3980834e-001 6.7507810e-001 1.0000000e-006
      endloop
   endfacet
   facet normal -0.0000000e+000 0.0000000e+000 -1.0000000e+000
      outer loop
         vertex 8.3980834e-001 6.7507810e-001 1.0000000e-006
         vertex 3.6599251e-004 4.6817414e-001 1.0000000e-006
         vertex 7.9866444e-001 7.3468532e-001 1.0000000e-006
      endloop
   endfacet
   facet normal -0.0000000e+000 0.0000000e+000 -1.0000000e+000
      outer loop
         vertex 7.9866444e-001 7.3468532e-001 1.0000000e-006
         vertex 3.6599251e-004 4.6817414e-001 1.0000000e-006
         vertex 7.4849168e-001 7.8692070e-001 1.0000000e-006
      endloop
   endfacet
   facet normal -0.0000000e+000 0.0000000e+000 -1.0000000e+000
      outer loop
         vertex 7.4849168e-001 7.8692070e-001 1.0000000e-006
         vertex 3.6599251e-004 4.6817414e-001 1.0000000e-006
         vertex 6.9058949e-001 8.3043138e-001 1.0000000e-006
      endloop
   endfacet
   facet normal -0.0000000e+000 0.0000000e+000 -1.0000000e+000
      outer loop
         vertex 6.9058949e-001 8.3043138e-001 1.0000000e-006
         vertex 3.6599251e-004 4.6817414e-001 1.0000000e-006
         vertex 6.2645752e-001 8.6409043e-001 1.0000000e-006
      endloop
   endfacet
   facet normal -0.0000000e+000 0.0000000e+000 -1.0000000e+000
      outer loop
         vertex 6.2645752e-001 8.6409043e-001 1.0000000e-006
         vertex 3.6599251e-004 4.6817414e-001 1.0000000e-006
         vertex 5.5775675e-001 8.8702612e-001 1.0000000e-006
      endloop
   endfacet
   facet normal -0.0000000e+000 0.0000000e+000 -1.0000000e+000
      outer loop
         vertex 5.5775675e-001 8.8702612e-001 1.0000000e-006
         vertex 3.6599251e-004 4.6817414e-001 1.0000000e-006
         vertex 4.8626649e-001 8.9864442e-001 1.0000000e-006
      endloop
   endfacet
   facet normal -0.0000000e+000 0.0000000e+000 -1.0000000e+000
      outer loop
         vertex 4.8626649e-001 8.9864442e-001 1.0000000e-006
         vertex 3.6599251e-004 4.6817414e-001 1.0000000e-006
         vertex 4.1383831e-001 8.9864442e-001 1.0000000e-006
      endloop
   endfacet
   facet normal -0.0000000e+000 0.0000000e+000 -1.0000000e+000
      outer loop
         vertex 4.1383831e-001 8.9864442e-001 1.0000000e-006
         vertex 3.6599251e-004 4.6817414e-001 1.0000000e-006
         vertex 3.4234805e-001 8.8702612e-001 1.0000000e-006
      endloop
   endfacet
   facet normal -0.0000000e+000 0.0000000e+000 -1.0000000e+000
      outer loop
         vertex 3.4234805e-001 8.8702612e-001 1.0000000e-006
         vertex 3.6599251e-004 4.6817414e-001 1.0000000e-006
         vertex 2.7364728e-001 8.6409043e-001 1.0000000e-006
      endloop
   endfacet
   facet normal -0.0000000e+000 0.0000000e+000 -1.0000000e+000
      outer loop
         vertex 2.7364728e-001 8.6409043e-001 1.0000000e-006
         vertex 3.6599251e-004 4.6817414e-001 1.0000000e-006
         vertex 2.0951531e-001 8.3043138e-001 1.0000000e-006
      endloop
   endfacet
   facet normal -0.0000000e+000 0.0000000e+000 -1.0000000e+000
      outer loop
         vertex 2.0951531e-001 8.3043138e-001 1.0000000e-006
         vertex 3.6599251e-004 4.6817414e-001 1.0000000e-006
         vertex 1.5161312e-001 7.8692070e-001 1.0000000e-006
      endloop
   endfacet
   facet normal -0.0000000e+000 0.0000000e+000 -1.0000000e+000
      outer loop
         vertex 1.5161312e-001 7.8692070e-001 1.0000000e-006
         vertex 3.6599251e-004 4.6817414e-001 1.0000000e-006
         vertex 1.0144035e-001 7.3468532e-001 1.0000000e-006
      endloop
   endfacet
   facet normal -0.0000000e+000 0.0000000e+000 -1.0000000e+000
      outer loop
         vertex 1.0144035e-001 7.3468532e-001 1.0000000e-006
         vertex 3.6599251e-004 4.6817414e-001 1.0000000e-006
         vertex 6.0296454e-002 6.7507810e-001 1.0000000e-006
      endloop
   endfacet
   facet normal -0.0000000e+000 0.0000000e+000 -1.0000000e+000
      outer loop
         vertex 6.0296454e-002 6.7507810e-001 1.0000000e-006
         vertex 3.6599251e-004 4.6817414e-001 1.0000000e-006
         vertex 2.9247031e-002 6.0964282e-001 1.0000000e-006
      endloop
   endfacet
   facet normal -0.0000000e+000 0.0000000e+000 -1.0000000e+000
      outer loop
         vertex 2.9247031e-002 6.0964282e-001 1.0000000e-006
         vertex 3.6599251e-004 4.6817414e-001 1.0000000e-006
         vertex 9.0962453e-003 5.4007424e-001 1.0000000e-006
      endloop
   endfacet
endsolid AutoCAD
