solid AutoCAD
   facet normal 9.9675731e-001 -8.0466569e-002 0.0000000e+000
      outer loop
         vertex 8.9427575e-001 3.7785908e-001 7.8119979e-001
         vertex 8.9427575e-001 3.7785908e-001 1.0000000e-006
         vertex 9.0010379e-001 4.5005240e-001 7.8119979e-001
      endloop
   endfacet
   facet normal 9.9675731e-001 -8.0466569e-002 0.0000000e+000
      outer loop
         vertex 9.0010379e-001 4.5005240e-001 7.8119979e-001
         vertex 8.9427575e-001 3.7785908e-001 1.0000000e-006
         vertex 9.0010379e-001 4.5005240e-001 1.0000000e-006
      endloop
   endfacet
   facet normal 9.9675731e-001 8.0466569e-002 0.0000000e+000
      outer loop
         vertex 9.0010379e-001 4.5005240e-001 7.8119979e-001
         vertex 9.0010379e-001 4.5005240e-001 1.0000000e-006
         vertex 8.9427575e-001 5.2224572e-001 7.8119979e-001
      endloop
   endfacet
   facet normal 9.9675731e-001 8.0466569e-002 0.0000000e+000
      outer loop
         vertex 8.9427575e-001 5.2224572e-001 7.8119979e-001
         vertex 9.0010379e-001 4.5005240e-001 1.0000000e-006
         vertex 8.9427575e-001 5.2224572e-001 1.0000000e-006
      endloop
   endfacet
   facet normal 9.7094182e-001 2.3931566e-001 0.0000000e+000
      outer loop
         vertex 8.9427575e-001 5.2224572e-001 7.8119979e-001
         vertex 8.9427575e-001 5.2224572e-001 1.0000000e-006
         vertex 8.7694255e-001 5.9256927e-001 7.8119979e-001
      endloop
   endfacet
   facet normal 9.7094182e-001 2.3931566e-001 0.0000000e+000
      outer loop
         vertex 8.7694255e-001 5.9256927e-001 7.8119979e-001
         vertex 8.9427575e-001 5.2224572e-001 1.0000000e-006
         vertex 8.7694255e-001 5.9256927e-001 1.0000000e-006
      endloop
   endfacet
   facet normal 9.1997944e-001 3.9196661e-001 0.0000000e+000
      outer loop
         vertex 8.7694255e-001 5.9256927e-001 7.8119979e-001
         vertex 8.7694255e-001 5.9256927e-001 1.0000000e-006
         vertex 8.4855312e-001 6.5920171e-001 7.8119979e-001
      endloop
   endfacet
   facet normal 9.1997944e-001 3.9196661e-001 0.0000000e+000
      outer loop
         vertex 8.4855312e-001 6.5920171e-001 7.8119979e-001
         vertex 8.7694255e-001 5.9256927e-001 1.0000000e-006
         vertex 8.4855312e-001 6.5920171e-001 1.0000000e-006
      endloop
   endfacet
   facet normal 8.4519009e-001 5.3446583e-001 0.0000000e+000
      outer loop
         vertex 8.4855312e-001 6.5920171e-001 7.8119979e-001
         vertex 8.4855312e-001 6.5920171e-001 1.0000000e-006
         vertex 8.0984273e-001 7.2041729e-001 7.8119979e-001
      endloop
   endfacet
   facet normal 8.4519009e-001 5.3446583e-001 0.0000000e+000
      outer loop
         vertex 8.0984273e-001 7.2041729e-001 7.8119979e-001
         vertex 8.4855312e-001 6.5920171e-001 1.0000000e-006
         vertex 8.0984273e-001 7.2041729e-001 1.0000000e-006
      endloop
   endfacet
   facet normal 7.4851075e-001 6.6312266e-001 0.0000000e+000
      outer loop
         vertex 8.0984273e-001 7.2041729e-001 7.8119979e-001
         vertex 8.0984273e-001 7.2041729e-001 1.0000000e-006
         vertex 7.6181396e-001 7.7463057e-001 7.8119979e-001
      endloop
   endfacet
   facet normal 7.4851075e-001 6.6312266e-001 0.0000000e+000
      outer loop
         vertex 7.6181396e-001 7.7463057e-001 7.8119979e-001
         vertex 8.0984273e-001 7.2041729e-001 1.0000000e-006
         vertex 7.6181396e-001 7.7463057e-001 1.0000000e-006
      endloop
   endfacet
   facet normal 6.3244538e-001 7.7460496e-001 0.0000000e+000
      outer loop
         vertex 7.6181396e-001 7.7463057e-001 7.8119979e-001
         vertex 7.6181396e-001 7.7463057e-001 1.0000000e-006
         vertex 7.0571073e-001 8.2043744e-001 7.8119979e-001
      endloop
   endfacet
   facet normal 6.3244538e-001 7.7460496e-001 0.0000000e+000
      outer loop
         vertex 7.0571073e-001 8.2043744e-001 7.8119979e-001
         vertex 7.6181396e-001 7.7463057e-001 1.0000000e-006
         vertex 7.0571073e-001 8.2043744e-001 1.0000000e-006
      endloop
   endfacet
   facet normal 5.0000000e-001 8.6602540e-001 0.0000000e+000
      outer loop
         vertex 7.0571073e-001 8.2043744e-001 7.8119979e-001
         vertex 7.0571073e-001 8.2043744e-001 1.0000000e-006
         vertex 6.4298608e-001 8.5665153e-001 7.8119979e-001
      endloop
   endfacet
   facet normal 5.0000000e-001 8.6602540e-001 0.0000000e+000
      outer loop
         vertex 6.4298608e-001 8.5665153e-001 7.8119979e-001
         vertex 7.0571073e-001 8.2043744e-001 1.0000000e-006
         vertex 6.4298608e-001 8.5665153e-001 1.0000000e-006
      endloop
   endfacet
   facet normal 3.5460489e-001 9.3501624e-001 0.0000000e+000
      outer loop
         vertex 6.4298608e-001 8.5665153e-001 7.8119979e-001
         vertex 6.4298608e-001 8.5665153e-001 1.0000000e-006
         vertex 5.7526456e-001 8.8233491e-001 7.8119979e-001
      endloop
   endfacet
   facet normal 3.5460489e-001 9.3501624e-001 0.0000000e+000
      outer loop
         vertex 5.7526456e-001 8.8233491e-001 7.8119979e-001
         vertex 6.4298608e-001 8.5665153e-001 1.0000000e-006
         vertex 5.7526456e-001 8.8233491e-001 1.0000000e-006
      endloop
   endfacet
   facet normal 2.0002569e-001 9.7979065e-001 0.0000000e+000
      outer loop
         vertex 5.7526456e-001 8.8233491e-001 7.8119979e-001
         vertex 5.7526456e-001 8.8233491e-001 1.0000000e-006
         vertex 5.0430010e-001 8.9682241e-001 7.8119979e-001
      endloop
   endfacet
   facet normal 2.0002569e-001 9.7979065e-001 0.0000000e+000
      outer loop
         vertex 5.0430010e-001 8.9682241e-001 7.8119979e-001
         vertex 5.7526456e-001 8.8233491e-001 1.0000000e-006
         vertex 5.0430010e-001 8.9682241e-001 1.0000000e-006
      endloop
   endfacet
   facet normal 4.0265940e-002 9.9918900e-001 0.0000000e+000
      outer loop
         vertex 5.0430010e-001 8.9682241e-001 7.8119979e-001
         vertex 5.0430010e-001 8.9682241e-001 1.0000000e-006
         vertex 4.3193065e-001 8.9973880e-001 7.8119979e-001
      endloop
   endfacet
   facet normal 4.0265940e-002 9.9918900e-001 0.0000000e+000
      outer loop
         vertex 4.3193065e-001 8.9973880e-001 7.8119979e-001
         vertex 5.0430010e-001 8.9682241e-001 1.0000000e-006
         vertex 4.3193065e-001 8.9973880e-001 1.0000000e-006
      endloop
   endfacet
   facet normal -1.2053668e-001 9.9270887e-001 0.0000000e+000
      outer loop
         vertex 4.3193065e-001 8.9973880e-001 7.8119979e-001
         vertex 4.3193065e-001 8.9973880e-001 1.0000000e-006
         vertex 3.6003055e-001 8.9100855e-001 7.8119979e-001
      endloop
   endfacet
   facet normal -1.2053668e-001 9.9270887e-001 0.0000000e+000
      outer loop
         vertex 3.6003055e-001 8.9100855e-001 7.8119979e-001
         vertex 4.3193065e-001 8.9973880e-001 1.0000000e-006
         vertex 3.6003055e-001 8.9100855e-001 1.0000000e-006
      endloop
   endfacet
   facet normal -2.7821746e-001 9.6051811e-001 0.0000000e+000
      outer loop
         vertex 3.6003055e-001 8.9100855e-001 7.8119979e-001
         vertex 3.6003055e-001 8.9100855e-001 1.0000000e-006
         vertex 2.9046197e-001 8.7085776e-001 7.8119979e-001
      endloop
   endfacet
   facet normal -2.7821746e-001 9.6051811e-001 0.0000000e+000
      outer loop
         vertex 2.9046197e-001 8.7085776e-001 7.8119979e-001
         vertex 3.6003055e-001 8.9100855e-001 1.0000000e-006
         vertex 2.9046197e-001 8.7085776e-001 1.0000000e-006
      endloop
   endfacet
   facet normal -4.2869256e-001 9.0345043e-001 0.0000000e+000
      outer loop
         vertex 2.9046197e-001 8.7085776e-001 7.8119979e-001
         vertex 2.9046197e-001 8.7085776e-001 1.0000000e-006
         vertex 2.2502670e-001 8.3980834e-001 7.8119979e-001
      endloop
   endfacet
   facet normal -4.2869256e-001 9.0345043e-001 0.0000000e+000
      outer loop
         vertex 2.2502670e-001 8.3980834e-001 7.8119979e-001
         vertex 2.9046197e-001 8.7085776e-001 1.0000000e-006
         vertex 2.2502670e-001 8.3980834e-001 1.0000000e-006
      endloop
   endfacet
   facet normal -5.6806475e-001 8.2298387e-001 0.0000000e+000
      outer loop
         vertex 2.2502670e-001 8.3980834e-001 7.8119979e-001
         vertex 2.2502670e-001 8.3980834e-001 1.0000000e-006
         vertex 1.6541947e-001 7.9866444e-001 7.8119979e-001
      endloop
   endfacet
   facet normal -5.6806475e-001 8.2298387e-001 0.0000000e+000
      outer loop
         vertex 1.6541947e-001 7.9866444e-001 7.8119979e-001
         vertex 2.2502670e-001 8.3980834e-001 1.0000000e-006
         vertex 1.6541947e-001 7.9866444e-001 1.0000000e-006
      endloop
   endfacet
   facet normal -6.9272435e-001 7.2120245e-001 0.0000000e+000
      outer loop
         vertex 1.6541947e-001 7.9866444e-001 7.8119979e-001
         vertex 1.6541947e-001 7.9866444e-001 1.0000000e-006
         vertex 1.1318409e-001 7.4849168e-001 7.8119979e-001
      endloop
   endfacet
   facet normal -6.9272435e-001 7.2120245e-001 0.0000000e+000
      outer loop
         vertex 1.1318409e-001 7.4849168e-001 7.8119979e-001
         vertex 1.6541947e-001 7.9866444e-001 1.0000000e-006
         vertex 1.1318409e-001 7.4849168e-001 1.0000000e-006
      endloop
   endfacet
   facet normal -7.9944276e-001 6.0074226e-001 0.0000000e+000
      outer loop
         vertex 1.1318409e-001 7.4849168e-001 7.8119979e-001
         vertex 1.1318409e-001 7.4849168e-001 1.0000000e-006
         vertex 6.9673418e-002 6.9058949e-001 7.8119979e-001
      endloop
   endfacet
   facet normal -7.9944276e-001 6.0074226e-001 0.0000000e+000
      outer loop
         vertex 6.9673418e-002 6.9058949e-001 7.8119979e-001
         vertex 1.1318409e-001 7.4849168e-001 1.0000000e-006
         vertex 6.9673418e-002 6.9058949e-001 1.0000000e-006
      endloop
   endfacet
   facet normal -8.8545603e-001 4.6472317e-001 0.0000000e+000
      outer loop
         vertex 6.9673418e-002 6.9058949e-001 7.8119979e-001
         vertex 6.9673418e-002 6.9058949e-001 1.0000000e-006
         vertex 3.6014363e-002 6.2645752e-001 7.8119979e-001
      endloop
   endfacet
   facet normal -8.8545603e-001 4.6472317e-001 0.0000000e+000
      outer loop
         vertex 3.6014363e-002 6.2645752e-001 7.8119979e-001
         vertex 6.9673418e-002 6.9058949e-001 1.0000000e-006
         vertex 3.6014363e-002 6.2645752e-001 1.0000000e-006
      endloop
   endfacet
   facet normal -9.4853644e-001 3.1666799e-001 0.0000000e+000
      outer loop
         vertex 3.6014363e-002 6.2645752e-001 7.8119979e-001
         vertex 3.6014363e-002 6.2645752e-001 1.0000000e-006
         vertex 1.3078676e-002 5.5775675e-001 7.8119979e-001
      endloop
   endfacet
   facet normal -9.4853644e-001 3.1666799e-001 0.0000000e+000
      outer loop
         vertex 1.3078676e-002 5.5775675e-001 7.8119979e-001
         vertex 3.6014363e-002 6.2645752e-001 1.0000000e-006
         vertex 1.3078676e-002 5.5775675e-001 1.0000000e-006
      endloop
   endfacet
   facet normal -9.8705026e-001 1.6041128e-001 0.0000000e+000
      outer loop
         vertex 1.3078676e-002 5.5775675e-001 7.8119979e-001
         vertex 1.3078676e-002 5.5775675e-001 1.0000000e-006
         vertex 1.4603780e-003 4.8626649e-001 7.8119979e-001
      endloop
   endfacet
   facet normal -9.8705026e-001 1.6041128e-001 0.0000000e+000
      outer loop
         vertex 1.4603780e-003 4.8626649e-001 7.8119979e-001
         vertex 1.3078676e-002 5.5775675e-001 1.0000000e-006
         vertex 1.4603780e-003 4.8626649e-001 1.0000000e-006
      endloop
   endfacet
   facet normal -1.0000000e+000 7.6643026e-016 0.0000000e+000
      outer loop
         vertex 1.4603780e-003 4.8626649e-001 7.8119979e-001
         vertex 1.4603780e-003 4.8626649e-001 1.0000000e-006
         vertex 1.4603780e-003 4.1383831e-001 7.8119979e-001
      endloop
   endfacet
   facet normal -1.0000000e+000 7.6643026e-016 0.0000000e+000
      outer loop
         vertex 1.4603780e-003 4.1383831e-001 7.8119979e-001
         vertex 1.4603780e-003 4.8626649e-001 1.0000000e-006
         vertex 1.4603780e-003 4.1383831e-001 1.0000000e-006
      endloop
   endfacet
   facet normal -9.8705026e-001 -1.6041128e-001 -0.0000000e+000
      outer loop
         vertex 1.4603780e-003 4.1383831e-001 7.8119979e-001
         vertex 1.4603780e-003 4.1383831e-001 1.0000000e-006
         vertex 1.3078676e-002 3.4234805e-001 7.8119979e-001
      endloop
   endfacet
   facet normal -9.8705026e-001 -1.6041128e-001 0.0000000e+000
      outer loop
         vertex 1.3078676e-002 3.4234805e-001 7.8119979e-001
         vertex 1.4603780e-003 4.1383831e-001 1.0000000e-006
         vertex 1.3078676e-002 3.4234805e-001 1.0000000e-006
      endloop
   endfacet
   facet normal -9.4853644e-001 -3.1666799e-001 -0.0000000e+000
      outer loop
         vertex 1.3078676e-002 3.4234805e-001 7.8119979e-001
         vertex 1.3078676e-002 3.4234805e-001 1.0000000e-006
         vertex 3.6014363e-002 2.7364728e-001 7.8119979e-001
      endloop
   endfacet
   facet normal -9.4853644e-001 -3.1666799e-001 0.0000000e+000
      outer loop
         vertex 3.6014363e-002 2.7364728e-001 7.8119979e-001
         vertex 1.3078676e-002 3.4234805e-001 1.0000000e-006
         vertex 3.6014363e-002 2.7364728e-001 1.0000000e-006
      endloop
   endfacet
   facet normal -8.8545603e-001 -4.6472317e-001 -0.0000000e+000
      outer loop
         vertex 3.6014363e-002 2.7364728e-001 7.8119979e-001
         vertex 3.6014363e-002 2.7364728e-001 1.0000000e-006
         vertex 6.9673418e-002 2.0951531e-001 7.8119979e-001
      endloop
   endfacet
   facet normal -8.8545603e-001 -4.6472317e-001 0.0000000e+000
      outer loop
         vertex 6.9673418e-002 2.0951531e-001 7.8119979e-001
         vertex 3.6014363e-002 2.7364728e-001 1.0000000e-006
         vertex 6.9673418e-002 2.0951531e-001 1.0000000e-006
      endloop
   endfacet
   facet normal -7.9944276e-001 -6.0074226e-001 -0.0000000e+000
      outer loop
         vertex 6.9673418e-002 2.0951531e-001 7.8119979e-001
         vertex 6.9673418e-002 2.0951531e-001 1.0000000e-006
         vertex 1.1318409e-001 1.5161312e-001 7.8119979e-001
      endloop
   endfacet
   facet normal -7.9944276e-001 -6.0074226e-001 0.0000000e+000
      outer loop
         vertex 1.1318409e-001 1.5161312e-001 7.8119979e-001
         vertex 6.9673418e-002 2.0951531e-001 1.0000000e-006
         vertex 1.1318409e-001 1.5161312e-001 1.0000000e-006
      endloop
   endfacet
   facet normal -6.9272435e-001 -7.2120245e-001 -0.0000000e+000
      outer loop
         vertex 1.1318409e-001 1.5161312e-001 7.8119979e-001
         vertex 1.1318409e-001 1.5161312e-001 1.0000000e-006
         vertex 1.6541947e-001 1.0144035e-001 7.8119979e-001
      endloop
   endfacet
   facet normal -6.9272435e-001 -7.2120245e-001 0.0000000e+000
      outer loop
         vertex 1.6541947e-001 1.0144035e-001 7.8119979e-001
         vertex 1.1318409e-001 1.5161312e-001 1.0000000e-006
         vertex 1.6541947e-001 1.0144035e-001 1.0000000e-006
      endloop
   endfacet
   facet normal -5.6806475e-001 -8.2298387e-001 -0.0000000e+000
      outer loop
         vertex 1.6541947e-001 1.0144035e-001 7.8119979e-001
         vertex 1.6541947e-001 1.0144035e-001 1.0000000e-006
         vertex 2.2502670e-001 6.0296454e-002 7.8119979e-001
      endloop
   endfacet
   facet normal -5.6806475e-001 -8.2298387e-001 0.0000000e+000
      outer loop
         vertex 2.2502670e-001 6.0296454e-002 7.8119979e-001
         vertex 1.6541947e-001 1.0144035e-001 1.0000000e-006
         vertex 2.2502670e-001 6.0296454e-002 1.0000000e-006
      endloop
   endfacet
   facet normal -4.2869256e-001 -9.0345043e-001 -0.0000000e+000
      outer loop
         vertex 2.2502670e-001 6.0296454e-002 7.8119979e-001
         vertex 2.2502670e-001 6.0296454e-002 1.0000000e-006
         vertex 2.9046197e-001 2.9247031e-002 7.8119979e-001
      endloop
   endfacet
   facet normal -4.2869256e-001 -9.0345043e-001 0.0000000e+000
      outer loop
         vertex 2.9046197e-001 2.9247031e-002 7.8119979e-001
         vertex 2.2502670e-001 6.0296454e-002 1.0000000e-006
         vertex 2.9046197e-001 2.9247031e-002 1.0000000e-006
      endloop
   endfacet
   facet normal -2.7821746e-001 -9.6051811e-001 -0.0000000e+000
      outer loop
         vertex 2.9046197e-001 2.9247031e-002 7.8119979e-001
         vertex 2.9046197e-001 2.9247031e-002 1.0000000e-006
         vertex 3.6003055e-001 9.0962453e-003 7.8119979e-001
      endloop
   endfacet
   facet normal -2.7821746e-001 -9.6051811e-001 0.0000000e+000
      outer loop
         vertex 3.6003055e-001 9.0962453e-003 7.8119979e-001
         vertex 2.9046197e-001 2.9247031e-002 1.0000000e-006
         vertex 3.6003055e-001 9.0962453e-003 1.0000000e-006
      endloop
   endfacet
   facet normal -1.2053668e-001 -9.9270887e-001 -0.0000000e+000
      outer loop
         vertex 3.6003055e-001 9.0962453e-003 7.8119979e-001
         vertex 3.6003055e-001 9.0962453e-003 1.0000000e-006
         vertex 4.3193065e-001 3.6599251e-004 7.8119979e-001
      endloop
   endfacet
   facet normal -1.2053668e-001 -9.9270887e-001 0.0000000e+000
      outer loop
         vertex 4.3193065e-001 3.6599251e-004 7.8119979e-001
         vertex 3.6003055e-001 9.0962453e-003 1.0000000e-006
         vertex 4.3193065e-001 3.6599251e-004 1.0000000e-006
      endloop
   endfacet
   facet normal 4.0265940e-002 -9.9918900e-001 0.0000000e+000
      outer loop
         vertex 4.3193065e-001 3.6599251e-004 7.8119979e-001
         vertex 4.3193065e-001 3.6599251e-004 1.0000000e-006
         vertex 5.0430010e-001 3.2823814e-003 7.8119979e-001
      endloop
   endfacet
   facet normal 4.0265940e-002 -9.9918900e-001 0.0000000e+000
      outer loop
         vertex 5.0430010e-001 3.2823814e-003 7.8119979e-001
         vertex 4.3193065e-001 3.6599251e-004 1.0000000e-006
         vertex 5.0430010e-001 3.2823814e-003 1.0000000e-006
      endloop
   endfacet
   facet normal 2.0002569e-001 -9.7979065e-001 0.0000000e+000
      outer loop
         vertex 5.0430010e-001 3.2823814e-003 7.8119979e-001
         vertex 5.0430010e-001 3.2823814e-003 1.0000000e-006
         vertex 5.7526456e-001 1.7769879e-002 7.8119979e-001
      endloop
   endfacet
   facet normal 2.0002569e-001 -9.7979065e-001 0.0000000e+000
      outer loop
         vertex 5.7526456e-001 1.7769879e-002 7.8119979e-001
         vertex 5.0430010e-001 3.2823814e-003 1.0000000e-006
         vertex 5.7526456e-001 1.7769879e-002 1.0000000e-006
      endloop
   endfacet
   facet normal 3.5460489e-001 -9.3501624e-001 0.0000000e+000
      outer loop
         vertex 5.7526456e-001 1.7769879e-002 7.8119979e-001
         vertex 5.7526456e-001 1.7769879e-002 1.0000000e-006
         vertex 6.4298608e-001 4.3453267e-002 7.8119979e-001
      endloop
   endfacet
   facet normal 3.5460489e-001 -9.3501624e-001 0.0000000e+000
      outer loop
         vertex 6.4298608e-001 4.3453267e-002 7.8119979e-001
         vertex 5.7526456e-001 1.7769879e-002 1.0000000e-006
         vertex 6.4298608e-001 4.3453267e-002 1.0000000e-006
      endloop
   endfacet
   facet normal 5.0000000e-001 -8.6602540e-001 0.0000000e+000
      outer loop
         vertex 6.4298608e-001 4.3453267e-002 7.8119979e-001
         vertex 6.4298608e-001 4.3453267e-002 1.0000000e-006
         vertex 7.0571073e-001 7.9667358e-002 7.8119979e-001
      endloop
   endfacet
   facet normal 5.0000000e-001 -8.6602540e-001 0.0000000e+000
      outer loop
         vertex 7.0571073e-001 7.9667358e-002 7.8119979e-001
         vertex 6.4298608e-001 4.3453267e-002 1.0000000e-006
         vertex 7.0571073e-001 7.9667358e-002 1.0000000e-006
      endloop
   endfacet
   facet normal 6.3244538e-001 -7.7460496e-001 0.0000000e+000
      outer loop
         vertex 7.0571073e-001 7.9667358e-002 7.8119979e-001
         vertex 7.0571073e-001 7.9667358e-002 1.0000000e-006
         vertex 7.6181396e-001 1.2547423e-001 7.8119979e-001
      endloop
   endfacet
   facet normal 6.3244538e-001 -7.7460496e-001 0.0000000e+000
      outer loop
         vertex 7.6181396e-001 1.2547423e-001 7.8119979e-001
         vertex 7.0571073e-001 7.9667358e-002 1.0000000e-006
         vertex 7.6181396e-001 1.2547423e-001 1.0000000e-006
      endloop
   endfacet
   facet normal 7.4851075e-001 -6.6312266e-001 0.0000000e+000
      outer loop
         vertex 7.6181396e-001 1.2547423e-001 7.8119979e-001
         vertex 7.6181396e-001 1.2547423e-001 1.0000000e-006
         vertex 8.0984273e-001 1.7968750e-001 7.8119979e-001
      endloop
   endfacet
   facet normal 7.4851075e-001 -6.6312266e-001 0.0000000e+000
      outer loop
         vertex 8.0984273e-001 1.7968750e-001 7.8119979e-001
         vertex 7.6181396e-001 1.2547423e-001 1.0000000e-006
         vertex 8.0984273e-001 1.7968750e-001 1.0000000e-006
      endloop
   endfacet
   facet normal 8.4519009e-001 -5.3446583e-001 0.0000000e+000
      outer loop
         vertex 8.0984273e-001 1.7968750e-001 7.8119979e-001
         vertex 8.0984273e-001 1.7968750e-001 1.0000000e-006
         vertex 8.4855312e-001 2.4090308e-001 7.8119979e-001
      endloop
   endfacet
   facet normal 8.4519009e-001 -5.3446583e-001 0.0000000e+000
      outer loop
         vertex 8.4855312e-001 2.4090308e-001 7.8119979e-001
         vertex 8.0984273e-001 1.7968750e-001 1.0000000e-006
         vertex 8.4855312e-001 2.4090308e-001 1.0000000e-006
      endloop
   endfacet
   facet normal 9.1997944e-001 -3.9196661e-001 0.0000000e+000
      outer loop
         vertex 8.4855312e-001 2.4090308e-001 7.8119979e-001
         vertex 8.4855312e-001 2.4090308e-001 1.0000000e-006
         vertex 8.7694255e-001 3.0753552e-001 7.8119979e-001
      endloop
   endfacet
   facet normal 9.1997944e-001 -3.9196661e-001 0.0000000e+000
      outer loop
         vertex 8.7694255e-001 3.0753552e-001 7.8119979e-001
         vertex 8.4855312e-001 2.4090308e-001 1.0000000e-006
         vertex 8.7694255e-001 3.0753552e-001 1.0000000e-006
      endloop
   endfacet
   facet normal 9.7094182e-001 -2.3931566e-001 0.0000000e+000
      outer loop
         vertex 8.7694255e-001 3.0753552e-001 7.8119979e-001
         vertex 8.7694255e-001 3.0753552e-001 1.0000000e-006
         vertex 8.9427575e-001 3.7785908e-001 7.8119979e-001
      endloop
   endfacet
   facet normal 9.7094182e-001 -2.3931566e-001 0.0000000e+000
      outer loop
         vertex 8.9427575e-001 3.7785908e-001 7.8119979e-001
         vertex 8.7694255e-001 3.0753552e-001 1.0000000e-006
         vertex 8.9427575e-001 3.7785908e-001 1.0000000e-006
      endloop
   endfacet
   facet normal 0.0000000e+000 0.0000000e+000 1.0000000e+000
      outer loop
         vertex 9.0010379e-001 4.5005240e-001 7.8119979e-001
         vertex 8.9427575e-001 5.2224572e-001 7.8119979e-001
         vertex 8.9427575e-001 3.7785908e-001 7.8119979e-001
      endloop
   endfacet
   facet normal 0.0000000e+000 -0.0000000e+000 1.0000000e+000
      outer loop
         vertex 8.9427575e-001 3.7785908e-001 7.8119979e-001
         vertex 8.9427575e-001 5.2224572e-001 7.8119979e-001
         vertex 8.7694255e-001 5.9256927e-001 7.8119979e-001
      endloop
   endfacet
   facet normal 0.0000000e+000 0.0000000e+000 1.0000000e+000
      outer loop
         vertex 8.9427575e-001 3.7785908e-001 7.8119979e-001
         vertex 8.7694255e-001 5.9256927e-001 7.8119979e-001
         vertex 8.7694255e-001 3.0753552e-001 7.8119979e-001
      endloop
   endfacet
   facet normal 0.0000000e+000 -0.0000000e+000 1.0000000e+000
      outer loop
         vertex 8.7694255e-001 3.0753552e-001 7.8119979e-001
         vertex 8.7694255e-001 5.9256927e-001 7.8119979e-001
         vertex 8.4855312e-001 6.5920171e-001 7.8119979e-001
      endloop
   endfacet
   facet normal 0.0000000e+000 0.0000000e+000 1.0000000e+000
      outer loop
         vertex 8.7694255e-001 3.0753552e-001 7.8119979e-001
         vertex 8.4855312e-001 6.5920171e-001 7.8119979e-001
         vertex 8.4855312e-001 2.4090308e-001 7.8119979e-001
      endloop
   endfacet
   facet normal 0.0000000e+000 -0.0000000e+000 1.0000000e+000
      outer loop
         vertex 8.4855312e-001 2.4090308e-001 7.8119979e-001
         vertex 8.4855312e-001 6.5920171e-001 7.8119979e-001
         vertex 8.0984273e-001 7.2041729e-001 7.8119979e-001
      endloop
   endfacet
   facet normal 0.0000000e+000 0.0000000e+000 1.0000000e+000
      outer loop
         vertex 8.4855312e-001 2.4090308e-001 7.8119979e-001
         vertex 8.0984273e-001 7.2041729e-001 7.8119979e-001
         vertex 8.0984273e-001 1.7968750e-001 7.8119979e-001
      endloop
   endfacet
   facet normal 0.0000000e+000 -0.0000000e+000 1.0000000e+000
      outer loop
         vertex 8.0984273e-001 1.7968750e-001 7.8119979e-001
         vertex 8.0984273e-001 7.2041729e-001 7.8119979e-001
         vertex 7.6181396e-001 7.7463057e-001 7.8119979e-001
      endloop
   endfacet
   facet normal 0.0000000e+000 0.0000000e+000 1.0000000e+000
      outer loop
         vertex 8.0984273e-001 1.7968750e-001 7.8119979e-001
         vertex 7.6181396e-001 7.7463057e-001 7.8119979e-001
         vertex 7.6181396e-001 1.2547423e-001 7.8119979e-001
      endloop
   endfacet
   facet normal 0.0000000e+000 -0.0000000e+000 1.0000000e+000
      outer loop
         vertex 7.6181396e-001 1.2547423e-001 7.8119979e-001
         vertex 7.6181396e-001 7.7463057e-001 7.8119979e-001
         vertex 7.0571073e-001 8.2043744e-001 7.8119979e-001
      endloop
   endfacet
   facet normal 0.0000000e+000 0.0000000e+000 1.0000000e+000
      outer loop
         vertex 7.6181396e-001 1.2547423e-001 7.8119979e-001
         vertex 7.0571073e-001 8.2043744e-001 7.8119979e-001
         vertex 7.0571073e-001 7.9667358e-002 7.8119979e-001
      endloop
   endfacet
   facet normal 0.0000000e+000 -0.0000000e+000 1.0000000e+000
      outer loop
         vertex 7.0571073e-001 7.9667358e-002 7.8119979e-001
         vertex 7.0571073e-001 8.2043744e-001 7.8119979e-001
         vertex 6.4298608e-001 8.5665153e-001 7.8119979e-001
      endloop
   endfacet
   facet normal 0.0000000e+000 0.0000000e+000 1.0000000e+000
      outer loop
         vertex 7.0571073e-001 7.9667358e-002 7.8119979e-001
         vertex 6.4298608e-001 8.5665153e-001 7.8119979e-001
         vertex 6.4298608e-001 4.3453267e-002 7.8119979e-001
      endloop
   endfacet
   facet normal 0.0000000e+000 -0.0000000e+000 1.0000000e+000
      outer loop
         vertex 6.4298608e-001 4.3453267e-002 7.8119979e-001
         vertex 6.4298608e-001 8.5665153e-001 7.8119979e-001
         vertex 5.7526456e-001 8.8233491e-001 7.8119979e-001
      endloop
   endfacet
   facet normal 0.0000000e+000 0.0000000e+000 1.0000000e+000
      outer loop
         vertex 6.4298608e-001 4.3453267e-002 7.8119979e-001
         vertex 5.7526456e-001 8.8233491e-001 7.8119979e-001
         vertex 5.7526456e-001 1.7769879e-002 7.8119979e-001
      endloop
   endfacet
   facet normal 0.0000000e+000 -0.0000000e+000 1.0000000e+000
      outer loop
         vertex 5.7526456e-001 1.7769879e-002 7.8119979e-001
         vertex 5.7526456e-001 8.8233491e-001 7.8119979e-001
         vertex 5.0430010e-001 8.9682241e-001 7.8119979e-001
      endloop
   endfacet
   facet normal 0.0000000e+000 0.0000000e+000 1.0000000e+000
      outer loop
         vertex 5.7526456e-001 1.7769879e-002 7.8119979e-001
         vertex 5.0430010e-001 8.9682241e-001 7.8119979e-001
         vertex 5.0430010e-001 3.2823814e-003 7.8119979e-001
      endloop
   endfacet
   facet normal 0.0000000e+000 -0.0000000e+000 1.0000000e+000
      outer loop
         vertex 5.0430010e-001 3.2823814e-003 7.8119979e-001
         vertex 5.0430010e-001 8.9682241e-001 7.8119979e-001
         vertex 4.3193065e-001 8.9973880e-001 7.8119979e-001
      endloop
   endfacet
   facet normal 0.0000000e+000 0.0000000e+000 1.0000000e+000
      outer loop
         vertex 5.0430010e-001 3.2823814e-003 7.8119979e-001
         vertex 4.3193065e-001 8.9973880e-001 7.8119979e-001
         vertex 4.3193065e-001 3.6599251e-004 7.8119979e-001
      endloop
   endfacet
   facet normal 0.0000000e+000 -0.0000000e+000 1.0000000e+000
      outer loop
         vertex 4.3193065e-001 3.6599251e-004 7.8119979e-001
         vertex 4.3193065e-001 8.9973880e-001 7.8119979e-001
         vertex 3.6003055e-001 8.9100855e-001 7.8119979e-001
      endloop
   endfacet
   facet normal 0.0000000e+000 0.0000000e+000 1.0000000e+000
      outer loop
         vertex 4.3193065e-001 3.6599251e-004 7.8119979e-001
         vertex 3.6003055e-001 8.9100855e-001 7.8119979e-001
         vertex 2.9046197e-001 8.7085776e-001 7.8119979e-001
      endloop
   endfacet
   facet normal 0.0000000e+000 0.0000000e+000 1.0000000e+000
      outer loop
         vertex 2.9046197e-001 8.7085776e-001 7.8119979e-001
         vertex 2.2502670e-001 8.3980834e-001 7.8119979e-001
         vertex 4.3193065e-001 3.6599251e-004 7.8119979e-001
      endloop
   endfacet
   facet normal 0.0000000e+000 0.0000000e+000 1.0000000e+000
      outer loop
         vertex 4.3193065e-001 3.6599251e-004 7.8119979e-001
         vertex 2.2502670e-001 8.3980834e-001 7.8119979e-001
         vertex 1.6541947e-001 7.9866444e-001 7.8119979e-001
      endloop
   endfacet
   facet normal 0.0000000e+000 0.0000000e+000 1.0000000e+000
      outer loop
         vertex 4.3193065e-001 3.6599251e-004 7.8119979e-001
         vertex 1.6541947e-001 7.9866444e-001 7.8119979e-001
         vertex 1.1318409e-001 7.4849168e-001 7.8119979e-001
      endloop
   endfacet
   facet normal 0.0000000e+000 0.0000000e+000 1.0000000e+000
      outer loop
         vertex 1.1318409e-001 7.4849168e-001 7.8119979e-001
         vertex 6.9673418e-002 6.9058949e-001 7.8119979e-001
         vertex 4.3193065e-001 3.6599251e-004 7.8119979e-001
      endloop
   endfacet
   facet normal 0.0000000e+000 0.0000000e+000 1.0000000e+000
      outer loop
         vertex 4.3193065e-001 3.6599251e-004 7.8119979e-001
         vertex 6.9673418e-002 6.9058949e-001 7.8119979e-001
         vertex 3.6014363e-002 6.2645752e-001 7.8119979e-001
      endloop
   endfacet
   facet normal 0.0000000e+000 0.0000000e+000 1.0000000e+000
      outer loop
         vertex 4.3193065e-001 3.6599251e-004 7.8119979e-001
         vertex 3.6014363e-002 6.2645752e-001 7.8119979e-001
         vertex 1.3078676e-002 5.5775675e-001 7.8119979e-001
      endloop
   endfacet
   facet normal 0.0000000e+000 0.0000000e+000 1.0000000e+000
      outer loop
         vertex 1.3078676e-002 5.5775675e-001 7.8119979e-001
         vertex 1.4603780e-003 4.8626649e-001 7.8119979e-001
         vertex 4.3193065e-001 3.6599251e-004 7.8119979e-001
      endloop
   endfacet
   facet normal 0.0000000e+000 0.0000000e+000 1.0000000e+000
      outer loop
         vertex 4.3193065e-001 3.6599251e-004 7.8119979e-001
         vertex 1.4603780e-003 4.8626649e-001 7.8119979e-001
         vertex 1.4603780e-003 4.1383831e-001 7.8119979e-001
      endloop
   endfacet
   facet normal 0.0000000e+000 0.0000000e+000 1.0000000e+000
      outer loop
         vertex 4.3193065e-001 3.6599251e-004 7.8119979e-001
         vertex 1.4603780e-003 4.1383831e-001 7.8119979e-001
         vertex 1.3078676e-002 3.4234805e-001 7.8119979e-001
      endloop
   endfacet
   facet normal 0.0000000e+000 0.0000000e+000 1.0000000e+000
      outer loop
         vertex 1.3078676e-002 3.4234805e-001 7.8119979e-001
         vertex 3.6014363e-002 2.7364728e-001 7.8119979e-001
         vertex 4.3193065e-001 3.6599251e-004 7.8119979e-001
      endloop
   endfacet
   facet normal 0.0000000e+000 0.0000000e+000 1.0000000e+000
      outer loop
         vertex 4.3193065e-001 3.6599251e-004 7.8119979e-001
         vertex 3.6014363e-002 2.7364728e-001 7.8119979e-001
         vertex 6.9673418e-002 2.0951531e-001 7.8119979e-001
      endloop
   endfacet
   facet normal 0.0000000e+000 0.0000000e+000 1.0000000e+000
      outer loop
         vertex 4.3193065e-001 3.6599251e-004 7.8119979e-001
         vertex 6.9673418e-002 2.0951531e-001 7.8119979e-001
         vertex 1.1318409e-001 1.5161312e-001 7.8119979e-001
      endloop
   endfacet
   facet normal 0.0000000e+000 0.0000000e+000 1.0000000e+000
      outer loop
         vertex 1.1318409e-001 1.5161312e-001 7.8119979e-001
         vertex 1.6541947e-001 1.0144035e-001 7.8119979e-001
         vertex 4.3193065e-001 3.6599251e-004 7.8119979e-001
      endloop
   endfacet
   facet normal 0.0000000e+000 0.0000000e+000 1.0000000e+000
      outer loop
         vertex 4.3193065e-001 3.6599251e-004 7.8119979e-001
         vertex 1.6541947e-001 1.0144035e-001 7.8119979e-001
         vertex 2.2502670e-001 6.0296454e-002 7.8119979e-001
      endloop
   endfacet
   facet normal 0.0000000e+000 0.0000000e+000 1.0000000e+000
      outer loop
         vertex 4.3193065e-001 3.6599251e-004 7.8119979e-001
         vertex 2.2502670e-001 6.0296454e-002 7.8119979e-001
         vertex 2.9046197e-001 2.9247031e-002 7.8119979e-001
      endloop
   endfacet
   facet normal 0.0000000e+000 0.0000000e+000 1.0000000e+000
      outer loop
         vertex 2.9046197e-001 2.9247031e-002 7.8119979e-001
         vertex 3.6003055e-001 9.0962453e-003 7.8119979e-001
         vertex 4.3193065e-001 3.6599251e-004 7.8119979e-001
      endloop
   endfacet
   facet normal -0.0000000e+000 0.0000000e+000 -1.0000000e+000
      outer loop
         vertex 9.0010379e-001 4.5005240e-001 1.0000000e-006
         vertex 8.9427575e-001 3.7785908e-001 1.0000000e-006
         vertex 8.9427575e-001 5.2224572e-001 1.0000000e-006
      endloop
   endfacet
   facet normal -0.0000000e+000 -0.0000000e+000 -1.0000000e+000
      outer loop
         vertex 8.9427575e-001 5.2224572e-001 1.0000000e-006
         vertex 8.9427575e-001 3.7785908e-001 1.0000000e-006
         vertex 8.7694255e-001 5.9256927e-001 1.0000000e-006
      endloop
   endfacet
   facet normal 0.0000000e+000 -0.0000000e+000 -1.0000000e+000
      outer loop
         vertex 8.7694255e-001 5.9256927e-001 1.0000000e-006
         vertex 8.9427575e-001 3.7785908e-001 1.0000000e-006
         vertex 8.7694255e-001 3.0753552e-001 1.0000000e-006
      endloop
   endfacet
   facet normal -0.0000000e+000 -0.0000000e+000 -1.0000000e+000
      outer loop
         vertex 8.7694255e-001 5.9256927e-001 1.0000000e-006
         vertex 8.7694255e-001 3.0753552e-001 1.0000000e-006
         vertex 8.4855312e-001 6.5920171e-001 1.0000000e-006
      endloop
   endfacet
   facet normal 0.0000000e+000 -0.0000000e+000 -1.0000000e+000
      outer loop
         vertex 8.4855312e-001 6.5920171e-001 1.0000000e-006
         vertex 8.7694255e-001 3.0753552e-001 1.0000000e-006
         vertex 8.4855312e-001 2.4090308e-001 1.0000000e-006
      endloop
   endfacet
   facet normal -0.0000000e+000 0.0000000e+000 -1.0000000e+000
      outer loop
         vertex 8.4855312e-001 6.5920171e-001 1.0000000e-006
         vertex 8.4855312e-001 2.4090308e-001 1.0000000e-006
         vertex 8.0984273e-001 7.2041729e-001 1.0000000e-006
      endloop
   endfacet
   facet normal 0.0000000e+000 -0.0000000e+000 -1.0000000e+000
      outer loop
         vertex 8.0984273e-001 7.2041729e-001 1.0000000e-006
         vertex 8.4855312e-001 2.4090308e-001 1.0000000e-006
         vertex 8.0984273e-001 1.7968750e-001 1.0000000e-006
      endloop
   endfacet
   facet normal -0.0000000e+000 0.0000000e+000 -1.0000000e+000
      outer loop
         vertex 8.0984273e-001 7.2041729e-001 1.0000000e-006
         vertex 8.0984273e-001 1.7968750e-001 1.0000000e-006
         vertex 7.6181396e-001 7.7463057e-001 1.0000000e-006
      endloop
   endfacet
   facet normal 0.0000000e+000 -0.0000000e+000 -1.0000000e+000
      outer loop
         vertex 7.6181396e-001 7.7463057e-001 1.0000000e-006
         vertex 8.0984273e-001 1.7968750e-001 1.0000000e-006
         vertex 7.6181396e-001 1.2547423e-001 1.0000000e-006
      endloop
   endfacet
   facet normal -0.0000000e+000 -0.0000000e+000 -1.0000000e+000
      outer loop
         vertex 7.6181396e-001 7.7463057e-001 1.0000000e-006
         vertex 7.6181396e-001 1.2547423e-001 1.0000000e-006
         vertex 7.0571073e-001 8.2043744e-001 1.0000000e-006
      endloop
   endfacet
   facet normal 0.0000000e+000 -0.0000000e+000 -1.0000000e+000
      outer loop
         vertex 7.0571073e-001 8.2043744e-001 1.0000000e-006
         vertex 7.6181396e-001 1.2547423e-001 1.0000000e-006
         vertex 7.0571073e-001 7.9667358e-002 1.0000000e-006
      endloop
   endfacet
   facet normal -0.0000000e+000 -0.0000000e+000 -1.0000000e+000
      outer loop
         vertex 7.0571073e-001 8.2043744e-001 1.0000000e-006
         vertex 7.0571073e-001 7.9667358e-002 1.0000000e-006
         vertex 6.4298608e-001 8.5665153e-001 1.0000000e-006
      endloop
   endfacet
   facet normal 0.0000000e+000 -0.0000000e+000 -1.0000000e+000
      outer loop
         vertex 6.4298608e-001 8.5665153e-001 1.0000000e-006
         vertex 7.0571073e-001 7.9667358e-002 1.0000000e-006
         vertex 6.4298608e-001 4.3453267e-002 1.0000000e-006
      endloop
   endfacet
   facet normal -0.0000000e+000 -0.0000000e+000 -1.0000000e+000
      outer loop
         vertex 6.4298608e-001 8.5665153e-001 1.0000000e-006
         vertex 6.4298608e-001 4.3453267e-002 1.0000000e-006
         vertex 5.7526456e-001 8.8233491e-001 1.0000000e-006
      endloop
   endfacet
   facet normal 0.0000000e+000 -0.0000000e+000 -1.0000000e+000
      outer loop
         vertex 5.7526456e-001 8.8233491e-001 1.0000000e-006
         vertex 6.4298608e-001 4.3453267e-002 1.0000000e-006
         vertex 5.7526456e-001 1.7769879e-002 1.0000000e-006
      endloop
   endfacet
   facet normal -0.0000000e+000 0.0000000e+000 -1.0000000e+000
      outer loop
         vertex 5.7526456e-001 8.8233491e-001 1.0000000e-006
         vertex 5.7526456e-001 1.7769879e-002 1.0000000e-006
         vertex 5.0430010e-001 8.9682241e-001 1.0000000e-006
      endloop
   endfacet
   facet normal 0.0000000e+000 -0.0000000e+000 -1.0000000e+000
      outer loop
         vertex 5.0430010e-001 8.9682241e-001 1.0000000e-006
         vertex 5.7526456e-001 1.7769879e-002 1.0000000e-006
         vertex 5.0430010e-001 3.2823814e-003 1.0000000e-006
      endloop
   endfacet
   facet normal -0.0000000e+000 0.0000000e+000 -1.0000000e+000
      outer loop
         vertex 5.0430010e-001 8.9682241e-001 1.0000000e-006
         vertex 5.0430010e-001 3.2823814e-003 1.0000000e-006
         vertex 4.3193065e-001 8.9973880e-001 1.0000000e-006
      endloop
   endfacet
   facet normal 0.0000000e+000 -0.0000000e+000 -1.0000000e+000
      outer loop
         vertex 4.3193065e-001 8.9973880e-001 1.0000000e-006
         vertex 5.0430010e-001 3.2823814e-003 1.0000000e-006
         vertex 4.3193065e-001 3.6599251e-004 1.0000000e-006
      endloop
   endfacet
   facet normal -0.0000000e+000 -0.0000000e+000 -1.0000000e+000
      outer loop
         vertex 4.3193065e-001 8.9973880e-001 1.0000000e-006
         vertex 4.3193065e-001 3.6599251e-004 1.0000000e-006
         vertex 3.6003055e-001 8.9100855e-001 1.0000000e-006
      endloop
   endfacet
   facet normal -0.0000000e+000 -0.0000000e+000 -1.0000000e+000
      outer loop
         vertex 3.6003055e-001 8.9100855e-001 1.0000000e-006
         vertex 4.3193065e-001 3.6599251e-004 1.0000000e-006
         vertex 2.9046197e-001 8.7085776e-001 1.0000000e-006
      endloop
   endfacet
   facet normal -0.0000000e+000 -0.0000000e+000 -1.0000000e+000
      outer loop
         vertex 2.9046197e-001 8.7085776e-001 1.0000000e-006
         vertex 4.3193065e-001 3.6599251e-004 1.0000000e-006
         vertex 2.2502670e-001 8.3980834e-001 1.0000000e-006
      endloop
   endfacet
   facet normal -0.0000000e+000 -0.0000000e+000 -1.0000000e+000
      outer loop
         vertex 2.2502670e-001 8.3980834e-001 1.0000000e-006
         vertex 4.3193065e-001 3.6599251e-004 1.0000000e-006
         vertex 1.6541947e-001 7.9866444e-001 1.0000000e-006
      endloop
   endfacet
   facet normal -0.0000000e+000 -0.0000000e+000 -1.0000000e+000
      outer loop
         vertex 1.6541947e-001 7.9866444e-001 1.0000000e-006
         vertex 4.3193065e-001 3.6599251e-004 1.0000000e-006
         vertex 1.1318409e-001 7.4849168e-001 1.0000000e-006
      endloop
   endfacet
   facet normal -0.0000000e+000 -0.0000000e+000 -1.0000000e+000
      outer loop
         vertex 1.1318409e-001 7.4849168e-001 1.0000000e-006
         vertex 4.3193065e-001 3.6599251e-004 1.0000000e-006
         vertex 6.9673418e-002 6.9058949e-001 1.0000000e-006
      endloop
   endfacet
   facet normal -0.0000000e+000 -0.0000000e+000 -1.0000000e+000
      outer loop
         vertex 6.9673418e-002 6.9058949e-001 1.0000000e-006
         vertex 4.3193065e-001 3.6599251e-004 1.0000000e-006
         vertex 3.6014363e-002 6.2645752e-001 1.0000000e-006
      endloop
   endfacet
   facet normal -0.0000000e+000 -0.0000000e+000 -1.0000000e+000
      outer loop
         vertex 3.6014363e-002 6.2645752e-001 1.0000000e-006
         vertex 4.3193065e-001 3.6599251e-004 1.0000000e-006
         vertex 1.3078676e-002 5.5775675e-001 1.0000000e-006
      endloop
   endfacet
   facet normal -0.0000000e+000 -0.0000000e+000 -1.0000000e+000
      outer loop
         vertex 1.3078676e-002 5.5775675e-001 1.0000000e-006
         vertex 4.3193065e-001 3.6599251e-004 1.0000000e-006
         vertex 1.4603780e-003 4.8626649e-001 1.0000000e-006
      endloop
   endfacet
   facet normal -0.0000000e+000 -0.0000000e+000 -1.0000000e+000
      outer loop
         vertex 1.4603780e-003 4.8626649e-001 1.0000000e-006
         vertex 4.3193065e-001 3.6599251e-004 1.0000000e-006
         vertex 1.4603780e-003 4.1383831e-001 1.0000000e-006
      endloop
   endfacet
   facet normal -0.0000000e+000 -0.0000000e+000 -1.0000000e+000
      outer loop
         vertex 1.4603780e-003 4.1383831e-001 1.0000000e-006
         vertex 4.3193065e-001 3.6599251e-004 1.0000000e-006
         vertex 1.3078676e-002 3.4234805e-001 1.0000000e-006
      endloop
   endfacet
   facet normal -0.0000000e+000 -0.0000000e+000 -1.0000000e+000
      outer loop
         vertex 1.3078676e-002 3.4234805e-001 1.0000000e-006
         vertex 4.3193065e-001 3.6599251e-004 1.0000000e-006
         vertex 3.6014363e-002 2.7364728e-001 1.0000000e-006
      endloop
   endfacet
   facet normal -0.0000000e+000 -0.0000000e+000 -1.0000000e+000
      outer loop
         vertex 3.6014363e-002 2.7364728e-001 1.0000000e-006
         vertex 4.3193065e-001 3.6599251e-004 1.0000000e-006
         vertex 6.9673418e-002 2.0951531e-001 1.0000000e-006
      endloop
   endfacet
   facet normal -0.0000000e+000 -0.0000000e+000 -1.0000000e+000
      outer loop
         vertex 6.9673418e-002 2.0951531e-001 1.0000000e-006
         vertex 4.3193065e-001 3.6599251e-004 1.0000000e-006
         vertex 1.1318409e-001 1.5161312e-001 1.0000000e-006
      endloop
   endfacet
   facet normal -0.0000000e+000 -0.0000000e+000 -1.0000000e+000
      outer loop
         vertex 1.1318409e-001 1.5161312e-001 1.0000000e-006
         vertex 4.3193065e-001 3.6599251e-004 1.0000000e-006
         vertex 1.6541947e-001 1.0144035e-001 1.0000000e-006
      endloop
   endfacet
   facet normal -0.0000000e+000 -0.0000000e+000 -1.0000000e+000
      outer loop
         vertex 1.6541947e-001 1.0144035e-001 1.0000000e-006
         vertex 4.3193065e-001 3.6599251e-004 1.0000000e-006
         vertex 2.2502670e-001 6.0296454e-002 1.0000000e-006
      endloop
   endfacet
   facet normal -0.0000000e+000 -0.0000000e+000 -1.0000000e+000
      outer loop
         vertex 2.2502670e-001 6.0296454e-002 1.0000000e-006
         vertex 4.3193065e-001 3.6599251e-004 1.0000000e-006
         vertex 2.9046197e-001 2.9247031e-002 1.0000000e-006
      endloop
   endfacet
   facet normal -0.0000000e+000 -0.0000000e+000 -1.0000000e+000
      outer loop
         vertex 2.9046197e-001 2.9247031e-002 1.0000000e-006
         vertex 4.3193065e-001 3.6599251e-004 1.0000000e-006
         vertex 3.6003055e-001 9.0962453e-003 1.0000000e-006
      endloop
   endfacet
endsolid AutoCAD
